<?xml version="1.0" encoding="UTF-8" standalone="no"?>
<!-- Generator: Adobe Illustrator 23.0.2, SVG Export Plug-In . SVG Version: 6.00 Build 0)  -->

<svg
   xmlns:dc="http://purl.org/dc/elements/1.1/"
   xmlns:cc="http://creativecommons.org/ns#"
   xmlns:rdf="http://www.w3.org/1999/02/22-rdf-syntax-ns#"
   xmlns:svg="http://www.w3.org/2000/svg"
   xmlns="http://www.w3.org/2000/svg"
   xmlns:sodipodi="http://sodipodi.sourceforge.net/DTD/sodipodi-0.dtd"
   xmlns:inkscape="http://www.inkscape.org/namespaces/inkscape"
   version="1.1"
   id="Capa_1"
   x="0px"
   y="0px"
   viewBox="0 0 768 308.87898"
   xml:space="preserve"
   sodipodi:docname="live-dj-logo-readme.svg"
   width="768"
   height="308.879"
   inkscape:version="0.92.5 (2060ec1f9f, 2020-04-08)"><metadata
   id="metadata29"><rdf:RDF><cc:Work
       rdf:about=""><dc:format>image/svg+xml</dc:format><dc:type
         rdf:resource="http://purl.org/dc/dcmitype/StillImage" /><dc:title></dc:title></cc:Work></rdf:RDF></metadata><defs
   id="defs27" /><sodipodi:namedview
   pagecolor="#ffffff"
   bordercolor="#666666"
   borderopacity="1"
   objecttolerance="10"
   gridtolerance="10"
   guidetolerance="10"
   inkscape:pageopacity="0"
   inkscape:pageshadow="2"
   inkscape:window-width="1920"
   inkscape:window-height="1019"
   id="namedview25"
   showgrid="false"
   inkscape:zoom="0.59570313"
   inkscape:cx="154.06934"
   inkscape:cy="108.09476"
   inkscape:window-x="0"
   inkscape:window-y="29"
   inkscape:window-maximized="1"
   inkscape:current-layer="Capa_1" />
<style
   type="text/css"
   id="style2">
	.st0{fill:#C1292A;}
</style>
<rect
   style="opacity:1;fill:#ffffff;fill-opacity:1;stroke:none;stroke-width:0.10208742;stroke-linecap:round;stroke-linejoin:round;stroke-miterlimit:4;stroke-dasharray:none;stroke-opacity:1;paint-order:stroke fill markers"
   id="rect4790"
   width="768"
   height="308.87869"
   x="0"
   y="0.00015258789"
   ry="11.568488" /><g
   id="g22"
   transform="translate(128.005,43.193062)">
	<g
   id="g10">
		<circle
   class="st0"
   cx="464.13"
   cy="28.860001"
   r="11.51"
   id="circle4"
   style="fill:#c1292a" />
		<path
   d="m 484.75,25.75 c 0.08,-4.39 -1.53,-8.94 -4.5,-12.42 -1.96,-2.32 -4.53,-4.14 -7.36,-5.21 -2.84,-1.07 -5.85,-1.5 -8.8,-1.41 -2.91,0.1 -5.86,0.57 -8.6,1.71 -2.74,1.12 -5.2,2.95 -7.01,5.26 -1.81,2.32 -2.97,5.03 -3.63,7.81 -0.33,1.36 -0.53,2.74 -0.64,4.13 -1.8,0.07 -3.24,1.96 -3.24,4.3 0,2.38 1.49,4.31 3.34,4.31 1.84,0 3.34,-1.93 3.34,-4.31 0,-2.12 -1.19,-3.87 -2.75,-4.24 0.22,-1.33 0.52,-2.65 0.92,-3.92 0.82,-2.61 2.12,-5.06 3.91,-7.03 1.76,-1.99 4.03,-3.47 6.52,-4.32 2.49,-0.86 5.17,-1.14 7.84,-1.08 2.64,0.09 5.22,0.67 7.54,1.78 2.32,1.09 4.41,2.59 6.19,4.42 1.8,1.82 3.23,4.04 4.25,6.47 0.49,1.19 0.88,2.44 1.17,3.73 -1.5,0.43 -2.62,2.14 -2.62,4.21 0,2.38 1.49,4.31 3.34,4.31 1.84,0 3.34,-1.93 3.34,-4.31 0,-2.04 -1.09,-3.73 -2.55,-4.19 z"
   id="path6"
   inkscape:connector-curvature="0" />
		<path
   d="m 505.77,87.53 c -7.41,1.84 -14.74,3.98 -21.99,6.39 -3.63,1.19 -7.24,2.48 -10.83,3.81 -3.58,1.37 -7.15,2.78 -10.67,4.33 l -2.65,1.16 -2.62,1.23 c -0.88,0.4 -1.74,0.82 -2.62,1.29 -0.38,0.2 -0.76,0.4 -1.14,0.6 2.64,-17.35 5.24,-34.71 8.12,-52.02 l 1.35,-8.09 -4.05,7.12 c -3.15,5.53 -6.95,10.98 -11.67,15.19 -1.18,1 -2.5,2 -3.8,2.98 -1.31,0.97 -2.61,1.93 -3.96,2.82 -2.69,1.79 -5.49,3.4 -8.41,4.73 -2.92,1.31 -5.95,2.4 -9.07,3.08 -3.12,0.72 -6.24,0.97 -9.54,1.16 -2.93,0.18 -5.86,0.26 -8.77,0.27 4.4,-25.11 8.66,-50.25 12.41,-75.47 l -0.8,-0.16 c -6.1,25.11 -11.69,50.3 -17.12,75.53 -1.73,-0.07 -3.45,-0.17 -5.17,-0.31 -6.46,-0.56 -13.06,-1.47 -19.86,-1.47 -3.39,-0.01 -6.84,0.21 -10.32,0.83 -3.46,0.65 -6.98,1.75 -10.23,3.71 -3.23,1.94 -6.11,4.82 -7.93,8.24 -0.9,1.7 -1.59,3.49 -2.09,5.3 -0.45,1.81 -0.82,3.63 -0.95,5.44 -0.11,0.91 -0.11,1.8 -0.16,2.7 -0.03,0.91 -0.01,1.9 0.07,2.85 0.15,1.92 0.56,3.83 1.19,5.66 1.26,3.68 3.45,7 6.2,9.63 5.51,5.29 12.96,8.07 20.5,7.96 3.77,-0.07 7.61,-0.93 11.06,-2.73 1.72,-0.89 3.34,-2.06 4.75,-3.32 1.39,-1.28 2.62,-2.65 3.73,-4.08 2.19,-2.87 3.92,-5.9 5.44,-8.99 1.51,-3.09 2.79,-6.24 3.93,-9.43 1.13,-3.19 2.12,-6.4 2.94,-9.67 0.41,-1.64 0.81,-3.24 1.13,-5 l 0.65,-3.66 c 3.23,-0.16 6.44,-0.42 9.64,-0.71 3.25,-0.3 6.69,-0.71 9.95,-1.59 3.27,-0.87 6.45,-2.02 9.48,-3.47 3.04,-1.43 5.94,-3.12 8.71,-4.98 1.4,-0.91 2.75,-1.88 4.09,-2.85 1.33,-0.99 2.64,-1.95 3.98,-3.06 2.57,-2.24 4.81,-4.77 6.87,-7.41 0.53,-0.67 1.05,-1.35 1.55,-2.04 -3.25,16.36 -6.71,32.68 -10.1,49.02 -1.7,1.08 -3.38,2.18 -5.03,3.31 -1.61,1.08 -3.16,2.21 -4.74,3.32 -1.55,1.15 -3.1,2.29 -4.62,3.47 -3.06,2.34 -6.06,4.74 -9.02,7.22 -2.96,2.48 -5.88,4.99 -8.72,7.74 -1.4,1.35 -2.87,2.9 -4.15,4.41 -1.3,1.53 -2.51,3.09 -3.69,4.68 -2.34,3.18 -4.5,6.45 -6.52,9.81 -2.02,3.36 -3.9,6.8 -5.6,10.35 -3.39,7.09 -6.3,14.52 -7.68,22.68 -0.64,4.08 -0.95,8.4 -0.02,12.92 0.22,1.13 0.57,2.26 0.97,3.39 0.44,1.12 0.95,2.24 1.61,3.3 1.29,2.13 3.09,4.05 5.14,5.44 2.05,1.41 4.3,2.36 6.51,2.95 1.07,0.28 2.28,0.55 3.51,0.66 l 0.92,0.08 c 0.31,0.01 0.62,0.01 0.93,0.01 0.62,0.02 1.24,-0.03 1.86,-0.09 2.48,-0.23 4.88,-1 6.97,-2.1 2.1,-1.09 3.94,-2.45 5.57,-3.93 3.24,-2.97 5.71,-6.35 7.85,-9.79 2.14,-3.45 3.91,-7.02 5.51,-10.63 3.15,-7.23 5.58,-14.63 7.64,-22.09 2.05,-7.48 3.75,-14.96 5.04,-22.65 1.75,-10.47 3.39,-20.95 5,-31.44 0.74,-0.5 1.49,-0.99 2.24,-1.47 0.77,-0.52 1.56,-0.97 2.35,-1.44 0.77,-0.48 1.6,-0.92 2.42,-1.37 l 2.46,-1.36 2.5,-1.3 c 6.69,-3.45 13.6,-6.55 20.58,-9.5 6.99,-2.93 14.07,-5.72 21.21,-8.3 z m -110.42,6.66 c -0.95,3.06 -1.99,6.09 -3.14,9.07 -1.16,2.97 -2.46,5.87 -3.91,8.64 -1.47,2.76 -3.1,5.4 -4.98,7.7 -0.94,1.14 -1.92,2.21 -2.96,3.14 -1.06,0.9 -2.12,1.66 -3.33,2.26 -2.39,1.21 -5.14,1.8 -7.93,1.82 -5.59,0.03 -11.31,-2.25 -15.3,-6.07 -1.98,-1.92 -3.54,-4.2 -4.44,-6.74 -0.45,-1.27 -0.76,-2.59 -0.91,-3.94 -0.08,-0.68 -0.12,-1.34 -0.11,-2.07 0.02,-0.74 -0.01,-1.49 0.07,-2.22 0.06,-1.48 0.32,-2.89 0.61,-4.28 0.34,-1.37 0.8,-2.67 1.4,-3.89 1.19,-2.43 3,-4.47 5.31,-6.03 2.32,-1.57 5.12,-2.6 8.06,-3.34 2.96,-0.71 6.08,-1.1 9.25,-1.27 6.35,-0.36 12.85,0.09 19.5,0.27 1.52,0.04 3.04,0.05 4.57,0.05 l -0.5,2.35 c -0.32,1.46 -0.8,3.03 -1.26,4.55 z m 44.9,49.09 c -0.7,3.62 -1.56,7.3 -2.46,10.93 -0.9,3.64 -1.89,7.25 -2.97,10.83 -2.15,7.15 -4.65,14.19 -7.73,20.85 -1.54,3.32 -3.23,6.55 -5.15,9.53 -1.91,2.97 -4.07,5.74 -6.49,7.87 -2.42,2.12 -5.06,3.52 -7.66,3.72 -0.33,0.02 -0.65,0.06 -0.99,0.04 l -0.5,-0.01 -0.5,-0.05 c -0.67,-0.06 -1.32,-0.21 -2.08,-0.41 -1.46,-0.39 -2.75,-0.99 -3.83,-1.73 -2.15,-1.48 -3.52,-3.71 -4.13,-6.69 -0.61,-2.94 -0.51,-6.36 0,-9.77 0.52,-3.43 1.46,-6.9 2.59,-10.33 1.13,-3.44 2.5,-6.84 4.03,-10.18 3.08,-6.67 6.67,-13.19 10.84,-19.22 1.04,-1.5 2.12,-2.98 3.24,-4.38 1.14,-1.43 2.25,-2.68 3.54,-4.01 2.55,-2.63 5.27,-5.22 8.04,-7.74 5.54,-5.05 11.32,-9.87 17.25,-14.44 -1.71,8.37 -3.41,16.77 -5.04,25.19 z"
   id="path8"
   inkscape:connector-curvature="0" />
	</g>
	<g
   id="g20">
		<polygon
   points="32.08,46.84 24.52,46.84 6,133.96 62.99,133.96 64.46,127.04 15.03,127.04 "
   id="polygon12" />
		<polygon
   points="116.09,46.84 108.53,46.84 90.01,133.96 97.57,133.96 "
   id="polygon14" />
		<polygon
   points="168.78,133.96 226.13,46.84 218.1,46.84 167.49,123.64 149.54,46.84 141.36,46.84 161.67,133.96 "
   id="polygon16" />
		<polygon
   points="241.06,127.04 248.27,93.12 294.02,93.12 295.46,86.33 249.72,86.33 256.64,53.76 307.78,53.76 309.25,46.84 250.55,46.84 232.03,133.96 292.57,133.96 294.04,127.04 "
   id="polygon18" />
	</g>
</g>
</svg>