<?xml version="1.0" encoding="UTF-8" standalone="no"?>
<svg
   xmlns:dc="http://purl.org/dc/elements/1.1/"
   xmlns:cc="http://creativecommons.org/ns#"
   xmlns:rdf="http://www.w3.org/1999/02/22-rdf-syntax-ns#"
   xmlns:svg="http://www.w3.org/2000/svg"
   xmlns="http://www.w3.org/2000/svg"
   xmlns:sodipodi="http://sodipodi.sourceforge.net/DTD/sodipodi-0.dtd"
   xmlns:inkscape="http://www.inkscape.org/namespaces/inkscape"
   viewBox="0 0 300 300"
   version="1.1"
   id="svg122"
   sodipodi:docname="account.svg"
   inkscape:version="0.92.5 (2060ec1f9f, 2020-04-08)"
   inkscape:export-filename="account.png"
   inkscape:export-xdpi="96"
   inkscape:export-ydpi="96"
   width="300"
   height="300">
  <metadata
     id="metadata126">
    <rdf:RDF>
      <cc:Work
         rdf:about="">
        <dc:format>image/svg+xml</dc:format>
        <dc:type
           rdf:resource="http://purl.org/dc/dcmitype/StillImage" />
      </cc:Work>
    </rdf:RDF>
  </metadata>
  <sodipodi:namedview
     pagecolor="#ffffff"
     bordercolor="#666666"
     borderopacity="1"
     objecttolerance="10"
     gridtolerance="10"
     guidetolerance="10"
     inkscape:pageopacity="0"
     inkscape:pageshadow="2"
     inkscape:window-width="1920"
     inkscape:window-height="1019"
     id="namedview124"
     showgrid="false"
     inkscape:zoom="3.1466666"
     inkscape:cx="-54.138121"
     inkscape:cy="62.997271"
     inkscape:window-x="0"
     inkscape:window-y="29"
     inkscape:window-maximized="1"
     inkscape:current-layer="svg122" />
  <defs
     id="defs4">
    <style
       id="style2">.a{fill:#f0f0f7;}.b{fill:#2c2b47;}.c{fill:#8558af;}.d{fill:#ffc200;}.e{fill:#80beff;}.f{fill:#5a80f9;}.g{fill:#08c48e;}.h{fill:#fff;}.i{fill:#bbe7ff;}</style>
  </defs>
  <title
     id="title6">Account</title>
  <path
     class="a account-body-asset-1"
     d="m 112.44083,286.13854 c -1.95258,-2.24822 -4.01644,-4.95732 -6.87281,-5.76893 0.55194,-2.3033 2.19202,-4.9933 -0.66435,-6.51984 a 10.870146,10.870146 0 0 1 -1.52879,-0.78688 c -0.77451,-0.70032 -0.57217,-4.6437 -0.70032,-4.57063 a 50.27808,50.27808 0 0 0 -9.657235,2.24822 0.65423217,0.65423217 0 0 0 -0.46089,0.60814 q -0.58004,11.96953 -0.18435,23.94355 a 0.63287408,0.63287408 0 0 0 0.62725,0.62613 l 13.932235,-0.27653 a 49.535043,49.535043 0 0 0 6.83684,-0.14726 c 0.99483,-0.14726 1.58499,-0.53395 1.73225,-1.58499 0.4058,-2.61131 -1.43774,-5.91057 -3.05983,-7.77098 z"
     id="path8"
     inkscape:connector-curvature="0"
     style="fill:#fa84bf;fill-opacity:1;stroke-width:1.12411022" />
  <path
     class="b account-body-asset-1"
     d="m 109.40011,281.06993 a 8.0261473,8.0261473 0 0 0 -5.30692,2.4011 c -0.57105,0.57217 0.4058,1.34893 0.97685,0.78688 a 6.8031153,6.8031153 0 0 1 4.45935,-1.9346 c 0.82959,-0.0551 0.68233,-1.30846 -0.12928,-1.25338 z"
     id="path10"
     inkscape:connector-curvature="0"
     style="fill:#2c2b47;stroke-width:1.12411022" />
  <path
     class="e account-body-asset-1"
     d="M 211.35495,186.7346 H 81.176165 a 0.95297769,2.2178696 0 0 0 -0.95009,2.21112 v 7.40789 a 0.95297769,2.2178696 0 0 0 0.95009,2.21225 H 211.35495 a 0.95297769,2.2178696 0 0 0 0.94959,-2.21338 v -7.40788 a 0.95297769,2.2178696 0 0 0 -0.94959,-2.21 z"
     id="path22"
     inkscape:connector-curvature="0"
     style="fill:#80beff;stroke-width:0.73685539" />
  <path
     class="a account-body-asset-1"
     d="m 204.78649,296.84794 c 1.76935,-0.018 6.15563,0.92177 6.45014,-1.84241 0.18436,-1.80645 -1.93459,-4.62572 -2.92943,-5.85999 a 17.816024,17.816024 0 0 0 -4.99442,-4.14684 46.97994,46.97994 0 0 0 -11.96053,-4.42225 12.397812,12.397812 0 0 0 -3.35322,-0.64524 c -1.34894,0.0371 -2.00879,1.0117 -2.65403,2.22911 -0.77451,1.43773 -1.21628,2.58545 -2.63604,3.31725 A 4.3918988,4.3918988 0 0 1 176.976,283.8566 c -0.73741,-1.06903 -0.7554,-4.12886 -2.47304,-2.24822 a 1.0229403,1.0229403 0 0 0 -0.18435,0.27653 0.66434917,0.66434917 0 0 1 0.18435,0.77339 45.760281,45.760281 0 0 0 -2.58545,14.55835 q 13.04754,-0.16524 26.07935,-0.3125 c 2.23811,-0.003 4.50544,-0.0225 6.78963,-0.0562 z"
     id="path24"
     inkscape:connector-curvature="0"
     style="fill:#fa84bf;fill-opacity:1;stroke-width:1.12411022" />
  <path
     class="c account-body-asset-1"
     d="m 110.28479,198.65803 a 39.847461,39.847461 0 0 0 -11.922325,0.66323 c -1.78845,0.40468 -3.46563,2.10096 -1.46134,3.61177 2.00429,1.5108 5.768945,0.78687 8.329665,0.33161 0,0.4058 0,0.7925 -0.018,1.1983 a 0.63287408,0.63287408 0 0 0 0.62613,0.62613 43.134359,43.134359 0 0 0 6.35797,-0.42379 0.51933894,0.51933894 0 0 0 0.4058,-0.77339 0.61488832,0.61488832 0 0 0 0.0551,-0.27653 c -0.0326,-2.3966 0.77901,-4.66281 -2.37299,-4.95733 z"
     id="path32"
     inkscape:connector-curvature="0"
     style="fill:#8558af;stroke-width:1.12411022" />
  <path
     class="c account-body-asset-1"
     d="m 196.14433,200.51844 c -0.29564,-1.9346 -3.29926,-1.41863 -4.58862,-1.43662 -3.13289,-0.0191 -6.2849,-0.0922 -9.41779,-0.0551 -2.36064,0.018 -4.72127,0.23944 -5.93418,2.54274 a 0.52158716,0.52158716 0 0 0 -0.0731,0.27653 0.64074285,0.64074285 0 0 0 -0.81048,0.0731 l -0.0562,0.0562 a 0.65198395,0.65198395 0 0 0 0,0.88355 c 0.0562,0.0562 0.0922,0.11242 0.14726,0.16637 a 1.0960075,1.0960075 0 0 0 0.16637,0.12928 c 0.95886,1.23652 1.91099,2.48765 2.89346,3.72192 a 0.63849463,0.63849463 0 0 0 0.99484,-0.12814 c 1.1612,-2.0234 4.73587,-1.08814 6.72667,-1.10613 a 59.183281,59.183281 0 0 0 6.24668,-0.42379 c 0.36871,-0.0371 0.77451,-0.36871 0.60815,-0.7925 -0.018,-0.0551 -0.0551,-0.12927 -0.0731,-0.18435 0.88467,-0.0371 1.73225,-0.23944 1.9537,-1.0117 a 1.1241103,1.1241103 0 0 0 -0.0191,-0.70032 1.8233069,1.8233069 0 0 0 1.2354,-2.01103 z"
     id="path34"
     inkscape:connector-curvature="0"
     style="fill:#8558af;stroke-width:1.12411022" />
  <path
     class="f account-body-asset-1"
     d="m 176.4072,201.45932 -0.11241,-0.25855 c -7.31571,2.87435 -17.35963,8.2195 -24.34373,11.81328 -6.9841,3.59378 -14.59545,7.59224 -22.42712,7.00208 -5.10459,-0.38669 -10.26538,-2.65403 -15.40706,-5.15967 a 62.864742,62.864742 0 0 1 -1.67717,-11.86835 41.79442,41.79442 0 0 0 -7.11337,-0.18436 c -3.1329,5.17878 -6.891925,11.07586 -5.804915,17.02803 a 7.9665695,7.9665695 0 0 0 1.547905,3.64886 10.721764,10.721764 0 0 0 3.28128,2.43257 57.786012,57.786012 0 0 0 12.43828,4.42338 31.445861,31.445861 0 0 0 -0.3125,8.20038 l 0.20234,-0.3496 a 53.684134,53.684134 0 0 0 35.16217,-6.45014 c 8.01603,-4.64483 14.66851,-11.26022 21.22994,-17.82052 l 6.56031,-6.56031 0.0371,-0.75653 c -1.12411,-1.73225 -2.19202,-3.44539 -3.26105,-5.14055 z"
     id="path36"
     style="fill:#4297e0;fill-opacity:1;stroke-width:1.12411022"
     inkscape:connector-curvature="0" />
  <path
     class="d account-body-asset-1"
     d="m 190.44959,244.72857 c -0.0742,-7.79458 -1.84242,-15.8848 -9.89217,-19.0177 -8.51401,-3.29926 -18.15214,-1.40064 -26.49978,1.46135 -4.12773,1.41862 -7.96095,3.42741 -12.02798,4.95732 a 71.891348,71.891348 0 0 1 -9.76739,2.76419 148.79173,148.79173 0 0 1 -15.6094,2.63491 0.63287408,0.63287408 0 0 0 -0.62613,0.62726 c 0.27653,5.38111 0.95775,10.8353 3.22508,15.79262 a 27.889176,27.889176 0 0 0 3.31724,5.43732 c 0.66323,0.86557 1.38154,1.71315 2.11895,2.52475 0.49798,0.55194 1.29048,1.16009 1.86153,1.80533 a 62.38812,62.38812 0 0 0 -19.22229,1.27136 c -1.32645,0.29565 -3.98047,0.48 -4.92023,1.49282 -0.82959,0.89929 -0.0922,3.24419 0,4.3312 0.22483,2.58545 0.47887,5.14168 0.81049,7.72151 0.0742,0.66323 0.12927,1.56589 0.73741,1.97169 a 11.531123,11.531123 0 0 0 3.24306,0.64524 c 1.32758,0.23944 2.65403,0.46089 3.98048,0.68121 9.2177,1.47484 18.52084,2.32241 27.80936,3.11491 6.85707,0.57105 16.12424,0.29452 19.38641,-7.11337 1.76934,-4.03555 0.33161,-8.49602 -1.21629,-12.36521 a 56.450569,56.450569 0 0 0 -5.98926,-11.15005 c 0.42379,0 0.84758,-0.018 1.23652,0 a 46.419009,46.419009 0 0 0 5.54748,-0.16524 50.887348,50.887348 0 0 0 9.82248,-1.87952 20.131691,20.131691 0 0 1 1.08701,4.2008 c 0.42379,1.585 0.84758,3.14751 1.32758,4.72127 a 82.906504,82.906504 0 0 0 3.39031,9.25142 c 0.70033,1.585 1.46135,3.14751 2.24823,4.69878 0.49798,0.95887 0.66322,1.64121 1.71426,1.89863 1.52879,0.38669 3.79612,-0.0742 5.32604,-0.27653 a 35.138563,35.138563 0 0 0 5.362,-1.16121 0.55193814,0.55193814 0 0 0 0.38782,-0.33723 0.61713654,0.61713654 0 0 0 0.0731,-0.27653 c 0.46763,-10.10238 1.86827,-20.14518 1.75811,-30.2633 z"
     id="path38"
     style="fill:#8558af;fill-opacity:1;stroke-width:1.12411022"
     inkscape:connector-curvature="0" />
  <path
     class="c account-body-asset-1"
     d="m 144.28575,242.42527 c -0.44177,-0.66323 -1.5479,-0.0371 -1.08701,0.64524 2.3033,3.44652 5.14168,6.87393 6.89192,10.61497 0.35072,0.73742 1.43773,0.0922 1.08701,-0.64524 -1.75024,-3.75902 -4.6066,-7.18756 -6.89192,-10.61497 z"
     id="path40"
     inkscape:connector-curvature="0"
     style="fill:#8558af;stroke-width:1.12411022" />
  <path
     class="c account-body-asset-1"
     d="m 168.98021,241.07971 a 21.848207,21.848207 0 0 0 -1.32645,9.7865 c 0.0731,0.78688 1.32645,0.81048 1.25225,0 a 21.161376,21.161376 0 0 1 1.2725,-9.45377 c 0.29451,-0.75652 -0.92177,-1.08813 -1.1983,-0.33273 z"
     id="path42"
     inkscape:connector-curvature="0"
     style="fill:#8558af;stroke-width:1.12411022" />
  <path
     class="c account-body-asset-1"
     d="m 133.37626,265.664 a 25.701657,25.701657 0 0 0 -6.15563,-1.93459 c -0.78687,-0.14839 -1.12411,1.0679 -0.33161,1.21628 a 24.641621,24.641621 0 0 1 5.84537,1.80532 c 0.73405,0.33162 1.37929,-0.7554 0.64187,-1.08701 z"
     id="path44"
     inkscape:connector-curvature="0"
     style="fill:#8558af;stroke-width:1.12411022" />
  <path
     class="b account-body-asset-1"
     d="m 144.03695,206.68931 a 1.0367023,1.0367023 0 0 0 -0.37782,-0.6036 5.720293,5.720293 0 0 0 0.4907,-1.8891 1.2947259,1.2947259 0 0 0 -1.28321,-1.28321 11.143398,11.143398 0 0 0 -1.5873,0.0369 1.9858609,1.9858609 0 0 0 -0.0738,-2.53418 c -1.2855,-1.8891 -4.11685,-0.98141 -5.74102,-0.0369 -3.70219,2.15174 -8.30975,8.19455 -5.85393,12.50032 a 5.7594573,5.7594573 0 0 1 2.26463,0.64275 11.645622,11.645622 0 0 0 8.34661,-1.51128 c 2.26692,-1.12884 4.49467,-2.48808 3.81506,-5.32173 z"
     id="path58"
     inkscape:connector-curvature="0"
     style="fill:#2c2b47;stroke-width:2.3037827" />
  <path
     class="c account-body-asset-1"
     d="m 134.48086,208.0877 c -2.34064,-0.37782 -3.69988,1.77392 -4.2666,3.73904 a 7.0265378,7.0265378 0 0 0 0.23037,5.66501 2.8636022,2.8636022 0 0 0 3.36122,1.8891 c 2.26692,-0.69113 3.4764,-4.26892 3.73904,-6.34692 a 4.2067075,4.2067075 0 0 0 -3.06403,-4.94623 z"
     id="path62"
     inkscape:connector-curvature="0"
     style="fill:#8558af;stroke-width:2.3037827" />
  <path
     class="b account-body-asset-1"
     d="m 193.95119,278.08429 a 5.1461768,5.1461768 0 0 0 -3.28015,5.14168 c 0.0551,0.81161 1.32645,0.81161 1.25226,0 a 3.8972903,3.8972903 0 0 1 2.34039,-3.92539 c 0.77452,-0.3125 0.4429,-1.52879 -0.3125,-1.21629 z"
     id="path86"
     inkscape:connector-curvature="0"
     style="fill:#2c2b47;stroke-width:1.12411022" />
  <path
     class="b account-body-asset-1"
     d="m 196.80756,279.70638 a 7.9811829,7.9811829 0 0 0 -2.63492,5.19677 c -0.0922,0.8116 1.16008,0.78687 1.25226,0 a 6.8008671,6.8008671 0 0 1 2.26733,-4.29411 c 0.60814,-0.55193 -0.29564,-1.43661 -0.88467,-0.89928 z"
     id="path88"
     inkscape:connector-curvature="0"
     style="fill:#2c2b47;stroke-width:1.12411022" />
  <path
     class="e account-gear-asset-2"
     d="m 211.45808,120.13781 -5.73296,-2.06387 a 56.725976,56.725976 0 0 0 -0.64524,-14.04239 l 1.84242,-0.7554 a 6.0184864,6.0184864 0 0 0 3.28015,-7.8328 l -6.35796,-15.512722 a 6.0173623,6.0173623 0 0 0 -7.83168,-3.281278 l -2.93056,1.190433 A 56.072868,56.072868 0 0 0 182.32002,67.740776 l 1.10613,-2.634914 a 6.0308516,6.0308516 0 0 0 -3.22508,-7.868772 l -15.46213,-6.48724 a 6.0308516,6.0308516 0 0 0 -7.86877,3.225072 l -1.47371,3.501604 a 56.366261,56.366261 0 0 0 -14.854,0.386693 L 138.9215,53.44097 a 6.0297275,6.0297275 0 0 0 -7.72264,-3.556685 l -15.73754,5.785795 a 6.0308516,6.0308516 0 0 0 -3.55669,7.721514 l 2.26508,6.161248 a 56.606821,56.606821 0 0 0 -9.52683,9.711189 l -5.395735,-2.266207 a 6.0308516,6.0308516 0 0 0 -7.86877,3.225073 l -6.48612,15.461012 a 6.0308516,6.0308516 0 0 0 3.22395,7.868771 l 5.39573,2.26621 a 56.21563,56.21563 0 0 0 0.0922,16.30972 l -4.49645,2.21112 a 6.0184864,6.0184864 0 0 0 -2.7462,8.03514 l 7.3899,15.05634 a 6.0184864,6.0184864 0 0 0 8.035145,2.74507 l 3.28016,-1.60298 a 56.25385,56.25385 0 0 0 13.24989,12.19997 l -1.34894,3.72193 a 6.0139899,6.0139899 0 0 0 3.63088,7.68554 l 15.79375,5.67563 a 6.0128658,6.0128658 0 0 0 7.68442,-3.63087 l 1.5108,-4.21991 a 56.003173,56.003173 0 0 0 15.81174,-1.16121 l 3.51959,5.65765 a 6.0229828,6.0229828 0 0 0 8.27457,1.91661 l 14.22674,-8.88047 a 6.0229828,6.0229828 0 0 0 1.91099,-8.27458 l -2.21113,-3.53758 a 56.380874,56.380874 0 0 0 9.1053,-10.45422 l 5.50814,1.97281 a 6.0139899,6.0139899 0 0 0 7.68554,-3.63087 l 5.67563,-15.79375 a 6.0364721,6.0364721 0 0 0 -3.6365,-7.68217 z m -29.76194,7.68442 a 35.029524,35.029524 0 1 1 -18.76028,-45.850218 35.031772,35.031772 0 0 1 18.76028,45.845718 z"
     id="path108"
     style="fill:#666666;fill-opacity:1;stroke-width:1.12411022"
     inkscape:connector-curvature="0" />
  <path
     class="e account-gear-asset-1"
     d="m 112.37892,51.18592 -0.40468,-7.629337 a 2.7518219,2.7518219 0 0 0 -2.87547,-2.598943 l -2.76419,0.147259 a 25.640955,25.640955 0 0 0 -2.7462,-5.78692 l 0.64524,-0.644115 a 2.7360844,2.7360844 0 0 0 0,-3.870312 l -5.39573,-5.395729 a 2.7383326,2.7383326 0 0 0 -3.870315,0 l -1.0117,1.011699 a 24.928269,24.928269 0 0 0 -6.30176,-2.340398 v -1.293851 a 2.752946,2.752946 0 0 0 -2.74621,-2.746201 h -7.64395 a 2.7518219,2.7518219 0 0 0 -2.7462,2.746201 v 1.732254 a 25.934348,25.934348 0 0 0 -6.17361,2.782173 l -1.45572,-1.565885 a 2.7563184,2.7563184 0 0 0 -3.87032,-0.148383 l -5.60256,5.197886 a 2.7540702,2.7540702 0 0 0 -0.14726,3.869188 l 2.0234,2.193139 a 26.172659,26.172659 0 0 0 -2.28419,5.76781 h -2.65403 a 2.7540702,2.7540702 0 0 0 -2.7462,2.746201 v 7.611351 a 2.752946,2.752946 0 0 0 2.7462,2.745077 h 2.67201 a 25.616225,25.616225 0 0 0 2.91145,6.837963 l -1.51643,1.710896 a 2.7596907,2.7596907 0 0 0 0.25742,3.870311 l 5.74983,5.031518 a 2.7596907,2.7596907 0 0 0 3.87031,-0.258546 l 1.08702,-1.253383 a 25.096886,25.096886 0 0 0 7.72151,2.783297 l 0.0922,1.805322 a 2.752946,2.752946 0 0 0 2.87547,2.598942 l 7.62934,-0.405803 a 2.7506978,2.7506978 0 0 0 2.59781,-2.87435 l -0.11241,-2.045881 a 26.10184,26.10184 0 0 0 6.43216,-3.25992 l 2.473045,1.751364 a 2.7574425,2.7574425 0 0 0 3.81523,-0.645239 l 4.42225,-6.228695 a 2.7551943,2.7551943 0 0 0 -0.64412,-3.81523 l -1.5479,-1.105001 a 25.455477,25.455477 0 0 0 1.98969,-5.989259 l 2.65402,-0.148383 a 2.7900417,2.7900417 0 0 0 2.59557,-2.890087 z M 81.990845,64.826998 a 15.498108,15.498108 0 1 1 15.49811,-15.498109 15.496984,15.496984 0 0 1 -15.49811,15.498109 z"
     id="path114"
     style="fill:#666666;fill-opacity:1;stroke-width:1.12411022"
     inkscape:connector-curvature="0" />
</svg>
