<?xml version="1.0" encoding="UTF-8" standalone="no"?>
<svg
   xmlns:dc="http://purl.org/dc/elements/1.1/"
   xmlns:cc="http://creativecommons.org/ns#"
   xmlns:rdf="http://www.w3.org/1999/02/22-rdf-syntax-ns#"
   xmlns:svg="http://www.w3.org/2000/svg"
   xmlns="http://www.w3.org/2000/svg"
   xmlns:sodipodi="http://sodipodi.sourceforge.net/DTD/sodipodi-0.dtd"
   xmlns:inkscape="http://www.inkscape.org/namespaces/inkscape"
   viewBox="0 0 300 300"
   version="1.1"
   id="svg262"
   sodipodi:docname="payments.svg"
   inkscape:version="0.92.5 (2060ec1f9f, 2020-04-08)">
  <metadata
     id="metadata266">
    <rdf:RDF>
      <cc:Work
         rdf:about="">
        <dc:format>image/svg+xml</dc:format>
        <dc:type
           rdf:resource="http://purl.org/dc/dcmitype/StillImage" />
      </cc:Work>
    </rdf:RDF>
  </metadata>
  <sodipodi:namedview
     pagecolor="#ffffff"
     bordercolor="#666666"
     borderopacity="1"
     objecttolerance="10"
     gridtolerance="10"
     guidetolerance="10"
     inkscape:pageopacity="0"
     inkscape:pageshadow="2"
     inkscape:window-width="1920"
     inkscape:window-height="1019"
     id="namedview264"
     showgrid="false"
     inkscape:zoom="4.4500586"
     inkscape:cx="249.1508"
     inkscape:cy="130.64914"
     inkscape:window-x="0"
     inkscape:window-y="29"
     inkscape:window-maximized="1"
     inkscape:current-layer="svg262" />
  <defs
     id="defs4">
    <style
       id="style2">.a{fill:#fff;}.a,.b{fill-rule:evenodd;}.b,.c{fill:#212121;}</style>
  </defs>
  <title
     id="title6">Payments</title>
  <path
     class="a"
     d="M48.437,269.635s-8.376-.171-10.469-3.564c-1.043-1.69-1.155-5.059-.714-6.691.4-1.5,1.246-1.3,2.857-2.062,5.125-2.439,15.244,6.984,18.01,1.8.521-.977.363,2.844.445,3.214a4.5,4.5,0,0,1-.993,3.426C55.559,268.553,51.592,269.168,48.437,269.635Z"
     id="path8"
     style="fill:#ffe680;fill-opacity:1" />
  <path
     class="b"
     d="M45.573,256.745c2.434.741,5.177,2.078,7.363,2.744,4.155,1.273,4.2-.558,4.823-1.094a.812.812,0,0,1,1.236.258c.39.737.163,2.578.3,3.883a5.117,5.117,0,0,1-1.088,3.383c-2.16,3.033-6.094,3.614-9.792,4.03-2.923,0-7.156-.51-9.579-2.145a4.708,4.708,0,0,1-1.891-2.359,11.766,11.766,0,0,1-.645-4.383c.118-2.919.934-3.44,2.258-3.933C40.305,256.488,41.432,255.48,45.573,256.745ZM59.249,262.2l0-.011,0,.01,0-.021Zm-1.567-2.869h0l-.005-.014Zm0,0h0l0,0Zm-1.046,6.637a4.935,4.935,0,0,0,1.315-3.013c-.014-.409-.076-.365-.106-.891-.016-.34-.027-1.023-.043-1.392-3.813,3.086-11.9-3.851-16.645-2.908a20.589,20.589,0,0,0-2.187.812,2.316,2.316,0,0,0-.634.308c-.837.664-.777,4.741-.007,6.488,1.212,2.779,7.139,3.766,10.106,3.947C51.312,268.8,54.7,268.145,56.635,265.969Z"
     id="path10" />
  <path
     class="a"
     d="M48.3,265.839s-8.376-.171-10.469-3.564c-5.042-8.174,14.857-13.121,19.979-4.834a4.092,4.092,0,0,1-.375,4.517C55.417,264.757,51.45,265.372,48.3,265.839Z"
     id="path12"
     style="fill:#ffe680;fill-opacity:1" />
  <path
     class="b"
     d="M48.262,266.153a25.1,25.1,0,0,1-7.156-.994c-2.233-.737-3.8-1.773-4.529-3.937-2.52-7.452,12.991-11.915,19.943-6.328,4.69,3.768,2.352,8.76-3.313,10.41A32.829,32.829,0,0,1,48.262,266.153Zm.284-.675c3.136-.584,7-1.42,8.565-4.21h0a3.739,3.739,0,0,0,.484-2.348,5.425,5.425,0,0,0-2.3-3.055h0c-6.221-4.378-20.713-.591-16.935,6.021,1.125,1.934,4.54,2.818,6.73,3.229A17.733,17.733,0,0,0,48.546,265.478Z"
     id="path14" />
  <path
     class="a"
     d="M80.606,253.175c-.106,4.735,1.558,20.168,1.693,28.606.081,5.057,18.042,4.52,18.689.645.273-1.635,1.245-29.625.255-30.3C99.89,251.208,80.606,253.175,80.606,253.175Z"
     id="path16"
     style="fill:#ffe680;fill-opacity:1" />
  <path
     class="b"
     d="M80.574,252.867c4.308-.526,13.359-1.5,18.1-1.6,2.884-.049,3.186.191,3.394,1.226.819,4.337-.025,29.178-.38,30.348-.7,2.2-4.708,2.947-6.994,3.209-3.326.356-8.146.226-11.05-1.349a3.468,3.468,0,0,1-2.066-2.865c-.2-9.31-1.7-28.662-1.283-28.662A.312.312,0,0,1,80.574,252.867Zm.347.594c.06,5.1,1.958,20.146,2.1,28.328.144,3.533,12.747,3.614,16.413,1.373a1.77,1.77,0,0,0,.769-.789c.241-.756,1.222-29.6.478-29.742C97.821,252.137,83.787,253.23,80.921,253.461Zm19.993-.767-.011-.006Zm-.017-.009.014.006-.015-.006Zm0,0-.007,0h0Z"
     id="path18" />
  <path
     class="a"
     d="M20.074,246.1c-.105,4.735,1.559,20.168,1.693,28.606.081,5.057,18.043,4.52,18.69.645.273-1.635,1.245-29.625.255-30.3C39.359,244.136,20.074,246.1,20.074,246.1Z"
     id="path20"
     style="fill:#ffe680;fill-opacity:1" />
  <path
     class="b"
     d="M20.043,245.8c4.307-.526,13.359-1.5,18.1-1.6,2.885-.049,3.186.191,3.395,1.226.818,4.337-.025,29.178-.38,30.348-.7,2.2-4.708,2.947-6.994,3.209-3.327.356-8.146.226-11.05-1.35a3.468,3.468,0,0,1-2.067-2.864c-.2-9.311-1.7-28.662-1.282-28.662A.312.312,0,0,1,20.043,245.8Zm.347.594c.06,5.1,1.958,20.146,2.1,28.328.144,3.533,12.747,3.614,16.413,1.373a1.773,1.773,0,0,0,.768-.789c.242-.756,1.222-29.6.479-29.742C37.29,245.065,23.255,246.158,20.39,246.389Zm19.993-.767-.012-.006Zm-.017-.009.014.006-.015-.006Zm.005,0-.007,0h0Z"
     id="path22" />
  <path
     class="b"
     d="M101.859,259.67c-1.947,5.37-12.988,5.529-18.408,3.552a7.76,7.76,0,0,1-2.359-1.3c-.143-.133-.1-.044-.14-.548.639-.047.267-.086.856.215,3.231,1.586,16.795,2.387,19.488-2.177l.413-.154Z"
     id="path24" />
  <path
     class="b"
     d="M41.178,252.183l.15.415c-1.9,5.241-12.9,5.675-18.63,3.469a7.859,7.859,0,0,1-2.176-1.255c-.1-.1-.066-.019-.1-.513.616-.045.283-.088.814.193,3.1,1.579,15.993,2.327,19.212-1.684C40.923,252.205,40.542,252.42,41.178,252.183Z"
     id="path26" />
  <path
     class="b"
     d="M101.66,267.01c-2.576,4.059-16.016,3.991-20.023,1.066-.2-.152-.148-.049-.242-.564.767-.138.088-.1,1.349.294,2.33.693,8.561,1.177,13.8.425,1.437-.206,3.622-.548,4.626-1.6l.438-.059Z"
     id="path28" />
  <path
     class="b"
     d="M41.077,259.5l.052.438c-2.587,4.075-16.1,4.007-20.066,1.035-.159-.122-.109-.038-.2-.533.77-.139.095-.1,1.295.277,3.46,1.079,16.03,1.411,18.48-1.159Z"
     id="path30" />
  <path
     class="b"
     d="M101.583,273.3l-.14.418a20.342,20.342,0,0,1-14.994,2.417c-1.377-.308-3.553-.727-4.437-1.942l.025-.444c.732.042.224-.032.868.322a5.963,5.963,0,0,0,1.944.524,47.709,47.709,0,0,0,5.625.471,33.48,33.48,0,0,0,10.689-1.9Z"
     id="path32" />
  <path
     class="b"
     d="M41.052,266.229l-.14.418a20.344,20.344,0,0,1-14.995,2.417c-1.377-.308-3.552-.727-4.436-1.942l.025-.444c.732.042.224-.032.868.322a5.963,5.963,0,0,0,1.944.524,47.709,47.709,0,0,0,5.625.471,33.48,33.48,0,0,0,10.689-1.9Z"
     id="path34" />
  <path
     class="b"
     d="M101.471,279c-.1,1.081-1.511,1.888-2.505,2.323-3.282,1.436-8.619,1.6-12,.925-1.682-.353-4.034-1.168-4.822-2.7l.1-.434.433.1c1.526,1.908,7.739,1.948,10.174,1.813,1.637-.1,7.3-.556,7.98-2.048.057-.13-.039-.041.4-.342Z"
     id="path36" />
  <path
     class="b"
     d="M40.493,273.985c-.1,1.081-1.511,1.888-2.505,2.323-3.281,1.436-8.619,1.6-12,.925-1.682-.353-4.034-1.168-4.821-2.7l.1-.434.434.1c1.525,1.908,7.739,1.948,10.173,1.813,1.638-.1,7.3-.556,7.98-2.048.057-.13-.038-.041.4-.342Z"
     id="path38" />
  <path
     class="a"
     d="M91.569,259.251s-8.376-.17-10.469-3.564c-5.042-8.173,14.857-13.121,19.979-4.834a4.094,4.094,0,0,1-.375,4.518C98.691,258.169,94.724,258.785,91.569,259.251Z"
     id="path40"
     style="fill:#ffe680;fill-opacity:1" />
  <path
     class="b"
     d="M91.536,259.565a25.064,25.064,0,0,1-7.156-.994c-2.233-.737-3.8-1.773-4.529-3.937-2.52-7.451,12.991-11.914,19.943-6.328,4.69,3.768,2.352,8.76-3.313,10.41A32.829,32.829,0,0,1,91.536,259.565Zm.283-.675c3.137-.584,7-1.42,8.566-4.21h0a3.744,3.744,0,0,0,.484-2.348,5.428,5.428,0,0,0-2.3-3.055h0c-6.222-4.378-20.714-.59-16.936,6.022,1.126,1.933,4.541,2.817,6.731,3.228A17.654,17.654,0,0,0,91.819,258.89Z"
     id="path42" />
  <path
     class="a"
     d="M31.037,252.179s-8.376-.17-10.468-3.564c-5.042-8.173,14.857-13.121,19.979-4.834a4.094,4.094,0,0,1-.375,4.518C38.16,251.1,34.193,251.712,31.037,252.179Z"
     id="path44"
     style="fill:#ffe680;fill-opacity:1" />
  <path
     class="b"
     d="M31.005,252.493a25.1,25.1,0,0,1-7.156-.994c-2.233-.737-3.8-1.773-4.529-3.937-2.52-7.451,12.99-11.914,19.943-6.328,4.69,3.768,2.352,8.76-3.313,10.41A32.829,32.829,0,0,1,31.005,252.493Zm.283-.675c3.137-.584,7-1.42,8.565-4.21h0a3.739,3.739,0,0,0,.485-2.348,5.428,5.428,0,0,0-2.3-3.055h0c-6.222-4.378-20.714-.59-16.936,6.022,1.125,1.933,4.54,2.817,6.731,3.228A17.654,17.654,0,0,0,31.288,251.818Z"
     id="path46" />
  <path
     class="b"
     d="M125.336,247.086a2.472,2.472,0,0,1-1.322.923c-.821.532-.833,2.9-2.75,6.327a3.164,3.164,0,0,1-1.057,1.256.985.985,0,0,1-1.289-.336,2.8,2.8,0,0,1-.486-1.313c-.172-1.188-.02-1.416-.034-5.511a90.9,90.9,0,0,1,.43-11.29c.105-1.351.33-3.02,1.493-3.683,2.2-1.169,5.566,2.438,7.117,4.385-.285.246-.346.3,0,0C127.653,238.137,126.54,245.135,125.336,247.086Zm-3.967-12.711c-.62.013-.832.523-.98,1.126a24.141,24.141,0,0,0-.261,3.338c-.3,4.615-.132,4.684-.224,13.582a9.324,9.324,0,0,0,.042,1.134c2.142-3.743,1.8-6.169,3.784-6.868.327-.108.42-.112.573-.323,1.13-1.683,2.166-6.506,2.558-8.218a23.329,23.329,0,0,0-2.627-2.375A6.117,6.117,0,0,0,121.369,234.375Z"
     id="path48" />
  <path
     class="a"
     d="M120.776,170.978c-5.176,4.709-.8,47.289,7.206,67.533l-2.215-1.72-2.313,11.433s5.156,11.624,18.892,21.49c5.558,3.993,20.126,4.749,21.349,1.35,6.365-17.7,7.219-54.056,8.879-51.881,2.347,3.074,3.059,39.434,9.472,47.669,5.6,7.191,25.127,2.552,29,1.745,7.791-1.622,7.858-19.179,8.958-24.409,2.231-10.607,3.776-48.678,2.233-54.449-.48-1.8-1.485-5.929-2.932-7.278-2.06-1.919-6.231-2.462-8.86-2.821-7.751-1.06-15.771-.139-23.561-.119a191.373,191.373,0,0,1-31.933-2.384c-4.536-.759-8.94-2.086-13.473-2.836C134.786,173.192,120.776,170.978,120.776,170.978Z"
     id="path50"
     style="fill:#4297e0;fill-opacity:1" />
  <path
     class="b"
     d="M212.912,179.342c2.574.434,6,1.232,7.479,3.366a16.755,16.755,0,0,1,1.792,4.229c1.028,3.413,1.3,4.476,1.389,12.246.1,11.916-.907,35.115-2.709,44.632-1.295,6.631-1.293,22.593-8.846,25.315-.936.329-5.362,1.167-6.923,1.434-7.659,1.291-20.019,2.542-24.182-3.975-5.523-8.7-6.534-36.872-8.4-45.271-1.107,6.612-2.317,26.969-5.9,42.263a72.413,72.413,0,0,1-2.32,7.936c-1.361,2.761-8.129,2.544-11.207,2.236-8.545-.915-11.36-3.476-14.528-6.082-7.369-6.077-12.831-13.351-15.473-18.773-.1-.2-.175-.358-.23-.509,0-.616,2.354-11.785,2.41-11.9a.584.584,0,0,1,.861-.159c.729.569.629.531.564.347-5.309-15.106-9.61-42.429-8.206-59.135.172-2.018.6-5.42,2.08-6.8.109.119.149.163,0,0,.16-.128.192-.089.874.016,3.292.5,13.825,2.136,20.108,3.144,7.192,1.184,14.867,4.154,35.859,4.908C195.372,179.435,201.543,177.467,212.912,179.342Zm-93.812-.761c-.6,11.245.944,24.618,3.008,35.69,3.112,16.642,6.4,23.757,6.449,24.224a.575.575,0,0,1-.456.579c-.4.051-.358-.019-1.914-1.223-2.131,10.531-2.123,10.212-2.075,10.312,2.609,5.391,8.056,12.547,15.6,18.679,3.116,2.5,4.446,3.467,7.929,4.456A33.745,33.745,0,0,0,155,272.461c2.041.094,6.149.049,7.675-1.2.285-.24.327-.23,1.116-2.79,4.778-15.679,6.026-41.477,7.348-48.138.159-.785.339-1.679.987-1.952.624-.206,1.03.177,1.319.769,2.385,5.047,2.977,38.145,8.984,46.906,3.995,5.668,16.924,3.994,23.783,2.736.981-.181,4.6-.9,5.219-1.1,6.557-2.231,6.743-18.288,7.885-23.911,1.965-9.7,3.5-42.2,2.54-52.057a25.413,25.413,0,0,0-2.525-8.176,5.981,5.981,0,0,0-3.106-2.053c-3.085-1.081-8.529-1.591-11.829-1.7-8.452-.253-23.36,1.419-44.06-1.376-8.786-1.188-10.7-2.057-16.6-3.287-2.666-.552-8.42-1.474-22.843-3.82C119.53,172.665,119.212,176.66,119.1,178.581Z"
     id="path52" />
  <path
     class="a payments-asset-tree"
     d="m 110.249,134.693 c -5.317,4.595 -28.161,4.112 -32.447,3.754 C 43.771,135.6 43.134,98.146 41.573,72 39.8,42.32 43.316,9.86 78.6,6 c 5.154,-0.565 16.119,0.053 21.228,0.869 17.2,2.747 21.645,15.275 23.256,18.515 8.749,17.586 8.691,35.63 7.148,54.942 -1.742,21.847 -2.84,39.55 -19.983,54.367 z"
     id="path54"
     style="fill:#438b73;fill-opacity:1;fill-rule:evenodd"
     inkscape:connector-curvature="0" />
  <path
     class="b payments-asset-tree"
     d="M 75.979,138.746 C 49.068,135.496 43.494,110.415 41.551,83.621 39.894,60.033 37.69,29.371 56.217,13.942 63.277,8.1 72.792,5.254 81.7,5.026 a 127.731,127.731 0 0 1 15.6,0.723 c 11.488,1.3 19.983,6.105 25.268,16.762 6.189,12.622 9.651,23.876 9.055,44.915 -0.247,7.685 -1.405,21 -2.133,27.185 -1.62,13.362 -4.51,24.6 -13.42,34.8 a 59.547,59.547 0 0 1 -5.611,5.521 c -5.299,4.527 -27.959,4.568 -34.48,3.814 z M 83.723,6.556 a 43.512,43.512 0 0 0 -7.625,0.558 c -30.553,4.856 -35.52,32.774 -33.847,63.8 0.446,8.265 0.892,16.785 1.834,24.385 3.128,24.735 11.736,41.9 36.749,42.842 6.163,0.215 24.492,0.309 29.21,-3.683 v 0 c 9.506,-8.339 14.409,-17.668 16.921,-30.23 1.971,-9.96 3.23,-29.553 3.375,-37.739 0.352,-19.649 -3.086,-31.613 -9.416,-43.874 A 26.714,26.714 0 0 0 104.121,8.619 C 98.423,6.954 88.9,6.556 83.723,6.556 Z"
     id="path56"
     inkscape:connector-curvature="0"
     style="fill:#212121;fill-rule:evenodd" />
  <path
     class="a"
     d="M88.091,164.448c.545-15.637.683-11.681.511-97.149"
     id="path58" />
  <path
     class="b"
     d="M89.631,72.408c1.04,21.259,1.045,33.659.849,57.583a288.357,288.357,0,0,1-1.261,30.229c-.392,4.908-.241,4.048-.61,4.8l-.542.212h-.008l-.526-.249-.227-.559c0-12.852-1.121-42.688-.486-71.571.185-8.534.984-25.332,1.007-25.557l.244-.551.526-.232h.008C89.544,66.924,89.334,66.372,89.631,72.408Z"
     id="path60" />
  <path
     class="a payments-asset-branch-1"
     d="M 88.512,110.141 C 86.1,105.602 72.012,85.386 67.152,78.931"
     id="path62"
     inkscape:connector-curvature="0"
     style="fill:#ffffff;fill-rule:evenodd" />
  <path
     class="b payments-asset-branch-1"
     d="m 67.769,78.463 a 89.181,89.181 0 0 1 9.494,11.268 c 4.348,6.126 9.081,13 11.895,19.919 0.064,0.16 0.045,0.034 0.07,0.737 l -0.34,0.444 h -0.007 l -0.556,0.037 c -0.7,-0.5 -0.266,-0.086 -1.3,-1.423 -1.545,-1.984 -2.885,-3.476 -5.56,-7.028 C 68.953,85.1 68.3,82.223 66.53,79.393 l -0.113,-0.6 0.261,-0.484 h 0.006 l 0.538,-0.116 z"
     id="path64"
     inkscape:connector-curvature="0"
     style="fill:#212121;fill-rule:evenodd" />
  <path
     class="a"
     d="M237.22,173.461c.343.277.691.548,1.027.834.642.547,1.991,1.144,2.132,2.084.028.19-.635.776-.743.9-.7.789-1.263,1.7-1.882,2.551-.876,1.207-1.824,2.358-2.725,3.545-.293.384-.9,1.2-1.426,1.291-.25.044-1.168-.98-1.345-1.124-.686-.558-1.374-1.132-2.051-1.72C232.5,178.762,231.98,179.747,237.22,173.461Z"
     id="path66" />
  <path
     class="b"
     d="M237.552,173.312c2.477,1.751,1.35.877,2.29,1.526a2.238,2.238,0,0,1,1.1,1.595,1.689,1.689,0,0,1-.525.907,39.681,39.681,0,0,0-2.492,3.49c-.544.744-2.484,3.274-2.567,3.377a4.562,4.562,0,0,1-.941.931c-.9.6-1.391.243-2.163-.51-.88-.861-.608-.527-2.548-2.231a.764.764,0,0,1-.178-.93,53.467,53.467,0,0,1,4.757-5.358c2.935-3.114,2.788-3.05,3.084-2.919l.044.03,0,0Zm-6.3,8.388a16.632,16.632,0,0,1,1.994,1.717c.119.116.249.245.391.369.426-.335,3.516-4.36,3.591-4.46,2.34-3.162,1.855-2.273,2.559-3.036a2.372,2.372,0,0,0-.689-.81,17.4,17.4,0,0,1-1.832-1.556C233.1,179.6,234.32,177.655,231.25,181.7Zm8.572-5.232,0-.052C239.818,176.435,239.819,176.443,239.822,176.468Z"
     id="path68" />
  <path
     class="a"
     d="M231.559,187.559c1.593-3.913,4.324-7.229,7.077-10.377.466-.533,1.788-2.789,2.649-2.829,1.7-.077,5.716,3.736,6.788,4.864a10.546,10.546,0,0,0,2.325,2.177c.645.327,2.747-.222,3.39-.426,2.978-.946,5.613-1.175,5.881,1.921.1,1.132-1.24,2.319-5.115,2.6-.306.022.021.658.124.918.77,1.963,1.932,3.787,2.833,5.692,1.4,2.952,2.594,5.992,3.967,8.954.624,1.347,2.138,4.468,1.056,5.912-1.2,1.609-3.7-.732-4.371-1.607-2.782-3.649-4.869-8-7.133-12-.079-.14.259.516.488.876.408.639.682,1.33,1.037,2,.843,1.587,3.566,4.818,2.279,6.683-1.919,2.783-5.19-1.519-6.056-3.027a12.566,12.566,0,0,0-1.167-1.938c-.01,0,.163.486.178.525.252.618.635,1.212.825,1.851a2.055,2.055,0,0,1-1.486,2.329c-.9.354-1.735-.378-2.249-1.061a23.161,23.161,0,0,1-3.057-5.707c-.224-.6-.153-1.708-.718-2.121C238.866,192.13,231.559,187.559,231.559,187.559Z"
     id="path70"
     style="fill:#666666;fill-opacity:1" />
  <path
     class="b"
     d="M259.766,180.9a4.078,4.078,0,0,1,.631,2.088c-.008,2.155-2.884,2.917-5.016,3.165.738,1.863,1.944,3.761,2.884,5.756,1.145,2.43,2.057,4.658,3.163,7.154.892,2.011,2.223,4.43,2.263,6.5.016,2.451-2.009,3.769-4.722,1.668a15.269,15.269,0,0,1-3.354-4.187c-1.031,1.965-3.527,2.5-6.492-1.417a3.06,3.06,0,0,1-2.444,1.716,3.35,3.35,0,0,1-2.553-1.823,23.88,23.88,0,0,1-2.817-5.612c-.139-.511-.164-1.408-.425-1.714l.006.007c-.1-.12-1.441-1.045-1.57-1.135-7.848-5.413-8.216-5.095-8.048-5.624h0c2.087-5.315,5.914-9.014,7.779-11.67.631-.884,1.416-2,2.431-1.944,1.394.086,3.2,1.586,4.292,2.473a29.122,29.122,0,0,1,3.564,3.364c.26.275,1.062,1.121,1.468,1.168C252.925,181.031,257.726,178,259.766,180.9Zm-7.818,21.623c.7.517,1.457.868,2.061.248a1.341,1.341,0,0,0,.408-.776,2.514,2.514,0,0,0-.251-1.36c-1.209-2.105-3.39-6.151-3.61-6.539a1.507,1.507,0,0,1-.3-.767c.058-.1-.069-.327.37-.647a.765.765,0,0,1,.855.043c.19.17.128.089.645,1.01.407.73-.286-.538,1.4,2.548.849,1.56.653,1.056,1.379,2.357a24.331,24.331,0,0,0,2.064,3.626,32.112,32.112,0,0,0,2.053,2.895,5.979,5.979,0,0,0,1.94,1.458,1.11,1.11,0,0,0,.69.085c.3-.1.431-.487.47-.8a9.165,9.165,0,0,0-1.077-3.951c-1.913-4.185-2.719-6.3-4.09-9.257-.677-1.451-3.029-5.675-3.247-6.809a1.008,1.008,0,0,1,.133-.769c.387-.518.591-.277,2.293-.565a6.314,6.314,0,0,0,2.245-.764c.672-.45.593-.77.539-1.136-.485-2.945-4.073-1.065-6.705-.618-2.87.487-2.67-.645-5.791-3.6-1.043-.981-3.384-3.11-4.75-3.5a1.141,1.141,0,0,0-.386-.048l.015,0c-.584.182-1.705,1.846-2.09,2.355-.807,1.054-5.063,5.234-7.254,10.2.7.427,9.06,5.525,9.632,6.143.558.637.471,1.556.735,2.227a22.614,22.614,0,0,0,3.013,5.447c.381.484.985,1.072,1.563.85.59-.243,1.236-.8,1.147-1.43-.076-.55-.743-1.465-1.063-2.522a.672.672,0,0,1,1.166-.617h0C248.875,198.319,249.679,200.832,251.948,202.526Zm-1.257-21.714.008,0-.008,0Zm.01,0-.011,0Zm0,0-.009,0Zm-9.4-5.93h0Zm0,0h0Zm0,0,.009,0Zm0,0,.012,0Zm0,0Z"
     id="path72" />
  <path
     class="a payments-asset-branch-2"
     d="m 88.746,117.939 c 3.811,-4.734 16.386,-20.938 19.891,-26.483"
     id="path74"
     inkscape:connector-curvature="0"
     style="fill:#ffffff;fill-rule:evenodd" />
  <path
     class="b payments-asset-branch-2"
     d="m 109.054,90.792 h 0.006 l 0.294,0.459 a 2.418,2.418 0 0 1 -0.428,1.4 61.569,61.569 0 0 1 -4.892,8.531 151.114,151.114 0 0 1 -9.449,12.035 c -0.961,1.036 -2.45,2.541 -2.75,2.832 -2.958,2.86 -2.32,2.308 -3.041,2.635 l -0.537,-0.134 h -0.006 l -0.247,-0.5 c 0.145,-0.684 0.084,-0.532 0.276,-0.852 a 100.158,100.158 0 0 1 8.962,-13.361 c 6.74,-8.868 5.905,-7.3 10.275,-12.265 0.574,-0.654 0.32,-0.45 1,-0.854 z"
     id="path76"
     inkscape:connector-curvature="0"
     style="fill:#212121;fill-rule:evenodd" />
  <path
     class="a"
     d="M63.711,163.863,69.9,229.971c5.431,1.462,44.124-.21,44.124-.21l5.845-65.5S67.157,163.686,63.711,163.863Z"
     id="path78"
     style="fill:#212121;fill-opacity:1" />
  <path
     class="b"
     d="M87.72,163.447c.323,0,31.99.053,32.385.155a.7.7,0,0,1,.468.606c0,.992-5.547,63.1-5.773,65.622a.79.79,0,0,1-.618.692c-.805.1-36.048,1.511-43.7.307-.669-.113-1.186-.144-1.3-.791-1.711-18.7-4.251-48.1-5.786-66.146.377-.035.455-.042,0,0C63.4,163.428,62.524,163.443,87.72,163.447Zm-23.539.716c-.194,0-.328-2.007,2.462,25.475,4.166,41.616,3.819,39.718,3.986,39.747,6.4,1.056,36.181-.1,42.684-.371,1.769-19.9,3.954-44.325,5.787-64.065C101.223,164.681,69.6,164.109,64.181,164.163Z"
     id="path80" />
  <path
     class="b"
     d="M193.044,64.824c.809.136,1.512.663,2.315.839,2.7.592,5.262.74,7.854-.542a7.6,7.6,0,0,0,2.049-1.926c3.4-3.762,3.53-9.566-.37-12.949-5.588-4.846-11.88.03-11.88.03-3.216-1.848-5.56-3.556-8.576-4.107a28.341,28.341,0,0,0-9.84-.358,16.484,16.484,0,0,0-7.113,3.23c-3.88,3.34-5.545,9.875-5.727,14.777a15.016,15.016,0,0,0,1.767,7.966c.189.355.853,2.134.788,1.78-.411-2.262,5.406-4.114,6.894-.367.029.073,1.947-10.263,1.947-10.263C174.45,64.251,181.294,69.744,193.044,64.824Z"
     id="path82" />
  <path
     class="b"
     d="M186.926,46.108a29.271,29.271,0,0,1,4.662,2.489c1.551.915,1.361.832,1.461.766,10.116-6.463,19.544,4.518,13.435,13.111a19.326,19.326,0,0,1-1.562,1.839,5.3,5.3,0,0,1-1.371,1.146,10.677,10.677,0,0,1-6.741.848,8.142,8.142,0,0,1-2.53-.678c-1.361-.631-1.112-.512-1.8-.23-7.981,3.211-14.653,1.96-18.927-1.348-1.2,6.913-1.611,9.231-1.754,9.506a.693.693,0,0,1-.643.33c-.667-.107-.485-.516-1.019-1.161a2.617,2.617,0,0,0-1.652-.906,3.766,3.766,0,0,0-3.227,1,.77.77,0,0,0-.214.6.758.758,0,0,1-1.451.431c-.176-.37-.508-1.235-.707-1.665a15.756,15.756,0,0,1-1.415-3.572c-.966-3.831-.371-8.571.815-12.377,1.915-6,5.2-9.553,11.465-11.039A27.6,27.6,0,0,1,186.926,46.108Zm-16.383,26.9v0Zm2.774-10.632c.261.1,4.744,5.094,13.693,3.807a33.943,33.943,0,0,0,6.088-1.661v0a6.321,6.321,0,0,1,1.523.534,13.084,13.084,0,0,0,4.923.63,8.916,8.916,0,0,0,3.235-.852,5.922,5.922,0,0,0,2.056-1.895c6.687-7.622-1.512-18.128-10.675-12.547-.849.515-.872.723-1.4.575-.459-.214-3.881-2.276-4.682-2.688-1.957-1-3.3-1.424-6.915-1.814a21.636,21.636,0,0,0-7.167.272,15.483,15.483,0,0,0-6.087,2.974c-4.464,3.957-6.3,13.361-4.933,18.649a16.147,16.147,0,0,0,1.325,3.32,5.028,5.028,0,0,1,6.567-.221c.41-2.042,1.695-8.631,1.778-8.808A.584.584,0,0,1,173.317,62.373Z"
     id="path84" />
  <path
     class="a"
     d="M171.06,72.875c.052.1.1.21.145.322.029.073,1.947-10.263,1.947-10.263,1.3,1.317,8.142,6.81,19.892,1.89.809.136,1.512.663,2.315.839,2.92.641,2.639.174,2.732.616a29.756,29.756,0,0,1-.122,6.106s3.8-.163,4.272,2.3a6.849,6.849,0,0,1-1.882,6.037c-.532.454-1.194.465-1.709.831a6.255,6.255,0,0,0,.012,1.171c-.055,3.743-2.191,10.362-5.15,13.141-1.572,1.476-4.233,2.074-6.31,2.423-6.444,1.083-13.3-.722-16.306-7.005a22.558,22.558,0,0,1-1.543-6.969,15.23,15.23,0,0,0-.461-3.68c-.177-.443-1.828-.257-2.333-.432-5.876-2.041-2.44-11.339,1.926-9.1a4.618,4.618,0,0,1,2.58,1.873S171.063,72.936,171.06,72.875Z"
     id="path86" />
  <path
     class="b"
     d="M173.207,62.471c.263.054.174.082.762.568,3.679,2.986,9.53,4.326,16.59,1.987,2.426-.823,2.172-.964,2.7-.87,1.449.3.994.7,3.882,1.1,1.088.139,1.078.041,1.392.289.709.786.35,5.06.256,6.121a5.112,5.112,0,0,1,3.571,1.526c1.332,1.653.913,6.053-1.533,8.142a4.57,4.57,0,0,1-1.425.691c0,.143.028.457.035.631.1,3.094-1.97,10.422-5.266,13.654-4.38,4.215-20.369,5.529-24.337-5.814a30.061,30.061,0,0,1-1.167-7.3,8.656,8.656,0,0,0-.27-2.237c-.883-.257-1.669.228-3.348-.924-4.125-2.947-1.5-10.085,2.43-9.642a3.488,3.488,0,0,1,1.143.365,4.823,4.823,0,0,1,2.415,1.651c1.825-10.149,1.533-9.622,1.875-9.873A.47.47,0,0,1,173.207,62.471Zm-1.784,10.96h0a.32.32,0,0,1-.465-.032.584.584,0,0,1-.093-.193,4.638,4.638,0,0,0-2.35-1.733c-.341-.092-.325-.157-.781-.275-3.27-.767-5.6,5.641-2.037,7.987,1.159.736,1.383.46,2.629.6.887.114,1.049.407,1.232.991.484,1.6.285,5.195,1.4,8.762a11.73,11.73,0,0,0,8.864,7.847c5.294,1.211,11.221-.381,13.1-2.032,2.268-2.072,3.669-6,4.436-8.966,1.259-5.023-.413-5.1,1.6-5.845a2.2,2.2,0,0,0,1.193-.686c1.584-1.716,1.766-4.881,1-5.758a3.574,3.574,0,0,0-2.131-.9c-1.149-.148-1.184.066-1.588-.3-.251-.322-.206-.474-.164-.876a30.4,30.4,0,0,0,.174-5.275,11.518,11.518,0,0,1-4.251-1.171c-.1-.03-.021-.041-.43.119-8.163,3.164-15.04,1.718-19.307-1.848C171.826,71.917,171.583,73.26,171.423,73.431Zm-2.951,7.56-.01-.006Zm-.011-.007.012.007-.012-.007Zm.006.005-.007-.005h0Zm-.006-.005.009.005-.01-.005Zm0,0,.01,0-.011,0Zm0,0Zm0,0h0Zm0,0Z"
     id="path88" />
  <path
     class="b"
     d="M198.036,66.072c2.04.142,4.612-.3,5.942-1.481a17.174,17.174,0,0,1-1.319,9.138c-.128.29-.248.673-.4,1.031,0-.027-.009-.053-.014-.079-.471-2.459-4.272-2.3-4.272-2.3C198.109,71.124,198.435,67.277,198.036,66.072Z"
     id="path90" />
  <path
     class="b"
     d="M204.042,63.926c.6.106.614.538.717,1.213a17.657,17.657,0,0,1-1.427,9c-.378.929-.317.978-.6,1.241a.773.773,0,0,1-.977-.028c-.376-.384-.168-.573-.484-1.067-.767-1.2-3.306-1.2-3.5-1.247a.681.681,0,0,1-.47-.721c.127-.912.277-1.833.408-3.234a11.4,11.4,0,0,0,.041-3.11.306.306,0,0,1,.313-.206v0a9.478,9.478,0,0,0,4.993-1.273h0C203.581,64.136,203.553,63.92,204.042,63.926Zm-5.578,2.511a25.642,25.642,0,0,1,.223,5.261,6.867,6.867,0,0,1,1.81.3,4.111,4.111,0,0,1,1.642.937,18.2,18.2,0,0,0,1.275-7.221A9.719,9.719,0,0,1,198.464,66.437Z"
     id="path92" />
  <path
     class="b"
     d="M168.573,80.415a.429.429,0,0,1,.295.207,15.23,15.23,0,0,1,.461,3.68,22.558,22.558,0,0,0,1.543,6.969c3.006,6.284,9.862,8.088,16.306,7,2.077-.349,4.738-.946,6.31-2.423,3.145-2.955,5.319-10.37,5.139-13.38q1.106.18,2.188.367c35.864,6.18,53.352,38.379,45.913,78.844-1.729,9.4-6.227,17.271-12.049,21.019-8.933,5.75-17.88,7.783-28.075,8.575-19.825,1.541-41.384,3.478-61.069-.595-4.964-1.027-10.294-2.234-14.9-4.409-2.217-1.045-18.087-14.276-20.67-22.8-8.311-27.428,5.256-55.3,27.621-72.946C146.083,83.823,157.129,81.057,168.573,80.415Z"
     id="path94" />
  <path
     class="b"
     d="M169.327,81.017a17.7,17.7,0,0,1,.3,2.931c.065.727.332,2.922.652,4.393,1.925,8.52,10.231,11.244,18.858,9.08a9.509,9.509,0,0,0,3.928-1.817c2.66-2.418,4.453-7.864,4.915-11.169.268-2.069.027-1.8.167-2.181a.526.526,0,0,1,.565-.3,68.7,68.7,0,0,1,11.882,2.758c28.435,9.516,40.72,36.479,38.247,66.8-.748,9.153-2.276,18.163-7.459,25.587-2.575,3.688-5.812,6.835-13.968,10.343a57.168,57.168,0,0,1-14.171,3.884c-5.91.873-23.418,2.02-29.448,2.3a193.5,193.5,0,0,1-24.937-.266c-8.189-.695-20.049-2.743-27.32-5.838-1.749-.751-2.425-1.187-5.015-3.32-5.7-4.709-15.232-13.737-17.348-20.837-5.293-18.092-1.437-36.609,9.23-52.841,6.671-10.108,16.333-19.171,23.011-23.154a54.049,54.049,0,0,1,21-6.718c1.488-.185,5.934-.607,6.256-.525v0C169.131,80.264,169.191,80.494,169.327,81.017Zm-1-.276c-9.3.612-18.611,2.567-26.57,7.424-4.881,2.986-10.682,8.443-14.586,12.778-13.735,15.3-21.781,35.27-18.088,55.813a52.1,52.1,0,0,0,1.8,7.172,15.3,15.3,0,0,0,.726,1.611c4.052,7.782,16.638,18.589,19.272,20.009a49.912,49.912,0,0,0,9.159,3.12c15.018,3.717,28.378,4.1,44.167,3.373,8.528-.408,22.929-1.557,25.384-1.817,8.785-.952,16.257-2.989,23.848-7.647,3.6-2.235,6.683-5.331,9.394-11.054A44.843,44.843,0,0,0,246.5,158.5c3.434-22.487-.438-46.128-17.257-61.576C220.453,88.9,210.514,85.011,199.153,83.1a26.247,26.247,0,0,1-3.288,10.472c-1.8,3-3.509,4.079-7.163,4.874-6.288,1.3-12.825.349-16.686-4.611a13.636,13.636,0,0,1-2.7-6.937c-.589-4.079-.28-4.716-.673-5.969C168.574,80.721,168.627,80.722,168.323,80.741Z"
     id="path96" />
  <path
     class="a"
     d="M206.165,83.989c32.281,8.317,47.651,39.277,40.587,77.7-1.729,9.405-6.227,17.272-12.049,21.019-8.933,5.75-17.88,7.784-28.075,8.576-4.153.323-8.382.663-12.654.961a174.309,174.309,0,0,1-1.606-21.051c.053-19.532,2.266-38.759,3.926-58.14q.27-3.166.606-6.314c.648-.754,1.233-1.538,1.739-2.077,4.991-5.311,6.754-13.4,7.526-20.676Z"
     id="path98"
     style="fill:#fda4d1;fill-opacity:1" />
  <path
     class="b"
     d="M206.243,83.689v0c31.782,7.979,45.772,36.849,42.428,69.875-1.049,10.181-3.315,20.922-11.081,27.907-2.907,2.614-8.01,5.165-11.661,6.6-9.566,3.7-18.344,3.958-28.7,4.724-3.552.261-3.327.3-3.693.094-.376-.312-.3-.316-.56-2.513-1.222-10.551-2.132-18.836-.35-42.907.694-9.284,1.561-17.8,2.47-27.2,1.434-14.921,1.2-13.549,1.622-14.045.646-.762.954-1.173,1.435-1.708a20.457,20.457,0,0,0,1.709-2.024c5.285-7.2,5.823-18.1,6.027-18.635A.307.307,0,0,1,206.243,83.689Zm-2.921,14.322c-1.969,4.677-3.809,6.263-5.581,8.465-.457.564-.373.395-.406.71.1.016-2.74,29.52-3.652,45.816-1.027,18.639-.533,25.125.6,35.219.406,3.559.339,3.2.439,3.2-.113-.116,15.462-.6,24.485-2.848,6-1.522,14.1-4.84,18.439-9.293,4.971-5.138,7.429-12.215,8.646-19.283,5.864-34.753-6.62-66.639-39.853-75.608A48.724,48.724,0,0,1,203.322,98.011Z"
     id="path100" />
  <path
     class="a"
     d="M160.791,81.225a63.59,63.59,0,0,0,.09,7.791c.277,6.425,2.962,14.222,7.6,19.3.022.341.041.683.054,1.024.769,18.743,1.5,37.757.268,56.473-.476,7.238-.588,19.665-4.229,27.134a118.817,118.817,0,0,1-28.429-4.569c-2.429-1.029-4.863-2.116-7.257-3.287-4.809-3.627-16.7-14.335-18.9-21.613-8.311-27.428,5.256-55.3,27.621-72.946C144.152,85.373,152.207,82.545,160.791,81.225Z"
     id="path102"
     style="fill:#fda4d1;fill-opacity:1" />
  <path
     class="b"
     d="M160.845,80.92a.309.309,0,0,1,.256.328c-.376-.028-.451-.034,0,0a63.969,63.969,0,0,0,.516,11.161,31.535,31.535,0,0,0,6.9,15.211c.561.627.442.067.6,3.459,1.593,34.583,1.107,43.7.02,61.9a83.4,83.4,0,0,1-1.935,14.761,28.542,28.542,0,0,1-2.01,5.656c-.359.423-.661.321-1.264.292a118.6,118.6,0,0,1-21.469-2.86,41.8,41.8,0,0,1-11.876-4.056c-2.445-1.143-2.067-.958-3.031-1.72-5.669-4.485-15.659-13.911-18.127-20.792a57.331,57.331,0,0,1-2.2-10c-2.665-21.372,6.67-41.594,21.813-56.788,9.513-9.482,16.159-12.878,24.752-15.148A60.876,60.876,0,0,1,160.845,80.92Zm-.406.677c-13.281,2.262-20.016,6.674-27.559,13.634-18.827,17.491-29.546,42.614-22.346,67.392a18.283,18.283,0,0,0,2.95,5.866c3.653,5.222,9.95,11.26,14.781,15.131,1.024.814.608.669,4.337,2.359a29.76,29.76,0,0,0,7.266,2.635,119.6,119.6,0,0,0,24.237,3.549c1.8-3.925,2.621-9.134,3.079-13.408.459-4.348,1.426-19.558,1.573-30.562.132-10.656-.1-20.282-.447-30.907-.318-9.571-.264-8.712-.418-8.886a30.408,30.408,0,0,1-6.12-11.745c-.908-3.221-1.348-5.89-1.406-12.2C160.348,81.433,160.539,81.583,160.439,81.6Z"
     id="path104" />
  <path
     class="a"
     d="M158.2,200.249c-28.973-8.259-25.328-6.336-33.209-9.409-.55-.215-1.945-.368-2.271-.925-.392-.671.1-1.491.24-2.167.219-1.021.058-2.528.527-3.492.283-.581,2.035.1,2.417.177,2.525.483,5.043.885,7.538,1.525,9.893,2.543,20.073,3.713,29.936,6.315.2.054-.041.73-.075.831a17.323,17.323,0,0,1-1.313,2.5c-.625,1.185-1.108,2.467-1.758,3.634-.126.227-.391,1.015-.658,1.139C159.126,200.588,158.639,200.355,158.2,200.249Z"
     id="path106"
     style="fill:#d38d5f;fill-opacity:1" />
  <path
     class="b"
     d="M124.12,183.128a12.789,12.789,0,0,1,2.186.465c10.75,2.011,5.958,1.462,18.047,3.848,2.57.5,14.861,2.831,19.246,4.278,1.254.564-.486,2.956-1.115,4.054-.547.969-1,2.031-1.57,3.109-.3.562-.263.463-.342.615-.36.716-.49,1.286-1.262,1.345-.412.031.416.141-9.994-2.5-19.8-5.009-17.987-4.362-21.035-5.374-2.108-.709-3.453-1.28-3.833-1.383s-.732-.171-1.172-.314c-2.566-.886-1.3-2.989-1.153-3.908C122.4,185.482,122.005,183.087,124.12,183.128Zm-.246,4.566a10.6,10.6,0,0,0-.41,1.731,11.575,11.575,0,0,0,1.839.6c8.595,3.389,4.412,1.021,33,9.876v0a2.5,2.5,0,0,0,1.022.157l-.009,0,.032-.009-.009,0,.033-.011-.01,0,.026-.01h0l.015-.017-.008.008.018-.021-.006.007c.168-.228.263-.593.572-1.195.7-1.412,1.1-2.642,1.818-3.938a9.745,9.745,0,0,0,1.013-2.131c-5.058-1.236-11.75-2.306-17.365-3.334-9.741-1.783-11.13-2.386-14.3-3.065-1.168-.245-5.551-1.065-5.557-1.067a10.308,10.308,0,0,0-1.4-.351C123.984,185.615,124.017,186.8,123.874,187.694Zm35.508,12.342Zm0,0h0Zm0,0h0l.009-.008Zm0,0Zm0,0h0l.006,0Zm0,0h0Zm0,0h0l0,0Zm0,0h0l0,0Zm.008,0h0l.016-.008Zm3.468-7.568h0v0Zm0,0v0Zm0-.006v0c0-.012,0-.007,0-.019v.014Z"
     id="path108" />
  <path
     class="a"
     d="M157.037,204.7c.115-2.286,1.535-5.083,2.37-7.181.879-2.207,1.937-4.341,2.869-6.524.258-.605.761-2.239,1.356-2.655,1.018-.71,3.731.527,4.7.987,9.794,4.637,17.773,8.983,27.038,14.267C183.17,207.4,170.281,207.1,157.037,204.7Z"
     id="path110"
     style="fill:#cccccc;fill-opacity:1" />
  <path
     class="b"
     d="M167.268,188.114c2.65,1.01,15.135,7.311,21.861,11.064,7.29,4.068,6.784,3.772,6.959,4.117a.777.777,0,0,1-.258.92,47.125,47.125,0,0,1-5.631,1.523c-9.212,1.935-18.078,1.71-27.345.311-.324-.05-5.807-.924-6.044-1.141a.283.283,0,0,1-.082-.229h0a10.258,10.258,0,0,1,.436-2.462c.822-2.846,4.4-10.956,4.671-11.709C162.774,187.908,163.161,186.569,167.268,188.114Zm-3.247.73h0l-.033.02.015-.01a7.726,7.726,0,0,0-1.127,2.231c-1.237,2.944-5.14,10.3-5.5,13.351,3.591.529,5.977.884,10.482,1.2a76.417,76.417,0,0,0,25.54-2.268c-5.478-3.093-9.685-5.489-14.8-8.075C172.33,192.093,165.368,188.171,164.021,188.844Z"
     id="path112" />
  <path
     class="a"
     d="M106.972,291.789s-8.376-.171-10.469-3.564c-1.042-1.69-1.154-5.06-.714-6.692.4-1.5,1.246-1.3,2.857-2.062,5.125-2.439,15.244,6.985,18.011,1.8.52-.976.363,2.845.444,3.214a4.5,4.5,0,0,1-.993,3.427C114.1,290.706,110.128,291.322,106.972,291.789Z"
     id="path114"
     style="fill:#ffe680;fill-opacity:1" />
  <path
     class="b"
     d="M104.108,278.9c2.434.74,5.177,2.077,7.363,2.744,4.156,1.272,4.2-.559,4.823-1.095a.813.813,0,0,1,1.236.258c.391.737.163,2.579.3,3.883a5.123,5.123,0,0,1-1.088,3.383c-2.16,3.034-6.095,3.614-9.793,4.031-2.923,0-7.156-.511-9.579-2.146a4.7,4.7,0,0,1-1.89-2.359,11.742,11.742,0,0,1-.646-4.382c.118-2.92.935-3.441,2.258-3.933C98.84,278.642,99.967,277.634,104.108,278.9Zm13.676,5.459v0l0-.021Zm-1.567-2.87h0l0-.014Zm0,0h0l0-.006Zm-1.046,6.636a4.942,4.942,0,0,0,1.316-3.012c-.015-.41-.077-.365-.107-.891-.016-.341-.027-1.023-.043-1.393-3.812,3.086-11.9-3.851-16.645-2.908a21.218,21.218,0,0,0-2.187.812,2.325,2.325,0,0,0-.633.308c-.837.664-.778,4.741-.008,6.488,1.212,2.78,7.139,3.766,10.106,3.948C109.847,290.954,113.23,290.3,115.17,288.122Z"
     id="path116" />
  <path
     class="a"
     d="M31.92,288.7s-8.376-.17-10.469-3.563c-1.043-1.69-1.155-5.06-.714-6.692.4-1.5,1.245-1.3,2.857-2.062,5.125-2.439,15.243,6.985,18.01,1.8.521-.976.363,2.845.444,3.214a4.493,4.493,0,0,1-.993,3.427C39.042,287.615,35.075,288.231,31.92,288.7Z"
     id="path118"
     style="fill:#ffe680;fill-opacity:1" />
  <path
     class="b"
     d="M29.056,275.808c2.433.74,5.177,2.077,7.362,2.744,4.156,1.272,4.2-.559,4.824-1.1a.811.811,0,0,1,1.235.258c.391.737.164,2.579.3,3.883a5.117,5.117,0,0,1-1.088,3.383c-2.16,3.034-6.094,3.614-9.792,4.031-2.923,0-7.157-.511-9.58-2.146a4.707,4.707,0,0,1-1.89-2.359,11.762,11.762,0,0,1-.646-4.382c.119-2.92.935-3.441,2.258-3.933C23.788,275.551,24.914,274.543,29.056,275.808Zm13.676,5.459,0-.012,0,.011,0-.021Zm-1.567-2.87h0l-.006-.014Zm0,0h0l0-.006Zm-1.046,6.636a4.942,4.942,0,0,0,1.316-3.012c-.014-.41-.077-.365-.106-.891-.016-.341-.027-1.023-.043-1.393-3.813,3.086-11.9-3.851-16.645-2.908a21.185,21.185,0,0,0-2.188.812,2.339,2.339,0,0,0-.633.308c-.837.664-.778,4.741-.007,6.488,1.211,2.78,7.138,3.766,10.106,3.948C34.8,287.863,38.177,287.208,40.117,285.031Z"
     id="path120" />
  <path
     class="a"
     d="M178.471,294.685s-8.376-.17-10.469-3.564c-1.042-1.69-1.154-5.059-.714-6.691.4-1.5,1.246-1.3,2.857-2.062,5.125-2.439,15.244,6.984,18.011,1.8.521-.977.363,2.844.444,3.214a4.5,4.5,0,0,1-.993,3.426C185.594,293.6,181.627,294.218,178.471,294.685Z"
     id="path122"
     style="fill:#ffe680;fill-opacity:1" />
  <path
     class="b"
     d="M175.607,281.8c2.434.741,5.177,2.078,7.363,2.744,4.156,1.273,4.2-.558,4.824-1.094a.811.811,0,0,1,1.235.258c.391.737.163,2.579.3,3.883a5.123,5.123,0,0,1-1.088,3.383c-2.16,3.033-6.095,3.614-9.793,4.03-2.923,0-7.156-.51-9.579-2.145a4.705,4.705,0,0,1-1.89-2.359,11.745,11.745,0,0,1-.646-4.382c.118-2.92.935-3.441,2.258-3.934C170.339,281.538,171.466,280.53,175.607,281.8Zm13.676,5.46v0l0-.02Zm-1.567-2.87h0l0-.014Zm0,0h0l0-.006Zm-1.046,6.637a4.942,4.942,0,0,0,1.316-3.012c-.015-.41-.077-.366-.107-.892-.015-.34-.027-1.022-.043-1.392-3.812,3.086-11.9-3.851-16.645-2.908a20.945,20.945,0,0,0-2.187.812,2.325,2.325,0,0,0-.633.308c-.837.664-.778,4.741-.008,6.488,1.212,2.78,7.139,3.766,10.107,3.947C181.346,293.85,184.729,293.2,186.669,291.019Z"
     id="path124" />
  <path
     class="a"
     d="M181.933,131.567a11.964,11.964,0,0,1-4.747,5.571,14.57,14.57,0,0,1,4.7,6.1,10.874,10.874,0,0,1,4.941-6.289A11.741,11.741,0,0,1,181.933,131.567Z"
     id="path126"
     style="fill:#212121;fill-opacity:1" />
  <path
     class="a"
     d="M216.821,109.039a11.977,11.977,0,0,1-4.748,5.571,14.567,14.567,0,0,1,4.7,6.1,10.879,10.879,0,0,1,4.941-6.288A11.738,11.738,0,0,1,216.821,109.039Z"
     id="path134"
     style="fill:#fda4d1;fill-opacity:1" />
  <path
     class="b"
     d="M193.423,233.735s3.52,38.43,3.869,39.708c1.99,7.285,46.8,8.064,48.713-1.263.319-1.556,6.647-38.442,5.787-39.332-1.3-1.348-3.908-1.387-5.57-1.744-3.984-.856-7.862-2.174-11.853-2.983a51.482,51.482,0,0,0-13.252-.438C211.552,228.252,202.489,231.215,193.423,233.735Z"
     id="path142" />
  <path
     class="b"
     d="M243.616,229.739c4.709,1.183,5.078.835,6.9,1.479a4.641,4.641,0,0,1,1.829,1.12c.364.415.323,1.15.2,2.669-.47,5.273-2.436,17.477-3.285,22.692-2.551,15.623-2.507,15.069-2.962,15.868a8.481,8.481,0,0,1-3.915,3.072c-7.332,3.322-21.151,3.532-29.623,2.768-4.189-.391-14.741-1.674-16.058-5.679-.363-1.186-3.68-39.954-3.58-39.964v-.054a.371.371,0,0,1,.027-.1c.167-.294,11.724-3.509,12.759-3.783a83.226,83.226,0,0,1,13.829-2.6C232.327,226.106,235.156,227.584,243.616,229.739Zm-49.844,4.32c.4,3.986,3.532,34.746,4.081,38.768a2.13,2.13,0,0,0,1.1,1.7,14.357,14.357,0,0,0,4.325,1.848c6.371,1.75,15.338,2.111,21.919,1.825,4.9-.221,16.5-1.214,19.511-5.059a2.961,2.961,0,0,0,.618-1.549c.519-2.87,6.124-35.64,5.795-38.357-1.044-.927-3.224-1.079-4.619-1.332-2.777-.507-8.3-2.287-12.263-3.129a37.5,37.5,0,0,0-7.512-.693c-10.663-.02-17.671,1.693-28.1,4.552C193.221,234.122,193.758,233.923,193.772,234.059Z"
     id="path144" />
  <path
     class="a"
     d="M193.3,235.17c2.972,2.267,19.631,7.592,32.351,4.86,4.314-.927,31.957-2.619,24.651-9.734-4.794-4.67-28.433-6.49-32.241-5.508-3.485.9-29.253,3.937-24.761,10.382Z"
     id="path146"
     style="fill:#784421" />
  <path
     class="b"
     d="M222.284,223.808a101.248,101.248,0,0,1,19.356,2.186c3.7.838,10.33,2.582,10.656,6.352.4,6.346-21.085,7.289-26.8,8.438a41.183,41.183,0,0,1-11.158.492c-9.275-.746-18.032-3.78-20.772-5.539a.294.294,0,0,1-.3-.083l-.035-.042h0a4.8,4.8,0,0,1-.561-.908c-2.247-5.246,13.034-8.211,18.777-9.341C218.6,223.969,218.534,223.8,222.284,223.808Zm-4.143,1.676c-3.591.823-27.045,3.486-24.87,8.963.23.544.281.557.958.926,3.622,1.94,10.553,3.521,14.933,4.157a46.446,46.446,0,0,0,16.579-.241c4.072-.774,19.936-1.987,24.17-5.4.954-.776,1.022-1.421.556-2.184a5.479,5.479,0,0,0-2.161-1.866C241.436,226.17,221.717,224.631,218.141,225.484Z"
     id="path148" />
  <path
     class="a payments-asset-plant-1"
     d="m 222.19,230.676 c -9.015,-3.19 -18.436,-5.319 -27.4,-8.78 -5.535,-2.135 -11.142,-3.931 -16.248,-7.029 -2.945,-1.786 -5.22,-2.944 -7.027,-6.04 a 16.018,16.018 0 0 1 -2.369,-5.519 c -0.647,-4.672 1.66,-7.192 5.6,-9.142 a 20.006,20.006 0 0 1 16.666,-0.32 37.18,37.18 0 0 1 8.531,5.8 66.434,66.434 0 0 1 15.048,17.171 c 3.935,6.783 2.933,4.842 7.199,13.859 z"
     id="path150"
     style="fill:#438b73;fill-opacity:1;fill-rule:evenodd"
     inkscape:connector-curvature="0" />
  <path
     class="b payments-asset-plant-1"
     d="m 188.966,192.161 a 21.153,21.153 0 0 1 5.553,2.479 67.25,67.25 0 0 1 8.986,7.188 c 7.137,6.656 10.842,12.214 15.178,20.574 0.834,1.618 0.965,1.963 3.684,7.914 0.124,0.273 0.129,0.266 0.132,0.379 a 0.31,0.31 0 0 1 -0.413,0.274 c 0.126,-0.356 0.15,-0.425 0,0 -7.266,-2.443 -13.2,-3.825 -20.679,-6.14 -2.709,-0.843 -4.139,-1.29 -12.576,-4.432 a 63.778,63.778 0 0 1 -10.431,-4.75 c -3.812,-2.277 -5.67,-3.223 -7.825,-6.913 a 15.328,15.328 0 0 1 -2.189,-5.273 8.807,8.807 0 0 1 0.77,-5.476 c 2.268,-4.237 10.826,-8.293 19.81,-5.824 z m -5.653,0.8 c -4.994,0.039 -9.371,2.043 -11.52,4.1 a 6.17,6.17 0 0 0 -1.772,2.971 8.562,8.562 0 0 0 0.012,3.821 21.142,21.142 0 0 0 2.838,5.659 10.738,10.738 0 0 0 1.395,1.556 45.665,45.665 0 0 0 7.042,4.509 83.85,83.85 0 0 0 9.048,3.914 c 5.632,2.144 5.469,2.149 8.439,3.214 7.38,2.625 15.465,4.765 22.775,7.41 a 112.1,112.1 0 0 0 -7.58,-13.949 55.256,55.256 0 0 0 -5.079,-6.831 81.956,81.956 0 0 0 -14.517,-12.986 19.309,19.309 0 0 0 -11.081,-3.39 z"
     id="path152"
     inkscape:connector-curvature="0"
     style="fill:#212121;fill-rule:evenodd" />
  <path
     class="a  payments-asset-plant-2"
     d="m 223.2,230.945 c 8.786,-3.773 18.049,-6.513 26.769,-10.553 5.383,-2.493 10.861,-4.651 15.753,-8.076 2.822,-1.975 5.017,-3.279 6.618,-6.487 a 16.029,16.029 0 0 0 2,-5.662 c 0.34,-4.7 -2.127,-7.068 -6.186,-8.757 a 20.006,20.006 0 0 0 -16.651,0.771 37.164,37.164 0 0 0 -8.134,6.344 66.437,66.437 0 0 0 -13.893,18.117 c -3.476,7.027 -2.607,5.026 -6.276,14.303 z"
     id="path154"
     style="fill:#438b73;fill-opacity:1;fill-rule:evenodd"
     inkscape:connector-curvature="0" />
  <path
     class="b payments-asset-plant-2"
     d="m 260.834,189.181 c 4.142,0.034 9.323,1.511 12.077,4.308 2.581,2.662 2.778,6.472 1.381,9.972 -1.615,4 -3,5.674 -5.194,7.374 -0.943,0.73 -3.238,2.3 -3.771,2.65 a 51.85,51.85 0 0 1 -4.986,2.876 c -3.6,1.836 -12.485,5.669 -12.586,5.711 -8.346,3.5 -15.95,5.678 -24.429,9.162 -0.149,-0.348 -0.18,-0.42 0,0 a 0.309,0.309 0 0 1 -0.418,-0.194 c -0.037,-0.168 -0.086,0.04 0.924,-2.616 1.484,-3.908 1.475,-3.894 1.722,-4.513 a 100.043,100.043 0 0 1 6.273,-12.558 71.1,71.1 0 0 1 10.787,-13.1 c 5.478,-5.32 10.198,-9.089 18.22,-9.072 z m -8.165,3.28 c -4.044,1.879 -8.074,5.751 -11.44,9.2 a 61.9,61.9 0 0 0 -11.8,16.22 99.888,99.888 0 0 0 -5.643,12.468 c 12.118,-5.3 13.237,-4.517 32.453,-13.571 a 56.291,56.291 0 0 0 9.584,-5.434 c 3.6,-2.506 4.619,-3.3 6.4,-7.008 1.047,-2.213 1.734,-4.107 1.213,-6.687 a 6.27,6.27 0 0 0 -2.582,-3.884 c -4.2,-3.102 -11.63,-4.282 -18.185,-1.304 z"
     id="path156"
     inkscape:connector-curvature="0"
     style="fill:#212121;fill-rule:evenodd" />
  <path
     class="a payments-asset-plant-1"
     d="m 184.956,204.8 c 13.08,1.015 34.553,18.008 36.479,25.107"
     id="path158"
     style="fill:#36715e;fill-opacity:1;fill-rule:evenodd"
     inkscape:connector-curvature="0" />
  <path
     class="b payments-asset-plant-1"
     d="m 185.058,204.492 c 8.789,0.312 19.708,7.242 26.553,12.884 3.248,2.7 9.084,8.274 10.1,12.362 0.03,0.114 0.049,0.039 -0.195,0.472 -0.493,-0.282 -0.321,-0.1 -0.528,-0.617 -2.741,-6.687 -22.869,-22.056 -34.837,-24.289 -1.517,-0.281 -1.091,-0.034 -1.511,-0.527 0.387,-0.328 0.309,-0.29 0.418,-0.285 z"
     id="path160"
     inkscape:connector-curvature="0"
     style="fill:#212121;fill-rule:evenodd" />
  <path
     class="a  payments-asset-plant-2"
     d="m 258.665,202.692 c -12.987,1.868 -33.3,20.229 -34.76,27.438"
     id="path162"
     style="fill:#36715e;fill-opacity:1;fill-rule:evenodd"
     inkscape:connector-curvature="0" />
  <path
     class="b  payments-asset-plant-2"
     d="m 258.976,202.646 c -0.511,0.685 0.134,0.082 -2.557,0.934 -11.533,3.636 -28.253,18.3 -31.684,25.224 -0.829,1.724 -0.19,1.167 -0.893,1.632 l -0.24,-0.368 c 1.2,-7.589 20.654,-25.792 34.547,-27.632 0.59,-0.075 0.393,-0.113 0.827,0.21 z"
     id="path164"
     inkscape:connector-curvature="0"
     style="fill:#212121;fill-rule:evenodd" />
  <path
     class="a"
     d="M222.313,180.046c1.166,5.46.5,11.655.3,17.2-.3,8.23-.774,31.326-.285,33.843"
     id="path166" />
  <path
     class="b"
     d="M222.747,179.332c.339.443.512.315,1.155,3.466a51.214,51.214,0,0,1,.835,9.737c-.164,28.684-1.378,32.1-1.573,37.778a2.55,2.55,0,0,1-.184,1.265l-.494.347-.008,0-.6-.143c-.455-.631-.381-.5-.418-.653-.116-.512-.188-1-.264-1.518-1.218-8.632-1.16-15.414-.96-24.014.372-15.227,1.552-17.463,1.374-23.334-.087-2.634-.262-1.55.02-2.7l.5-.365h.007Z"
     id="path168" />
  <path
     class="a"
     d="M51.4,244.242c-.105,4.734,1.559,20.167,1.694,28.6.08,5.057,18.042,4.521,18.689.645.273-1.635,1.245-29.624.255-30.3C70.684,242.274,51.4,244.242,51.4,244.242Z"
     id="path170"
     style="fill:#ffe680;fill-opacity:1" />
  <path
     class="b"
     d="M51.368,243.934c4.307-.527,13.359-1.5,18.1-1.6,2.885-.048,3.186.192,3.395,1.226.819,4.338-.025,29.178-.38,30.349-.7,2.2-4.708,2.946-6.994,3.209-3.327.356-8.146.225-11.05-1.35a3.469,3.469,0,0,1-2.067-2.864c-.2-9.311-1.7-28.663-1.282-28.663A.311.311,0,0,1,51.368,243.934Zm.347.593c.06,5.1,1.958,20.146,2.1,28.329.144,3.532,12.747,3.613,16.413,1.372a1.768,1.768,0,0,0,.768-.789c.242-.756,1.222-29.6.479-29.742C68.615,243.2,54.581,244.3,51.715,244.527Zm19.993-.767-.011-.006Zm-.017-.008.014,0-.015-.006Zm0,0-.007,0h0Z"
     id="path172" />
  <path
     class="b"
     d="M72.653,250.737c-1.948,5.369-12.988,5.528-18.408,3.552a7.779,7.779,0,0,1-2.36-1.3c-.143-.132-.1-.044-.139-.548.638-.046.266-.085.856.215,3.231,1.586,16.8,2.387,19.488-2.176l.413-.154Z"
     id="path174" />
  <path
     class="b"
     d="M72.454,258.077c-2.577,4.058-16.016,3.99-20.024,1.066-.2-.152-.148-.05-.241-.565.766-.138.088-.1,1.349.294,2.33.694,8.561,1.178,13.8.425,1.437-.206,3.622-.547,4.626-1.6l.438-.058Z"
     id="path176" />
  <path
     class="b"
     d="M72.377,264.367l-.14.419A20.352,20.352,0,0,1,57.243,267.2c-1.378-.308-3.553-.727-4.437-1.943l.025-.443c.732.041.224-.032.868.322a5.937,5.937,0,0,0,1.944.523,47.287,47.287,0,0,0,5.625.471,33.48,33.48,0,0,0,10.689-1.9Z"
     id="path178" />
  <path
     class="b"
     d="M72.265,270.067c-.1,1.081-1.511,1.887-2.5,2.322-3.282,1.437-8.619,1.6-12,.925-1.682-.353-4.033-1.167-4.821-2.7l.1-.433.434.1c1.526,1.907,7.739,1.948,10.174,1.812,1.637-.1,7.3-.556,7.98-2.047.056-.13-.039-.042.4-.343Z"
     id="path180" />
  <path
     class="a"
     d="M185.5,74.542c-.031,1.95.688,4.054,1,5.977.081.49.593,1.432.357,1.919-.4.817-1.365,1.072-2.164,1.316a3.978,3.978,0,0,1-1.516.144"
     id="path182" />
  <path
     class="b"
     d="M185.509,73.76l.546.235.224.551c0,2.393.621,3.959.841,5.867.05.5.529,1.361.282,2.115h0c-.417,1.291-2.9,1.875-4.251,1.68l-.282-.338c.56-.46.108-.181,1.044-.321a7.328,7.328,0,0,0,1.648-.569c.787-.4.859-.869.814-.768l0-.012,0,.012,0-.013,0,.012,0-.022-.006.022,0-.031,0,.02c.031-.342-.331-.855-.542-1.838a30.554,30.554,0,0,1-1.11-5.63c0-.266-.039-.118.232-.747l.55-.224Z"
     id="path184" />
  <path
     class="a"
     d="M178.823,71.9a11.413,11.413,0,0,0-4.7,1.221"
     id="path186" />
  <path
     class="b"
     d="M179.354,71.327l.249.539v.008l-.209.556c-.677.314-.414.241-.937.25a18.578,18.578,0,0,0-3.229.426c-1.272.313-.708.355-1.385.167.151-.487.018-.371.573-.728a9.428,9.428,0,0,1,3.922-1.379C178.9,71.1,178.7,71.082,179.354,71.327Z"
     id="path188" />
  <path
     class="a"
     d="M189.03,71.536a2.633,2.633,0,0,1,1.817-.082c1.066.209,2.068.3,3.115.58"
     id="path190" />
  <path
     class="b"
     d="M191.924,71.046a17.957,17.957,0,0,1,2.116.688l.236.382-.392.218c-.744-.087-1.294-.087-2.146-.129-.966-.051-1.976-.255-2.237-.054l-.007.007,0,0v0h0v0l-.013.01-.58.129-.5-.314,0-.007-.129-.58.315-.5C189.513,70.276,190.839,70.744,191.924,71.046Z"
     id="path192" />
  <path
     class="a"
     d="M177.136,75.467a6.26,6.26,0,0,0-.048,1.87"
     id="path194" />
  <path
     class="c"
     d="M177.087,78.118a.782.782,0,0,1-.771-.655,7.03,7.03,0,0,1,.05-2.13.782.782,0,0,1,1.54.268,5.514,5.514,0,0,0-.047,1.61A.782.782,0,0,1,177.087,78.118Z"
     id="path196" />
  <path
     class="a"
     d="M190.62,75.041a6.477,6.477,0,0,0,.063,1.916"
     id="path198" />
  <path
     class="c"
     d="M190.682,77.738a.781.781,0,0,1-.77-.652,7.433,7.433,0,0,1-.06-2.187.782.782,0,1,1,1.537.284,5.829,5.829,0,0,0,.064,1.644A.782.782,0,0,1,190.682,77.738Z"
     id="path200" />
  <path
     class="a"
     d="M182.2,90.66a4.977,4.977,0,0,0,5.22-2.212"
     id="path202" />
  <path
     class="b"
     d="M187.593,88.184l.084.435a5.136,5.136,0,0,1-5.368,2.835c-.3-.026-.13.037-.737-.328l-.147-.576v-.007l.307-.509c.949-.244.213-.125,1.332-.044a4.762,4.762,0,0,0,3.439-1.057C187.407,88.175,186.836,88.345,187.593,88.184Z"
     id="path204" />
  <path
     class="b"
     d="M135.793,92l-.041.44c-20.739,17.791-32.926,44.494-25.069,70.658,1.859,6.158,10.67,14.69,15.51,18.806,4.76-3.861,3.652-2.662,12.356-8.625l-.529-1.265,0,0a47.974,47.974,0,0,0-2.223-4.968c-2.046-3.785-4.152-6.088-4.815-7.353a38.415,38.415,0,0,1-1.621-3.783.707.707,0,0,1-.042-.317h0c.075-.418.107-.328,1.412-1.479a17.58,17.58,0,0,0,3.239-3.705c2.743-3.779,8.629-14.621,10.684-18.692,2.51-4.993,5.27-11.184,6.311-16.649.614-3.261.082-2.488.709-3.034.347.4.318.176.236,1.085-.688,7.431-5.085,16.748-8.5,23.373-1.445,2.783-5.569,10.449-7.244,13.066a23.921,23.921,0,0,1-5.31,6.309c1.823,4.583,1.619,3.287,4.383,7.4a34.406,34.406,0,0,1,3.206,5.869c1.914,4.577,1.844,4.208,1.759,4.633-.139.357.132.145-4.255,3.12-2.638,1.781-3.513,2.274-4.747,3.136-4.382,3.078-4.372,3.725-5.165,3.646-.261-.073-.186.02-2.16-1.73-4.751-4.214-12.5-11.882-14.535-17.927a57.041,57.041,0,0,1-2.1-9.625c-3.083-23.955,9.173-46.827,28.111-62.422Z"
     id="path206" />
  <path
     class="a"
     d="M137.892,174.65c.255.359.516.715.761,1.082.469.7,1.605,1.642,1.484,2.585-.024.191-.822.574-.959.661-.891.568-1.677,1.291-2.5,1.943-1.172.922-2.4,1.773-3.588,2.669-.386.29-1.189.911-1.723.855-.252-.026-.857-1.262-.988-1.448-.508-.723-1.014-1.463-1.506-2.213C131.908,178.466,131.139,179.273,137.892,174.65Z"
     id="path208" />
  <path
     class="b"
     d="M138.251,174.6c1.908,2.36,1.061,1.211,1.79,2.092a2.241,2.241,0,0,1,.625,1.835,1.7,1.7,0,0,1-.753.73,37.847,37.847,0,0,0-3.347,2.68c-.726.568-3.289,2.479-3.389,2.551a4.55,4.55,0,0,1-1.159.639c-1.027.336-1.4-.143-1.942-1.079-.579-1.009-.531-.81-1.846-2.84a.764.764,0,0,1,.082-.943,53.478,53.478,0,0,1,6.036-3.862c3.671-2.2,3.513-2.176,3.762-1.969l.034.04-.058.042.062-.044Zm-8.346,6.357a16.717,16.717,0,0,1,1.452,2.195c.082.144.173.3.276.461.5-.206,4.569-3.238,4.669-3.314a19.2,19.2,0,0,1,2.79-1.966c.177-.086.278-.135.413-.21.1-.057.087-.04.081-.088a4.271,4.271,0,0,0-.879-1.531,14.175,14.175,0,0,1-.9-1.393C132.33,179.378,133.921,177.925,129.905,180.953Zm9.672-2.7c0-.02.006-.031.009-.051C139.582,178.218,139.581,178.226,139.577,178.251Z"
     id="path210" />
  <path
     class="a"
     d="M128.608,186.675c2.6-3.332,6.128-5.779,9.634-8.06.593-.385,2.48-2.2,3.319-2,1.653.386,4.483,5.15,5.208,6.527a10.539,10.539,0,0,0,1.645,2.727c.532.491,2.721.36,3.378.513a11.154,11.154,0,0,1,5.635,3.793c.073.116-.412.282-.465.295a4.936,4.936,0,0,1-1.553-.018,14.033,14.033,0,0,0-3.139.262c-.95.149-1.212.04-1.1,1.142.207,2.1.83,4.17,1.178,6.249.539,3.22.865,6.471,1.38,9.7.234,1.466.842,4.881-.592,5.976-1.6,1.22-3.365-1.713-3.769-2.736-1.684-4.269-2.507-9.026-3.6-13.485a2.718,2.718,0,0,0,.065.318,27.547,27.547,0,0,1,.62,2.862c.379,1.757,2.12,5.607.375,7.051-2.6,2.156-4.582-2.874-5-4.561a12.617,12.617,0,0,0-.6-2.182c-.01,0,.025.512.029.553.074.663.281,1.34.29,2.007.015,1.128-1.1,1.743-2.064,1.836s-1.567-.836-1.875-1.633a23.142,23.142,0,0,1-1.389-6.324c-.052-.637.318-1.685-.113-2.236C134.4,193.062,128.608,186.675,128.608,186.675Z"
     id="path212"
     style="fill:#666666;fill-opacity:1" />
  <path
     class="b"
     d="M129.751,188.449c-1.527-1.746-1.4-1.576-1.441-1.692a.307.307,0,0,1,.054-.274c.152.119.295.231,0,0,3.108-4.089,7.3-6.59,9.69-8.32,1.057-.8,2.558-2.357,3.722-2.04a3.574,3.574,0,0,1,1.343.836,29.232,29.232,0,0,1,4.471,6.414,9.414,9.414,0,0,0,1.094,1.84c.152.17.158.219.668.3,1.817.263,2.474-.278,5.3,1.341a13.408,13.408,0,0,1,2.023,1.424,5.493,5.493,0,0,1,1.473,1.776c.064.5-.215.794-.682,1a4.544,4.544,0,0,1-2.234.115,22.192,22.192,0,0,0-3.34.347,49.82,49.82,0,0,0,1.022,5.465c.423,2.111.812,5.265,1.225,8.29a38.331,38.331,0,0,1,.694,5.951c-.107,3.265-2.007,4.111-3.545,3.36-2.159-1.121-3.113-4.357-3.741-6.461a2.543,2.543,0,0,1-.284.262c-2.4,1.9-4.465-.541-5.577-3.391l-.042.049a3.2,3.2,0,0,1-2.509.989c-1.207-.155-1.8-1.267-2.195-2.405a21.8,21.8,0,0,1-1.2-6.58,3.636,3.636,0,0,0,.039-1.449l0,.007C135.551,195.113,130.076,188.822,129.751,188.449Zm16.53,8.524c.195,0,.434,1.235.568,1.791,1.631,7.08-.179-.586,1.141,4.663a40.9,40.9,0,0,0,1.693,6.241,7.986,7.986,0,0,0,1.329,2.639c.611.769,1.334,1.41,1.871.606.808-1.255.161-4.43-.062-5.906-.9-6.111-.625-6-1.936-12.255a25.959,25.959,0,0,1-.458-2.822,2.228,2.228,0,0,1,.1-1.138c.278-.641.814-.706,1.559-.8a17.267,17.267,0,0,1,3.171-.281c1,.052,1.008.15.885.025a11.708,11.708,0,0,0-4.12-2.581,7.77,7.77,0,0,0-2.144-.249c-3.043-.259-2.121-1.389-5.229-6.149-.611-.93-2.124-3.3-3.181-3.619l-.033-.009h0c-.618.017-2.188,1.346-2.694,1.729-1.161.86-6.239,3.609-9.713,7.807,1.756,1.888,5.106,5.535,6.85,7.577.654.77.944.976.917,1.959a7.341,7.341,0,0,0,.105,2.713,20.922,20.922,0,0,0,1.345,4.919c.214.445.565.982,1.061,1.015a2.062,2.062,0,0,0,1.345-.559c.6-.625,0-1.505-.08-3.183a.665.665,0,0,1,.293-.61h0a.684.684,0,0,1,1,.293,5.819,5.819,0,0,1,.353,1.123,16.281,16.281,0,0,0,.457,1.76c.41,1.2,1.6,3.881,2.862,3.916a1.437,1.437,0,0,0,.94-.477c.749-.864.18-2.3-.083-3.42-1.336-5.715-.783-3.515-1.278-5.553-.2-.787-.082-.667-.082-.82a.765.765,0,0,1,1.255-.344Zm5.395-5.406h0Zm-2.822-6.179.007,0-.007,0Zm.007,0-.011-.006Zm0,0-.007-.006Zm0,0-.009-.006Zm-7.406-8.255-.011,0h0Zm0,0h-.013Zm-.007,0h0Zm-.009,0h0Zm0,0Z"
     id="path214" />
  <path
     class="a payments-asset-money-sign"
     d="m 249.63,146.774 c -8.777,-14.959 -27.776,-14.6 -31.727,-14.055 -4.676,0.644 -9.7,1.526 -13.781,4.029 a 29.2,29.2 0 0 0 -9.481,8.957 34.378,34.378 0 0 0 -5.464,12.8 c -3.044,17.851 12.456,31.241 28.417,34.7 3.418,0.741 6.586,0.212 9.99,-0.187 7.049,-0.826 14.8,-3.354 19.387,-9.023 8.244,-10.195 11.052,-22.916 2.659,-37.221 z"
     id="path216"
     style="fill:#ffcc00;fill-opacity:1;fill-rule:evenodd"
     inkscape:connector-curvature="0" />
  <path
     class="b payments-asset-money-sign"
     d="m 227.583,132.458 c 9.591,1.531 17.616,6 22.444,14.375 v 0 c 7.819,13.2 6.57,26.347 -2.661,37.707 -4.2,5.169 -10.933,7.775 -17.494,8.9 -9.024,1.49 -11.437,0.855 -14.91,-0.1 a 43.571,43.571 0 0 1 -11.4,-5.043 c -14.5,-9.172 -20.364,-24.609 -10.935,-40.773 a 30.141,30.141 0 0 1 10.944,-11.262 24.623,24.623 0 0 1 6.827,-2.814 40.041,40.041 0 0 1 17.185,-0.99 z m -14.881,1.8 a 25.524,25.524 0 0 0 -11.859,5.669 32.723,32.723 0 0 0 -9.03,12.5 c -6.941,16.236 2.957,31.456 19.411,38.022 a 34.669,34.669 0 0 0 8.565,2.3 c 3.015,0.253 9.054,-0.608 11.159,-1.016 10.611,-2.1 15.314,-6.643 19.311,-13.643 5.78,-10.212 5.05,-20.734 -0.9,-31.164 v 0 C 245.018,139.711 238.07,135.67 229.791,133.951 A 37.825,37.825 0 0 0 212.7,134.26 Z m 37.324,12.573 v 0 l -0.029,-0.048 z"
     id="path218"
     inkscape:connector-curvature="0"
     style="fill:#212121;fill-rule:evenodd" />
  <path
     class="a payments-asset-money-sign"
     d="m 246.7,150.047 c -7.6,-12.251 -24.057,-11.957 -27.479,-11.511 -4.05,0.528 -8.4,1.25 -11.936,3.3 a 24.769,24.769 0 0 0 -8.212,7.336 27.376,27.376 0 0 0 -4.732,10.481 c -2.636,14.619 10.789,25.586 24.613,28.418 2.96,0.607 5.7,0.174 8.652,-0.153 6.105,-0.676 12.819,-2.747 16.791,-7.39 7.141,-8.347 9.573,-18.765 2.303,-30.481 z"
     id="path220"
     style="fill:#ffe680;fill-opacity:1;fill-rule:evenodd"
     inkscape:connector-curvature="0" />
  <path
     class="b"
     d="M228.7,138.489c7.545,1.361,14.24,4.88,18.337,11.6a38.91,38.91,0,0,1,1.918,3.494,23.309,23.309,0,0,1,1.59,17.084,28.449,28.449,0,0,1-7.448,11.953c-5.14,4.477-12.328,5.792-19.1,6.317a19.065,19.065,0,0,1-7.312-.735c-14.252-3.787-26.15-15.458-22.751-29.739a29.7,29.7,0,0,1,7.38-12.907,27.034,27.034,0,0,1,7.173-5,29.777,29.777,0,0,1,7.565-2.106A34.04,34.04,0,0,1,228.7,138.489Zm-17.71,2.328c-6.085,2.106-11.668,7.206-14.775,14.783-5.184,12.724,2.992,24.308,16.128,29.774a35.126,35.126,0,0,0,8.052,2.27c3.012.31,8.642-.494,10.565-.871,8.659-1.719,12.575-5.2,15.925-10.469,5.486-8.671,4.788-17.5-.407-26.118h0C239.455,139.156,223.365,136.638,210.99,140.817Zm36.046,9.273h0l-.028-.043Z"
     id="path222" />
  <path
     class="a"
     d="M231.636,156.109c-.4-7.677-14.931-9.642-15.633-.563-.307,3.967,3.155,6.19,6.559,7.176,4.89,1.417,11.331,3.773,9.984,8.656-2.746,9.951-19.836,6.336-18.483-.856"
     id="path224"
     style="fill:#ffe680;fill-opacity:1" />
  <path
     class="b"
     d="M222.853,148.613c4.534.045,9.18,2.949,9.254,7.47l-.445.5c-.749-.67-.349-.148-.66-1.358-1.324-4.737-8.769-6.31-12.238-3.267a5.429,5.429,0,0,0-1.46,5.421,5.5,5.5,0,0,0,2.312,2.783c1.8,1.185,3.237,1.364,5.815,2.24,4.239,1.447,8.907,3.862,8.407,8.329a8.817,8.817,0,0,1-1.526,3.784c-5.333,7.52-20.314,3.091-18.707-4.074l.542-.376c.432.629.378.49.354.7-.608,6.1,13.682,8.727,16.671,1.139a3.434,3.434,0,0,0-.215-3.611c-2.09-2.848-8.047-4.122-10.086-4.914-6.023-2.37-5.9-6.529-5.964-6.645C214.524,152.391,217.511,148.613,222.853,148.613Z"
     id="path226" />
  <path
     class="a"
     d="M224.221,144.568c-.007,5.813-1.332,29.989-1.592,37.262"
     id="path228" />
  <path
     class="b"
     d="M224.692,144.57c.58,7.587.085,17.292-.362,24.925-.191,2.9-.305,4.53-1.236,12.352l-.482.453-.448-.487c-.234-5.2-.2-9.269-.106-12.428.657-17.179,1.232-19.257,1.692-24.818l.473-.47Z"
     id="path230" />
  <path
     class="a"
     d="M62.363,250.318s-8.377-.171-10.469-3.564c-5.042-8.174,14.857-13.121,19.979-4.834a4.092,4.092,0,0,1-.375,4.517C69.485,249.235,65.518,249.851,62.363,250.318Z"
     id="path232"
     style="fill:#ffe680" />
  <path
     class="b"
     d="M62.33,250.632a25.1,25.1,0,0,1-7.156-1c-2.233-.736-3.8-1.773-4.529-3.937-2.52-7.451,12.99-11.914,19.943-6.327,4.69,3.768,2.352,8.759-3.313,10.41A32.829,32.829,0,0,1,62.33,250.632Zm.283-.676c3.137-.584,7-1.419,8.565-4.209h0a3.739,3.739,0,0,0,.485-2.348,5.43,5.43,0,0,0-2.3-3.056h0c-6.222-4.377-20.714-.59-16.936,6.022,1.125,1.933,4.54,2.818,6.731,3.229A17.731,17.731,0,0,0,62.613,249.956Z"
     id="path234" />
  <path
     class="a"
     d="M106.83,287.992s-8.376-.17-10.469-3.564c-5.042-8.173,14.857-13.121,19.979-4.834a4.1,4.1,0,0,1-.374,4.518C113.952,286.91,109.985,287.526,106.83,287.992Z"
     id="path236"
     style="fill:#ffe680;fill-opacity:1" />
  <path
     class="b"
     d="M106.8,288.306a25.068,25.068,0,0,1-7.156-.994c-2.233-.737-3.8-1.773-4.528-3.937-2.52-7.451,12.99-11.914,19.943-6.328,4.689,3.768,2.351,8.76-3.314,10.41A32.808,32.808,0,0,1,106.8,288.306Zm.284-.675c3.137-.584,7-1.42,8.565-4.21h0a3.737,3.737,0,0,0,.484-2.348,5.426,5.426,0,0,0-2.3-3.055h0c-6.222-4.378-20.714-.59-16.936,6.022,1.125,1.933,4.54,2.817,6.73,3.228A17.665,17.665,0,0,0,107.081,287.631Z"
     id="path238" />
  <path
     class="a"
     d="M31.777,284.9s-8.376-.171-10.468-3.564c-5.042-8.174,14.857-13.122,19.979-4.834a4.092,4.092,0,0,1-.375,4.517C38.9,283.819,34.933,284.435,31.777,284.9Z"
     id="path240"
     style="fill:#ffe680;fill-opacity:1" />
  <path
     class="b"
     d="M31.745,285.216a25.1,25.1,0,0,1-7.156-1c-2.233-.736-3.8-1.773-4.529-3.937C17.54,272.833,33.05,268.37,40,273.956c4.69,3.768,2.352,8.76-3.313,10.41A32.746,32.746,0,0,1,31.745,285.216Zm.283-.676c3.137-.584,7-1.42,8.565-4.21h0a3.737,3.737,0,0,0,.485-2.347,5.43,5.43,0,0,0-2.3-3.056h0c-6.222-4.377-20.714-.59-16.936,6.022,1.125,1.933,4.54,2.817,6.731,3.229A17.731,17.731,0,0,0,32.028,284.54Z"
     id="path242" />
  <path
     class="a"
     d="M178.329,290.89s-8.376-.171-10.469-3.564c-5.042-8.174,14.857-13.121,19.979-4.834a4.092,4.092,0,0,1-.374,4.517C185.452,289.807,181.484,290.423,178.329,290.89Z"
     id="path244"
     style="fill:#ffe680;fill-opacity:1" />
  <path
     class="b"
     d="M178.3,291.2a25.1,25.1,0,0,1-7.155-1c-2.234-.736-3.8-1.773-4.529-3.937-2.52-7.451,12.99-11.914,19.943-6.327,4.689,3.768,2.351,8.759-3.314,10.409A32.725,32.725,0,0,1,178.3,291.2Zm.284-.676c3.137-.584,7-1.42,8.565-4.209h0a3.747,3.747,0,0,0,.485-2.348,5.434,5.434,0,0,0-2.3-3.056h0c-6.222-4.377-20.714-.59-16.936,6.022,1.125,1.933,4.54,2.817,6.731,3.229A17.723,17.723,0,0,0,178.58,290.528Z"
     id="path246" />
  <path
     class="a"
     d="M176.413,96.948c4.132,2.106,9.406,2,13.757.668-1.133,2.664-2.347,5.294-3.71,7.864-.8,1.507-2.192,6.359-4.04,6.854-.025.007-.784-2.515-.836-2.665C180.128,105.441,180.154,106.532,176.413,96.948Z"
     id="path248" />
  <path
     class="b"
     d="M176.553,96.671l0,0c4.06,1.852,8.925,1.592,13.222.309a.783.783,0,0,1,.891.108c.339.378.248.637.068,1.069-2.349,5.632-3.311,6.948-4.02,8.657a24.868,24.868,0,0,1-2.333,4.855c-.513.7-1.442,1.635-2.258,1.372-.1-.1-.276-.077-.43-.459-.019-.052-.78-2.6-1.158-3.7-1.225-3.524-1.638-3.883-3.345-8.74-1.194-3.394-1.177-3.218-.987-3.422A.3.3,0,0,1,176.553,96.671Zm6.568,15.367,0,0ZM177.136,97.83c3.29,7.567,3.22,6.763,4.462,9.807,1.451,3.612,1.069,3.716,1.369,3.343a16.445,16.445,0,0,0,1.853-3.636c1.291-3.19,1.715-3.377,4.081-8.663a20.183,20.183,0,0,1-8.751.028C176.984,97.943,176.891,97.268,177.136,97.83Z"
     id="path250" />
  <path
     class="a"
     d="M190.17,97.616a8.525,8.525,0,0,0,3.342-1.755c3.145-2.955,5.319-10.371,5.139-13.38a76.6,76.6,0,0,1,7.514,1.508c-.773,7.274-2.536,15.366-7.526,20.676-1.231,1.31-2.924,4.076-4.883,4.314-.615.075-1.549-2.49-1.868-2.951a25.793,25.793,0,0,0-3.563-4.284C188.969,100.38,189.58,99,190.17,97.616Z"
     id="path252"
     style="fill:#fa84bf;fill-opacity:1" />
  <path
     class="b"
     d="M198.766,81.777c3.065.471,4.252.707,5.935,1.08,2.578.587,2.37.254,1.987,3.235-.654,5.118-1.887,10.446-4.455,14.944a22.481,22.481,0,0,1-3.331,4.443c-1.336,1.539-2.839,3.717-4.834,4.111a1.1,1.1,0,0,1-1.22-.456,12.743,12.743,0,0,1-1.29-2.5,6.091,6.091,0,0,0-.715-1.136c-2.334-3.353-2.895-3.246-2.949-3.738.009-.182-.041-.015.666-1.461,1.479-3.032,1.276-2.88,1.518-2.978v0a9.908,9.908,0,0,0,2.322-1.088c2.417-1.633,3.94-5.621,4.721-8.439,1.429-5.21.419-5.26,1.1-5.874A.725.725,0,0,1,198.766,81.777ZM193.9,108.382l-.013-.011.018.013-.015-.011.014.008-.018-.011.011,0-.016-.008Zm-.021-.017h0ZM196.735,92.1c-1.967,3.878-3.743,5-6.23,5.751-.221.064.123-.317-1.659,3.784a25.157,25.157,0,0,1,3.3,3.79c.615.839,1.215,2.43,1.673,2.886,1.392-.335,2.787-2.37,3.767-3.562a28.434,28.434,0,0,0,2.112-2.574c3.407-4.805,4.866-11.312,5.575-17.11,0-.025.058-.475.06-.5-1.666-.475-5.225-1.1-5.993-1.237A26.077,26.077,0,0,1,196.735,92.1Z"
     id="path254" />
  <path
     class="a"
     d="M168.717,80.414c.473-.028.561,3.245.636,3.9a22.558,22.558,0,0,0,1.543,6.969,12.106,12.106,0,0,0,5.517,5.669c.638,1.634,1.268,3.272,1.937,4.9-.7,1.194-5.08,8.586-6.787,9.2-.627.225-2.418-2.019-2.783-2.4-4.8-5.073-7.614-13-7.9-19.621a63.59,63.59,0,0,1-.09-7.791C163.256,80.846,166.188,80.564,168.717,80.414Z"
     id="path256"
     style="fill:#fa84bf;fill-opacity:1" />
  <path
     class="b"
     d="M171.777,91.719A11.547,11.547,0,0,0,176.121,96c1.221.687.48-.32,2.786,5.257.318.765.472.44-1.805,4.075-.956,1.516-3.3,5.177-4.777,6.172a1.335,1.335,0,0,1-1.636.086,6.3,6.3,0,0,1-1.17-.979c-.417-.425-2.014-2.209-2.485-2.781a32.776,32.776,0,0,1-6.739-17.442c-.084-1.168-.36-8.89.1-9.469.143-.181.067-.213,3.02-.486,3.884-.347,5.191-.282,5.293-.336C170.14,80.061,169.092,87.069,171.777,91.719Zm-10.5-10.069a68.027,68.027,0,0,0,.668,10.708,35.826,35.826,0,0,0,3.18,9.65,25.162,25.162,0,0,0,4.275,6.148,14.651,14.651,0,0,0,2.047,2.077c1.6-1.083,5.1-6.815,6.086-8.453-1.972-4.948-1.479-4.226-1.991-4.52-8.077-4.783-6.055-14.177-6.926-16.526C165.978,80.982,163.917,81.2,161.272,81.65Zm7.426-.923h.029v0Z"
     id="path258" />
  <path
     class="a"
     d="M241.944,244.853l1.077.51.406,1.12c-.313,3.022-.288,9.231-1.521,16.335-.4,2.256-.953,4.532-1.1,5.033l-.279.4-.446.1h-.008l-.373-.262c-.381-1.631.424,1.322.509-13.006.005-.952.058-8.32.1-8.743l.51-1.077,1.12-.406Z"
     id="path260" />
  <path
     style="fill:#fda4d1;fill-opacity:1;stroke-width:0.0852906"
     d="m 119.78669,248.74707 c -0.002,-4.98343 0.0336,-6.50801 0.25269,-10.61596 0.14094,-2.6433 0.30966,-3.48792 0.76491,-3.8292 0.28468,-0.21341 0.64018,-0.21163 1.34296,0.006 0.84398,0.26223 1.4533,0.60084 2.48278,1.37979 0.80864,0.61183 0.92619,0.73181 0.88187,0.9001 -0.11565,0.43914 -1.21434,5.43285 -1.75307,7.96806 -0.57079,2.68599 -0.58197,2.72431 -0.88619,3.03909 -0.38669,0.40008 -0.76296,1.15222 -1.34351,2.68555 -0.50464,1.33278 -0.9484,2.33374 -1.42397,3.21184 l -0.31567,0.58284 z"
     id="path1075"
     inkscape:connector-curvature="0" />
  <path
     inkscape:connector-curvature="0"
     class="a"
     d="m 111.97801,172.25524 1.077,1.15836 0.406,2.54385 c -0.313,6.86385 -0.288,20.96632 -1.521,37.1016 -0.4,5.12404 -0.953,10.2935 -1.1,11.43142 l -0.279,0.90852 -0.446,0.22713 h -0.008 l -0.373,-0.59508 c -0.381,-3.70448 0.424,3.00265 0.509,-29.54046 0.005,-2.16227 0.058,-18.89717 0.1,-19.85793 l 0.51,-2.44618 1.12,-0.92215 z"
     id="path260-3"
     style="fill:#ffffff;fill-rule:evenodd;stroke-width:1.50708151" />
</svg>
