<?xml version="1.0" encoding="UTF-8" standalone="no"?>
<!-- Generator: Adobe Illustrator 19.0.0, SVG Export Plug-In . SVG Version: 6.00 Build 0)  -->

<svg
   xmlns:dc="http://purl.org/dc/elements/1.1/"
   xmlns:cc="http://creativecommons.org/ns#"
   xmlns:rdf="http://www.w3.org/1999/02/22-rdf-syntax-ns#"
   xmlns:svg="http://www.w3.org/2000/svg"
   xmlns="http://www.w3.org/2000/svg"
   xmlns:sodipodi="http://sodipodi.sourceforge.net/DTD/sodipodi-0.dtd"
   xmlns:inkscape="http://www.inkscape.org/namespaces/inkscape"
   version="1.1"
   id="Capa_1"
   x="0px"
   y="0px"
   viewBox="0 0 63.999998 63.999998"
   xml:space="preserve"
   sodipodi:docname="home.svg"
   width="64"
   height="64"
   inkscape:version="0.92.5 (2060ec1f9f, 2020-04-08)"><metadata
   id="metadata39"><rdf:RDF><cc:Work
       rdf:about=""><dc:format>image/svg+xml</dc:format><dc:type
         rdf:resource="http://purl.org/dc/dcmitype/StillImage" /><dc:title /></cc:Work></rdf:RDF></metadata><defs
   id="defs37" /><sodipodi:namedview
   pagecolor="#ffffff"
   bordercolor="#666666"
   borderopacity="1"
   objecttolerance="10"
   gridtolerance="10"
   guidetolerance="10"
   inkscape:pageopacity="0"
   inkscape:pageshadow="2"
   inkscape:window-width="1920"
   inkscape:window-height="1019"
   id="namedview35"
   showgrid="false"
   inkscape:zoom="11.436799"
   inkscape:cx="36.939827"
   inkscape:cy="31.201284"
   inkscape:window-x="0"
   inkscape:window-y="29"
   inkscape:window-maximized="1"
   inkscape:current-layer="Capa_1" />
<path
   d="M 61.431757,29.382698 31.99956,2.0531686 2.5683903,29.382698 c -0.4145814,0.385848 -0.43921,1.035428 -0.053362,1.451034 0.3837956,0.414582 1.0354272,0.438184 1.4500085,0.05336 l 3.4059293,-3.16272 V 61.946831 H 23.790029 40.209092 56.628155 V 27.723347 l 3.405929,3.162721 c 0.197029,0.183688 0.448446,0.273994 0.698837,0.273994 0.276045,0 0.550039,-0.109803 0.751172,-0.327355 0.386874,-0.414581 0.362245,-1.064161 -0.05233,-1.450009 z M 25.842412,59.894448 V 43.475385 c 0,-3.395668 2.761481,-6.157148 6.157148,-6.157148 3.395668,0 6.157149,2.76148 6.157149,6.157148 v 16.419063 z m 28.73336,0 H 40.209092 V 43.475385 c 0,-4.52653 -3.683001,-8.209531 -8.209532,-8.209531 -4.52653,0 -8.209531,3.683001 -8.209531,8.209531 V 59.894448 H 9.423349 V 25.817709 L 31.99956,4.8536451 54.575772,25.817709 Z"
   id="path2"
   inkscape:connector-curvature="0"
   style="stroke-width:1.02619147" />
<g
   id="g4"
   transform="matrix(0.93583848,0,0,0.93583848,2.0531685,7.3266169)">
</g>
<g
   id="g6"
   transform="matrix(0.93583848,0,0,0.93583848,2.0531685,7.3266169)">
</g>
<g
   id="g8"
   transform="matrix(0.93583848,0,0,0.93583848,2.0531685,7.3266169)">
</g>
<g
   id="g10"
   transform="matrix(0.93583848,0,0,0.93583848,2.0531685,7.3266169)">
</g>
<g
   id="g12"
   transform="matrix(0.93583848,0,0,0.93583848,2.0531685,7.3266169)">
</g>
<g
   id="g14"
   transform="matrix(0.93583848,0,0,0.93583848,2.0531685,7.3266169)">
</g>
<g
   id="g16"
   transform="matrix(0.93583848,0,0,0.93583848,2.0531685,7.3266169)">
</g>
<g
   id="g18"
   transform="matrix(0.93583848,0,0,0.93583848,2.0531685,7.3266169)">
</g>
<g
   id="g20"
   transform="matrix(0.93583848,0,0,0.93583848,2.0531685,7.3266169)">
</g>
<g
   id="g22"
   transform="matrix(0.93583848,0,0,0.93583848,2.0531685,7.3266169)">
</g>
<g
   id="g24"
   transform="matrix(0.93583848,0,0,0.93583848,2.0531685,7.3266169)">
</g>
<g
   id="g26"
   transform="matrix(0.93583848,0,0,0.93583848,2.0531685,7.3266169)">
</g>
<g
   id="g28"
   transform="matrix(0.93583848,0,0,0.93583848,2.0531685,7.3266169)">
</g>
<g
   id="g30"
   transform="matrix(0.93583848,0,0,0.93583848,2.0531685,7.3266169)">
</g>
<g
   id="g32"
   transform="matrix(0.93583848,0,0,0.93583848,2.0531685,7.3266169)">
</g>
<title
   id="title827">Home</title></svg>