<?xml version="1.0" encoding="UTF-8" standalone="no"?>
<svg
   xmlns:dc="http://purl.org/dc/elements/1.1/"
   xmlns:cc="http://creativecommons.org/ns#"
   xmlns:rdf="http://www.w3.org/1999/02/22-rdf-syntax-ns#"
   xmlns:svg="http://www.w3.org/2000/svg"
   xmlns="http://www.w3.org/2000/svg"
   xmlns:sodipodi="http://sodipodi.sourceforge.net/DTD/sodipodi-0.dtd"
   xmlns:inkscape="http://www.inkscape.org/namespaces/inkscape"
   version="1.1"
   id="Capa_1"
   x="0px"
   y="0px"
   viewBox="0 0 64 64"
   xml:space="preserve"
   sodipodi:docname="log-out.svg"
   width="64"
   height="64"
   inkscape:version="0.92.5 (2060ec1f9f, 2020-04-08)"><metadata
     id="metadata43"><rdf:RDF><cc:Work
         rdf:about=""><dc:format>image/svg+xml</dc:format><dc:type
           rdf:resource="http://purl.org/dc/dcmitype/StillImage" /><dc:title></dc:title></cc:Work></rdf:RDF></metadata><defs
     id="defs41" /><sodipodi:namedview
     pagecolor="#ffffff"
     bordercolor="#666666"
     borderopacity="1"
     objecttolerance="10"
     gridtolerance="10"
     guidetolerance="10"
     inkscape:pageopacity="0"
     inkscape:pageshadow="2"
     inkscape:window-width="1920"
     inkscape:window-height="1019"
     id="namedview39"
     showgrid="false"
     inkscape:zoom="4.2909091"
     inkscape:cx="3.7288136"
     inkscape:cy="27.5"
     inkscape:window-x="0"
     inkscape:window-y="29"
     inkscape:window-maximized="1"
     inkscape:current-layer="Capa_1" /><g
     id="g6"
     transform="translate(4.499625,4.5)">
	<path
   d="m 53.924,24.382 c 0.101,-0.244 0.101,-0.519 0,-0.764 -0.051,-0.123 -0.125,-0.234 -0.217,-0.327 L 41.708,11.293 c -0.391,-0.391 -1.023,-0.391 -1.414,0 -0.391,0.391 -0.391,1.023 0,1.414 L 50.587,23 H 29.001 c -0.553,0 -1,0.447 -1,1 0,0.553 0.447,1 1,1 H 50.587 L 40.294,35.293 c -0.391,0.391 -0.391,1.023 0,1.414 0.195,0.195 0.451,0.293 0.707,0.293 0.256,0 0.512,-0.098 0.707,-0.293 L 53.707,24.708 c 0.092,-0.092 0.166,-0.203 0.217,-0.326 z"
   id="path2"
   inkscape:connector-curvature="0" />
	<path
   d="m 36.001,29 c -0.553,0 -1,0.447 -1,1 v 16 h -10 V 8 c 0,-0.436 -0.282,-0.821 -0.697,-0.953 L 8.442,2 h 26.559 v 16 c 0,0.553 0.447,1 1,1 0.553,0 1,-0.447 1,-1 V 1 c 0,-0.553 -0.447,-1 -1,-1 h -34 C 1.969,0 1.941,0.015 1.91,0.018 1.854,0.023 1.805,0.036 1.752,0.05 1.658,0.075 1.574,0.109 1.493,0.158 1.467,0.174 1.436,0.174 1.411,0.192 1.38,0.215 1.356,0.244 1.328,0.269 1.311,0.285 1.293,0.299 1.277,0.316 1.201,0.398 1.139,0.489 1.093,0.589 1.084,0.609 1.079,0.629 1.071,0.649 1.029,0.761 1.001,0.878 1.001,1 v 46 c 0,0.125 0.029,0.243 0.072,0.355 0.014,0.037 0.035,0.068 0.053,0.103 0.037,0.071 0.079,0.136 0.132,0.196 0.029,0.032 0.058,0.061 0.09,0.09 0.058,0.051 0.123,0.093 0.193,0.13 0.037,0.02 0.071,0.041 0.111,0.056 0.017,0.006 0.03,0.018 0.047,0.024 l 22,7 c 0.098,0.03 0.2,0.046 0.302,0.046 0.21,0 0.417,-0.066 0.59,-0.192 0.258,-0.188 0.41,-0.488 0.41,-0.808 v -6 h 11 c 0.553,0 1,-0.447 1,-1 V 30 c 0,-0.553 -0.448,-1 -1,-1 z m -13,23.633 -20,-6.364 V 2.367 l 20,6.364 z"
   id="path4"
   inkscape:connector-curvature="0" />
</g><title
     id="title4782">Log out</title></svg>