<?xml version="1.0" encoding="UTF-8" standalone="no"?>
<!-- Generator: Adobe Illustrator 19.0.0, SVG Export Plug-In . SVG Version: 6.00 Build 0)  -->

<svg
   xmlns:dc="http://purl.org/dc/elements/1.1/"
   xmlns:cc="http://creativecommons.org/ns#"
   xmlns:rdf="http://www.w3.org/1999/02/22-rdf-syntax-ns#"
   xmlns:svg="http://www.w3.org/2000/svg"
   xmlns="http://www.w3.org/2000/svg"
   xmlns:sodipodi="http://sodipodi.sourceforge.net/DTD/sodipodi-0.dtd"
   xmlns:inkscape="http://www.inkscape.org/namespaces/inkscape"
   version="1.1"
   id="Capa_1"
   x="0px"
   y="0px"
   viewBox="0 0 63.999998 63.999998"
   xml:space="preserve"
   sodipodi:docname="love.svg"
   width="64"
   height="64"
   inkscape:version="0.92.5 (2060ec1f9f, 2020-04-08)"><metadata
   id="metadata43"><rdf:RDF><cc:Work
       rdf:about=""><dc:format>image/svg+xml</dc:format><dc:type
         rdf:resource="http://purl.org/dc/dcmitype/StillImage" /><dc:title></dc:title></cc:Work></rdf:RDF></metadata><defs
   id="defs41" /><sodipodi:namedview
   pagecolor="#ffffff"
   bordercolor="#666666"
   borderopacity="1"
   objecttolerance="10"
   gridtolerance="10"
   guidetolerance="10"
   inkscape:pageopacity="0"
   inkscape:pageshadow="2"
   inkscape:window-width="1920"
   inkscape:window-height="1019"
   id="namedview39"
   showgrid="false"
   inkscape:zoom="4.5387232"
   inkscape:cx="6.7839898"
   inkscape:cy="39.563995"
   inkscape:window-x="0"
   inkscape:window-y="29"
   inkscape:window-maximized="1"
   inkscape:current-layer="Capa_1" />
<g
   id="g6"
   transform="translate(6.0014086,6.0015)">
	<path
   d="M 51.911,16.242 C 51.152,7.888 45.239,1.827 37.839,1.827 32.909,1.827 28.395,4.48 25.855,8.732 23.338,4.425 19.009,1.826 14.158,1.826 6.759,1.826 0.845,7.887 0.087,16.241 c -0.06,0.369 -0.306,2.311 0.442,5.478 1.078,4.568 3.568,8.723 7.199,12.013 L 25.843,50.171 44.269,33.733 c 3.631,-3.291 6.121,-7.445 7.199,-12.014 0.748,-3.166 0.502,-5.108 0.443,-5.477 z m -2.39,5.019 c -0.984,4.172 -3.265,7.973 -6.59,10.985 L 25.855,47.481 9.072,32.25 C 5.741,29.232 3.461,25.432 2.476,21.26 1.768,18.263 2.059,16.57 2.06,16.559 L 2.075,16.458 C 2.725,9.139 7.806,3.826 14.158,3.826 c 4.687,0 8.813,2.88 10.771,7.515 l 0.921,2.183 0.921,-2.183 c 1.927,-4.564 6.271,-7.514 11.069,-7.514 6.351,0 11.433,5.313 12.096,12.727 0.002,0.016 0.293,1.71 -0.415,4.707 z"
   id="path2"
   inkscape:connector-curvature="0" />
	<path
   d="m 15.999,7.904 c -5.514,0 -10,4.486 -10,10 0,0.553 0.447,1 1,1 0.553,0 1,-0.447 1,-1 0,-4.411 3.589,-8 8,-8 0.553,0 1,-0.447 1,-1 0,-0.553 -0.448,-1 -1,-1 z"
   id="path4"
   inkscape:connector-curvature="0" />
</g>
<g
   id="g8"
   transform="translate(0,12.002998)">
</g>
<g
   id="g10"
   transform="translate(0,12.002998)">
</g>
<g
   id="g12"
   transform="translate(0,12.002998)">
</g>
<g
   id="g14"
   transform="translate(0,12.002998)">
</g>
<g
   id="g16"
   transform="translate(0,12.002998)">
</g>
<g
   id="g18"
   transform="translate(0,12.002998)">
</g>
<g
   id="g20"
   transform="translate(0,12.002998)">
</g>
<g
   id="g22"
   transform="translate(0,12.002998)">
</g>
<g
   id="g24"
   transform="translate(0,12.002998)">
</g>
<g
   id="g26"
   transform="translate(0,12.002998)">
</g>
<g
   id="g28"
   transform="translate(0,12.002998)">
</g>
<g
   id="g30"
   transform="translate(0,12.002998)">
</g>
<g
   id="g32"
   transform="translate(0,12.002998)">
</g>
<g
   id="g34"
   transform="translate(0,12.002998)">
</g>
<g
   id="g36"
   transform="translate(0,12.002998)">
</g>
</svg>