<?xml version="1.0" encoding="UTF-8" standalone="no"?>
<svg
   xmlns:dc="http://purl.org/dc/elements/1.1/"
   xmlns:cc="http://creativecommons.org/ns#"
   xmlns:rdf="http://www.w3.org/1999/02/22-rdf-syntax-ns#"
   xmlns:svg="http://www.w3.org/2000/svg"
   xmlns="http://www.w3.org/2000/svg"
   xmlns:sodipodi="http://sodipodi.sourceforge.net/DTD/sodipodi-0.dtd"
   xmlns:inkscape="http://www.inkscape.org/namespaces/inkscape"
   version="1.1"
   id="Capa_1"
   x="0px"
   y="0px"
   viewBox="0 0 64 64"
   xml:space="preserve"
   sodipodi:docname="register.svg"
   width="64"
   height="64"
   inkscape:version="0.92.5 (2060ec1f9f, 2020-04-08)"><metadata
     id="metadata61"><rdf:RDF><cc:Work
         rdf:about=""><dc:format>image/svg+xml</dc:format><dc:type
           rdf:resource="http://purl.org/dc/dcmitype/StillImage" /><dc:title /></cc:Work></rdf:RDF></metadata><defs
     id="defs59" /><sodipodi:namedview
     pagecolor="#ffffff"
     bordercolor="#666666"
     borderopacity="1"
     objecttolerance="10"
     gridtolerance="10"
     guidetolerance="10"
     inkscape:pageopacity="0"
     inkscape:pageshadow="2"
     inkscape:window-width="1920"
     inkscape:window-height="1019"
     id="namedview57"
     showgrid="false"
     inkscape:zoom="5.5625733"
     inkscape:cx="33.358382"
     inkscape:cy="35.361435"
     inkscape:window-x="0"
     inkscape:window-y="29"
     inkscape:window-maximized="1"
     inkscape:current-layer="Capa_1" /><g
     id="g24"
     transform="translate(2,2)">
	<path
   d="M 52.29,44.29 C 52.109,44.479 52,44.74 52,45 c 0,0.26 0.1,0.52 0.29,0.71 0.189,0.18 0.45,0.29 0.71,0.29 0.26,0 0.52,-0.11 0.71,-0.29 C 53.89,45.52 54,45.26 54,45 c 0,-0.26 -0.11,-0.521 -0.29,-0.71 -0.37,-0.36 -1.04,-0.37 -1.42,0 z"
   id="path2"
   inkscape:connector-curvature="0" />
	<path
   d="M 23.638,42.263 20,40.405 v -0.387 c 1.628,-0.889 2.773,-2.354 3.412,-4.365 C 24.381,35.14 25,34.14 25,33.018 v -1 c 0,-0.927 -0.431,-1.786 -1.151,-2.35 -0.624,-3.78 -3.262,-5.696 -7.849,-5.696 -0.217,0 -0.429,0.009 -0.636,0.025 -0.865,0.067 -2.129,-0.003 -3.224,-0.741 -0.41,-0.276 -0.719,-0.544 -0.917,-0.796 -0.336,-0.428 -0.901,-0.577 -1.401,-0.369 -0.501,0.206 -0.796,0.708 -0.733,1.248 0.042,0.372 0.105,0.808 0.2,1.285 0.193,0.975 0.193,0.975 -0.078,1.558 -0.102,0.221 -0.228,0.49 -0.376,0.853 -0.331,0.81 -0.566,1.697 -0.701,2.646 C 7.424,30.245 7,31.1 7,32.018 v 1 c 0,1.122 0.619,2.122 1.588,2.636 0.639,2.012 1.784,3.477 3.412,4.365 v 0.376 L 8.23,42.252 C 6.854,43.003 6,44.443 6,46.011 v 1.324 c 0,0.803 0,2.683 10,2.683 10,0 10,-1.88 10,-2.683 v -1.244 c 0,-1.63 -0.905,-3.097 -2.362,-3.828 z M 24,47.109 c -0.623,0.379 -3.161,0.908 -8,0.908 -4.839,0 -7.377,-0.529 -8,-0.908 V 46.01 c 0,-0.835 0.456,-1.603 1.151,-1.983 l 3.858,-1.9 C 13.611,41.833 14,41.21 14,40.539 V 38.735 L 13.396,38.474 C 11.879,37.822 10.893,36.575 10.381,34.66 L 10.238,34.128 9.712,33.964 C 9.293,33.834 9,33.444 9,33.018 v -1 c 0,-0.363 0.207,-0.699 0.541,-0.877 l 0.469,-0.25 0.055,-0.528 c 0.099,-0.939 0.308,-1.804 0.622,-2.57 0.133,-0.325 0.246,-0.568 0.338,-0.767 0.339,-0.729 0.462,-1.105 0.377,-1.876 1.175,0.672 2.587,0.959 4.122,0.842 0.155,-0.013 0.314,-0.02 0.477,-0.02 3.744,0 5.572,1.356 5.929,4.399 l 0.062,0.523 0.466,0.245 C 22.792,31.316 23,31.652 23,32.018 v 1 c 0,0.427 -0.293,0.816 -0.712,0.946 l -0.526,0.164 -0.143,0.532 c -0.512,1.915 -1.498,3.162 -3.015,3.814 L 18,38.735 v 1.812 c 0,0.666 0.369,1.27 0.964,1.575 l 3.768,1.924 0.007,0.004 C 23.517,44.439 24,45.222 24,46.091 Z"
   id="path4"
   inkscape:connector-curvature="0" />
	<path
   d="m 31,29.018 h 10 c 0.553,0 1,-0.447 1,-1 0,-0.553 -0.447,-1 -1,-1 H 31 c -0.553,0 -1,0.447 -1,1 0,0.553 0.447,1 1,1 z"
   id="path6"
   inkscape:connector-curvature="0" />
	<path
   d="m 32,44.018 h -1 c -0.553,0 -1,0.447 -1,1 0,0.553 0.447,1 1,1 h 1 c 0.553,0 1,-0.447 1,-1 0,-0.553 -0.447,-1 -1,-1 z"
   id="path8"
   inkscape:connector-curvature="0" />
	<path
   d="m 38,44.018 h -2 c -0.553,0 -1,0.447 -1,1 0,0.553 0.447,1 1,1 h 2 c 0.553,0 1,-0.447 1,-1 0,-0.553 -0.447,-1 -1,-1 z"
   id="path10"
   inkscape:connector-curvature="0" />
	<path
   d="m 43,44.018 h -1 c -0.553,0 -1,0.447 -1,1 0,0.553 0.447,1 1,1 h 1 c 0.553,0 1,-0.447 1,-1 0,-0.553 -0.447,-1 -1,-1 z"
   id="path12"
   inkscape:connector-curvature="0" />
	<path
   d="m 49,44.018 h -2 c -0.553,0 -1,0.447 -1,1 0,0.553 0.447,1 1,1 h 2 c 0.553,0 1,-0.447 1,-1 0,-0.553 -0.447,-1 -1,-1 z"
   id="path14"
   inkscape:connector-curvature="0" />
	<path
   d="M 53,33.018 H 31 c -0.553,0 -1,0.447 -1,1 0,0.553 0.447,1 1,1 h 22 c 0.553,0 1,-0.447 1,-1 0,-0.553 -0.447,-1 -1,-1 z"
   id="path16"
   inkscape:connector-curvature="0" />
	<path
   d="M 53,39.018 H 31 c -0.553,0 -1,0.447 -1,1 0,0.553 0.447,1 1,1 h 22 c 0.553,0 1,-0.447 1,-1 0,-0.553 -0.447,-1 -1,-1 z"
   id="path18"
   inkscape:connector-curvature="0" />
	<path
   d="M 55.322,14 H 37 V 6.313 C 37,5.037 35.963,4 34.687,4 H 25.312 C 24.037,4 23,5.037 23,6.313 V 14 H 4.678 C 2.099,14 0,16.099 0,18.678 V 51.323 C 0,53.901 2.099,56 4.678,56 H 55.323 C 57.901,56 60,53.901 60,51.322 V 18.678 C 60,16.099 57.901,14 55.322,14 Z M 25,6.313 C 25,6.141 25.141,6 25.312,6 h 9.375 C 34.859,6 35,6.141 35,6.313 V 14 19.688 C 35,19.859 34.859,20 34.687,20 H 25.312 C 25.141,20 25,19.859 25,19.688 V 14 Z M 58,51.322 C 58,52.799 56.799,54 55.322,54 H 4.678 C 3.201,54 2,52.799 2,51.322 V 18.678 C 2,17.201 3.201,16 4.678,16 H 23 v 3.688 C 23,20.963 24.037,22 25.312,22 h 9.375 C 35.963,22 37,20.963 37,19.688 V 16 H 55.322 C 56.799,16 58,17.201 58,18.678 Z"
   id="path20"
   inkscape:connector-curvature="0" />
	<path
   d="m 30,15 c 2.206,0 4,-1.794 4,-4 0,-2.206 -1.794,-4 -4,-4 -2.206,0 -4,1.794 -4,4 0,2.206 1.794,4 4,4 z m 0,-6 c 1.103,0 2,0.897 2,2 0,1.103 -0.897,2 -2,2 -1.103,0 -2,-0.897 -2,-2 0,-1.103 0.897,-2 2,-2 z"
   id="path22"
   inkscape:connector-curvature="0" />
</g><title
     id="title4770">Register</title></svg>