<?xml version="1.0" encoding="UTF-8" standalone="no"?>
<!-- Generator: Adobe Illustrator 19.0.0, SVG Export Plug-In . SVG Version: 6.00 Build 0)  -->

<svg
   version="1.1"
   id="Capa_1"
   x="0px"
   y="0px"
   viewBox="0 0 64 64"
   xml:space="preserve"
   sodipodi:docname="speaker-2.svg"
   width="64"
   height="64"
   inkscape:version="1.1.2 (0a00cf5339, 2022-02-04)"
   xmlns:inkscape="http://www.inkscape.org/namespaces/inkscape"
   xmlns:sodipodi="http://sodipodi.sourceforge.net/DTD/sodipodi-0.dtd"
   xmlns="http://www.w3.org/2000/svg"
   xmlns:svg="http://www.w3.org/2000/svg"
   xmlns:rdf="http://www.w3.org/1999/02/22-rdf-syntax-ns#"
   xmlns:cc="http://creativecommons.org/ns#"
   xmlns:dc="http://purl.org/dc/elements/1.1/"><metadata
   id="metadata47"><rdf:RDF><cc:Work
       rdf:about=""><dc:format>image/svg+xml</dc:format><dc:type
         rdf:resource="http://purl.org/dc/dcmitype/StillImage" /><dc:title /></cc:Work></rdf:RDF></metadata><defs
   id="defs45" /><sodipodi:namedview
   pagecolor="#ffffff"
   bordercolor="#666666"
   borderopacity="1"
   objecttolerance="10"
   gridtolerance="10"
   guidetolerance="10"
   inkscape:pageopacity="0"
   inkscape:pageshadow="2"
   inkscape:window-width="960"
   inkscape:window-height="1009"
   id="namedview43"
   showgrid="false"
   showguides="true"
   inkscape:guide-bbox="true"
   inkscape:zoom="4"
   inkscape:cx="19.375"
   inkscape:cy="46.75"
   inkscape:window-x="1920"
   inkscape:window-y="42"
   inkscape:window-maximized="0"
   inkscape:current-layer="g10"
   inkscape:pagecheckerboard="0"><sodipodi:guide
     position="32.033898,114.15254"
     orientation="1,0"
     id="guide854"
     inkscape:locked="false" /></sodipodi:namedview>
<g
   id="g10"
   transform="matrix(1.0666667,0,0,1.0666667,0,0.41966766)">
	<path
   d="m 27.496225,7.758 c -0.908969,-0.552 -1.98668,-0.534 -2.880733,0.044 -0.04288,0.027 -0.0839,0.059 -0.121195,0.093 L 11.86196,19.358 H 1.9481386 c -0.5155485,0 -0.9322758,0.447 -0.9322758,1 v 19 c 0,0.266 0.097889,0.52 0.2731569,0.707 0.1752678,0.187 0.4111336,0.293 0.6591189,0.293 l 9.8914464,-0.005 12.625811,12.44 c 0.04661,0.046 0.09696,0.086 0.150096,0.12 0.458681,0.297 0.966771,0.446 1.474861,0.446 0.481986,-0.001 0.963041,-0.134 1.405872,-0.402 0.931343,-0.564 1.487912,-1.594 1.487912,-2.756 V 10.514 c 0,-1.161 -0.556569,-2.191 -1.487912,-2.756 z m -0.37664,42.443 c 0,0.431 -0.202303,0.81 -0.539787,1.015 -0.144503,0.087 -0.510887,0.255 -0.932276,0.026 L 13.135449,38.913 v -4.556 c 0,-0.553 -0.416728,-1 -0.932276,-1 -0.515549,0 -0.932276,0.447 -0.932276,1 v 3.996 l -8.3904826,0.004 v -17 h 8.3904826 v 4 c 0,0.553 0.416727,1 0.932276,1 0.515548,0 0.932276,-0.447 0.932276,-1 V 20.821 L 25.632606,9.481 c 0.429779,-0.242 0.802689,-0.07 0.947192,0.018 0.337484,0.205 0.539787,0.584 0.539787,1.015 z"
   id="path2"
   inkscape:connector-curvature="0"
   style="stroke:#000000;stroke-width:0.965544;stroke-opacity:1" />
	
	
	<path
   d="m 43.026,29.858 c 0,-5.972 -4.009,-11.302 -9.749,-12.962 -0.53,-0.151 -1.084,0.152 -1.238,0.684 -0.153,0.53 0.152,1.085 0.684,1.238 4.889,1.413 8.304,5.953 8.304,11.04 0,5.087 -3.415,9.627 -8.304,11.04 -0.531,0.153 -0.837,0.708 -0.684,1.238 0.127,0.438 0.526,0.723 0.961,0.723 0.092,0 0.185,-0.013 0.277,-0.039 5.741,-1.661 9.749,-6.991 9.749,-12.962 z"
   id="path8"
   inkscape:connector-curvature="0"
   style="stroke:#000000;stroke-opacity:1;stroke-width:1.00031247;stroke-miterlimit:4;stroke-dasharray:none" />
</g>
<g
   id="g12"
   transform="translate(0,4)">
</g>
<g
   id="g14"
   transform="translate(0,4)">
</g>
<g
   id="g16"
   transform="translate(0,4)">
</g>
<g
   id="g18"
   transform="translate(0,4)">
</g>
<g
   id="g20"
   transform="translate(0,4)">
</g>
<g
   id="g22"
   transform="translate(0,4)">
</g>
<g
   id="g24"
   transform="translate(0,4)">
</g>
<g
   id="g26"
   transform="translate(0,4)">
</g>
<g
   id="g28"
   transform="translate(0,4)">
</g>
<g
   id="g30"
   transform="translate(0,4)">
</g>
<g
   id="g32"
   transform="translate(0,4)">
</g>
<g
   id="g34"
   transform="translate(0,4)">
</g>
<g
   id="g36"
   transform="translate(0,4)">
</g>
<g
   id="g38"
   transform="translate(0,4)">
</g>
<g
   id="g40"
   transform="translate(0,4)">
</g>
</svg>
