<?xml version="1.0" encoding="UTF-8" standalone="no"?>
<!-- Generator: Adobe Illustrator 19.0.0, SVG Export Plug-In . SVG Version: 6.00 Build 0)  -->

<svg
   version="1.1"
   id="Capa_1"
   x="0px"
   y="0px"
   viewBox="0 0 64 64"
   xml:space="preserve"
   sodipodi:docname="speaker-3.svg"
   width="64"
   height="64"
   inkscape:version="1.1.2 (0a00cf5339, 2022-02-04)"
   xmlns:inkscape="http://www.inkscape.org/namespaces/inkscape"
   xmlns:sodipodi="http://sodipodi.sourceforge.net/DTD/sodipodi-0.dtd"
   xmlns="http://www.w3.org/2000/svg"
   xmlns:svg="http://www.w3.org/2000/svg"
   xmlns:rdf="http://www.w3.org/1999/02/22-rdf-syntax-ns#"
   xmlns:cc="http://creativecommons.org/ns#"
   xmlns:dc="http://purl.org/dc/elements/1.1/"><metadata
   id="metadata47"><rdf:RDF><cc:Work
       rdf:about=""><dc:format>image/svg+xml</dc:format><dc:type
         rdf:resource="http://purl.org/dc/dcmitype/StillImage" /><dc:title /></cc:Work></rdf:RDF></metadata><defs
   id="defs45" /><sodipodi:namedview
   pagecolor="#ffffff"
   bordercolor="#666666"
   borderopacity="1"
   objecttolerance="10"
   gridtolerance="10"
   guidetolerance="10"
   inkscape:pageopacity="0"
   inkscape:pageshadow="2"
   inkscape:window-width="1258"
   inkscape:window-height="1009"
   id="namedview43"
   showgrid="false"
   showguides="true"
   inkscape:guide-bbox="true"
   inkscape:zoom="8"
   inkscape:cx="38.3125"
   inkscape:cy="21.5"
   inkscape:window-x="1920"
   inkscape:window-y="42"
   inkscape:window-maximized="0"
   inkscape:current-layer="g10"
   inkscape:pagecheckerboard="0"><sodipodi:guide
     position="32.033898,114.15254"
     orientation="1,0"
     id="guide854"
     inkscape:locked="false" /></sodipodi:namedview>
<g
   id="g10"
   transform="matrix(1.0666667,0,0,1.0666667,0,0.41966766)">
	<path
   d="M 27.324156,7.758 C 26.427704,7.206 25.364833,7.224 24.483091,7.802 24.440797,7.829 24.400341,7.861 24.363564,7.895 L 11.905169,19.358 H 2.1278581 c -0.5084496,0 -0.9194387,0.447 -0.9194387,1 v 19 c 0,0.266 0.096541,0.52 0.2693956,0.707 0.1728544,0.187 0.4054724,0.293 0.6500431,0.293 l 9.7552449,-0.005 12.451958,12.44 c 0.04597,0.046 0.09562,0.086 0.14803,0.12 0.452364,0.297 0.953458,0.446 1.454552,0.446 0.47535,-0.001 0.94978,-0.134 1.386513,-0.402 0.91852,-0.564 1.467425,-1.594 1.467425,-2.756 V 10.514 c 0,-1.161 -0.548905,-2.191 -1.467425,-2.756 z m -0.371453,42.443 c 0,0.431 -0.199518,0.81 -0.532355,1.015 -0.142513,0.087 -0.503852,0.255 -0.919439,0.026 L 13.161123,38.913 v -4.556 c 0,-0.553 -0.41099,-1 -0.919439,-1 -0.50845,0 -0.919439,0.447 -0.919439,1 v 3.996 l -8.2749482,0.004 v -17 h 8.2749482 v 4 c 0,0.553 0.410989,1 0.919439,1 0.508449,0 0.919439,-0.447 0.919439,-1 V 20.821 L 25.486198,9.481 c 0.423862,-0.242 0.791637,-0.07 0.93415,0.018 0.332837,0.205 0.532355,0.584 0.532355,1.015 z"
   id="path2"
   inkscape:connector-curvature="0"
   style="fill:#000000;fill-opacity:1;stroke:#000000;stroke-width:0.959173;stroke-miterlimit:4;stroke-dasharray:none;stroke-opacity:1" />
	<path
   d="m 52.026,29.858 c 0,-8.347 -5.316,-15.76 -13.229,-18.447 -0.522,-0.177 -1.091,0.103 -1.269,0.626 -0.177,0.522 0.103,1.091 0.626,1.269 7.101,2.411 11.872,9.063 11.872,16.553 0,7.483 -4.762,14.136 -11.849,16.554 -0.522,0.178 -0.802,0.746 -0.623,1.27 0.142,0.415 0.53,0.677 0.946,0.677 0.107,0 0.216,-0.017 0.323,-0.054 7.898,-2.695 13.203,-10.108 13.203,-18.448 z"
   id="path4"
   inkscape:connector-curvature="0"
   style="fill:#000000;fill-opacity:1;stroke-width:1.00031247;stroke-miterlimit:4;stroke-dasharray:none;stroke:#000000;stroke-opacity:1" />
	
	<path
   d="m 43.026,29.858 c 0,-5.972 -4.009,-11.302 -9.749,-12.962 -0.53,-0.151 -1.084,0.152 -1.238,0.684 -0.153,0.53 0.152,1.085 0.684,1.238 4.889,1.413 8.304,5.953 8.304,11.04 0,5.087 -3.415,9.627 -8.304,11.04 -0.531,0.153 -0.837,0.708 -0.684,1.238 0.127,0.438 0.526,0.723 0.961,0.723 0.092,0 0.185,-0.013 0.277,-0.039 5.741,-1.661 9.749,-6.991 9.749,-12.962 z"
   id="path8"
   inkscape:connector-curvature="0"
   style="fill:#000000;fill-opacity:1;stroke-width:1.00031247;stroke-miterlimit:4;stroke-dasharray:none;stroke:#000000;stroke-opacity:1" />
</g>
<g
   id="g12"
   transform="translate(0,4)">
</g>
<g
   id="g14"
   transform="translate(0,4)">
</g>
<g
   id="g16"
   transform="translate(0,4)">
</g>
<g
   id="g18"
   transform="translate(0,4)">
</g>
<g
   id="g20"
   transform="translate(0,4)">
</g>
<g
   id="g22"
   transform="translate(0,4)">
</g>
<g
   id="g24"
   transform="translate(0,4)">
</g>
<g
   id="g26"
   transform="translate(0,4)">
</g>
<g
   id="g28"
   transform="translate(0,4)">
</g>
<g
   id="g30"
   transform="translate(0,4)">
</g>
<g
   id="g32"
   transform="translate(0,4)">
</g>
<g
   id="g34"
   transform="translate(0,4)">
</g>
<g
   id="g36"
   transform="translate(0,4)">
</g>
<g
   id="g38"
   transform="translate(0,4)">
</g>
<g
   id="g40"
   transform="translate(0,4)">
</g>
</svg>
