<?xml version="1.0" encoding="UTF-8" standalone="no"?>
<!-- Generator: Adobe Illustrator 19.0.0, SVG Export Plug-In . SVG Version: 6.00 Build 0)  -->

<svg
   version="1.1"
   id="Capa_1"
   x="0px"
   y="0px"
   viewBox="0 0 64 64"
   xml:space="preserve"
   sodipodi:docname="speaker-4.svg"
   width="64"
   height="64"
   inkscape:version="1.1.2 (0a00cf5339, 2022-02-04)"
   xmlns:inkscape="http://www.inkscape.org/namespaces/inkscape"
   xmlns:sodipodi="http://sodipodi.sourceforge.net/DTD/sodipodi-0.dtd"
   xmlns="http://www.w3.org/2000/svg"
   xmlns:svg="http://www.w3.org/2000/svg"
   xmlns:rdf="http://www.w3.org/1999/02/22-rdf-syntax-ns#"
   xmlns:cc="http://creativecommons.org/ns#"
   xmlns:dc="http://purl.org/dc/elements/1.1/"><metadata
   id="metadata47"><rdf:RDF><cc:Work
       rdf:about=""><dc:format>image/svg+xml</dc:format><dc:type
         rdf:resource="http://purl.org/dc/dcmitype/StillImage" /><dc:title /></cc:Work></rdf:RDF></metadata><defs
   id="defs45" /><sodipodi:namedview
   pagecolor="#ffffff"
   bordercolor="#666666"
   borderopacity="1"
   objecttolerance="10"
   gridtolerance="10"
   guidetolerance="10"
   inkscape:pageopacity="0"
   inkscape:pageshadow="2"
   inkscape:window-width="956"
   inkscape:window-height="1009"
   id="namedview43"
   showgrid="false"
   showguides="true"
   inkscape:guide-bbox="true"
   inkscape:zoom="3.9333333"
   inkscape:cx="37.5"
   inkscape:cy="11.694915"
   inkscape:window-x="1920"
   inkscape:window-y="42"
   inkscape:window-maximized="0"
   inkscape:current-layer="g10"
   inkscape:pagecheckerboard="0"><sodipodi:guide
     position="32.033898,114.15254"
     orientation="1,0"
     id="guide854"
     inkscape:locked="false" /></sodipodi:namedview>
<g
   id="g10"
   transform="matrix(1.0666667,0,0,1.0666667,0,0.41966766)">
	<path
   d="M 27.649376,7.758 C 26.729267,7.206 25.638348,7.224 24.733338,7.802 24.689928,7.829 24.648405,7.861 24.610657,7.895 L 11.8235,19.358 H 1.7881774 c -0.521867,0 -0.94370163,0.447 -0.94370163,1 v 19 c 0,0.266 0.0990887,0.52 0.27650453,0.707 0.1774159,0.187 0.4161725,0.293 0.6671971,0.293 l 10.0126746,-0.005 12.780551,12.44 c 0.04718,0.046 0.09814,0.086 0.151935,0.12 0.464302,0.297 0.978619,0.446 1.492936,0.446 0.487894,-0.001 0.974844,-0.134 1.423102,-0.402 0.942758,-0.564 1.506148,-1.594 1.506148,-2.756 V 10.514 c 0,-1.161 -0.56339,-2.191 -1.506148,-2.756 z m -0.381255,42.443 c 0,0.431 -0.204783,0.81 -0.546403,1.015 -0.146274,0.087 -0.517149,0.255 -0.943702,0.026 L 13.112597,38.913 v -4.556 c 0,-0.553 -0.421835,-1 -0.943702,-1 -0.521867,0 -0.943701,0.447 -0.943701,1 v 3.996 l -8.493315,0.004 v -17 h 8.493315 v 4 c 0,0.553 0.421834,1 0.943701,1 0.521867,0 0.943702,-0.447 0.943702,-1 v -4.536 l 12.65032,-11.34 c 0.435046,-0.242 0.812527,-0.07 0.958801,0.018 0.34162,0.205 0.546403,0.584 0.546403,1.015 z"
   id="path2"
   inkscape:connector-curvature="0"
   style="stroke:#000000;stroke-width:0.910728;stroke-miterlimit:4;stroke-dasharray:none;stroke-opacity:1;paint-order:markers fill stroke" />
	<path
   d="m 50.884512,29.858 c 0,-8.347 -5.012994,-15.76 -12.474961,-18.447 -0.492247,-0.177 -1.028814,0.103 -1.196669,0.626 -0.166911,0.522 0.09713,1.091 0.590319,1.269 6.696251,2.411 11.195309,9.063 11.195309,16.553 0,7.483 -4.490571,14.136 -11.17362,16.554 -0.492246,0.178 -0.756287,0.746 -0.58749,1.27 0.133907,0.415 0.499791,0.677 0.892079,0.677 0.100902,0 0.203689,-0.017 0.30459,-0.054 7.447822,-2.695 12.450443,-10.108 12.450443,-18.448 z"
   id="path4"
   inkscape:connector-curvature="0"
   style="stroke:#000000;stroke-width:0.971082;stroke-opacity:1" />
	<path
   d="m 44.30908,6.374 c -0.436267,-0.213 -0.940378,0.021 -1.126736,0.53 -0.18464,0.509 0.01889,1.096 0.456019,1.312 7.474933,3.693 12.304783,12.189 12.304783,21.642 0,9.777 -5.061724,18.38 -12.894774,21.914 -0.442279,0.2 -0.662129,0.779 -0.49037,1.294 0.131394,0.396 0.456878,0.639 0.801253,0.639 0.103055,0 0.207828,-0.021 0.310025,-0.067 8.499471,-3.837 13.991451,-13.171 13.991451,-23.78 0,-10.258 -5.241212,-19.476 -13.351651,-23.484 z"
   id="path6"
   inkscape:connector-curvature="0"
   style="stroke:#000000;stroke-width:0.926711;stroke-opacity:1" />
	<path
   d="m 42.397502,29.858 c 0,-5.972 -3.780491,-11.302 -9.193317,-12.962 -0.499791,-0.151 -1.022213,0.152 -1.167436,0.684 -0.144279,0.53 0.143337,1.085 0.645013,1.238 4.610333,1.413 7.830681,5.953 7.830681,11.04 0,5.087 -3.220348,9.627 -7.830681,11.04 -0.500733,0.153 -0.789292,0.708 -0.645013,1.238 0.119762,0.438 0.496019,0.723 0.906224,0.723 0.08676,0 0.174456,-0.013 0.261212,-0.039 5.413769,-1.661 9.193317,-6.991 9.193317,-12.962 z"
   id="path8"
   inkscape:connector-curvature="0"
   style="stroke:#000000;stroke-width:0.971082;stroke-opacity:1" />
</g>
<g
   id="g12"
   transform="translate(0,4)">
</g>
<g
   id="g14"
   transform="translate(0,4)">
</g>
<g
   id="g16"
   transform="translate(0,4)">
</g>
<g
   id="g18"
   transform="translate(0,4)">
</g>
<g
   id="g20"
   transform="translate(0,4)">
</g>
<g
   id="g22"
   transform="translate(0,4)">
</g>
<g
   id="g24"
   transform="translate(0,4)">
</g>
<g
   id="g26"
   transform="translate(0,4)">
</g>
<g
   id="g28"
   transform="translate(0,4)">
</g>
<g
   id="g30"
   transform="translate(0,4)">
</g>
<g
   id="g32"
   transform="translate(0,4)">
</g>
<g
   id="g34"
   transform="translate(0,4)">
</g>
<g
   id="g36"
   transform="translate(0,4)">
</g>
<g
   id="g38"
   transform="translate(0,4)">
</g>
<g
   id="g40"
   transform="translate(0,4)">
</g>
</svg>
