<?xml version="1.0" encoding="UTF-8" standalone="no"?>
<!-- Generator: Adobe Illustrator 19.0.0, SVG Export Plug-In . SVG Version: 6.00 Build 0)  -->

<svg
   xmlns:dc="http://purl.org/dc/elements/1.1/"
   xmlns:cc="http://creativecommons.org/ns#"
   xmlns:rdf="http://www.w3.org/1999/02/22-rdf-syntax-ns#"
   xmlns:svg="http://www.w3.org/2000/svg"
   xmlns="http://www.w3.org/2000/svg"
   xmlns:sodipodi="http://sodipodi.sourceforge.net/DTD/sodipodi-0.dtd"
   xmlns:inkscape="http://www.inkscape.org/namespaces/inkscape"
   version="1.1"
   id="Capa_1"
   x="0px"
   y="0px"
   viewBox="0 0 63.999998 63.999998"
   xml:space="preserve"
   sodipodi:docname="speaker-1.svg"
   inkscape:version="0.92.5 (2060ec1f9f, 2020-04-08)"
   width="64"
   height="64"><metadata
   id="metadata39"><rdf:RDF><cc:Work
       rdf:about=""><dc:format>image/svg+xml</dc:format><dc:type
         rdf:resource="http://purl.org/dc/dcmitype/StillImage" /><dc:title></dc:title></cc:Work></rdf:RDF></metadata><defs
   id="defs37" /><sodipodi:namedview
   pagecolor="#ffffff"
   bordercolor="#666666"
   borderopacity="1"
   objecttolerance="10"
   gridtolerance="10"
   guidetolerance="10"
   inkscape:pageopacity="0"
   inkscape:pageshadow="2"
   inkscape:window-width="1293"
   inkscape:window-height="1017"
   id="namedview35"
   showgrid="false"
   inkscape:zoom="5.1299885"
   inkscape:cx="11.598467"
   inkscape:cy="23.002001"
   inkscape:window-x="0"
   inkscape:window-y="29"
   inkscape:window-maximized="0"
   inkscape:current-layer="Capa_1"
   showguides="false" />
<path
   d="m 33.859125,5.0602181 c -1.163445,-0.6580142 -2.540268,-0.6365572 -3.683449,0.05245 -0.05484,0.032186 -0.107285,0.070331 -0.154968,0.1108612 L 13.868366,18.888054 H 1.192055 C 0.532849,18.888054 0,19.420902 0,20.080109 V 42.72915 c 0,0.317087 0.125166,0.619868 0.349272,0.842783 0.224106,0.222914 0.525696,0.349272 0.842783,0.349272 l 12.647701,-0.006 16.143999,14.829162 c 0.0596,0.05484 0.123974,0.102516 0.191921,0.143047 0.586491,0.354039 1.23616,0.531656 1.88583,0.531656 0.616293,-0.0012 1.231393,-0.159735 1.797619,-0.479206 1.190863,-0.672319 1.902519,-1.901327 1.902519,-3.285303 V 8.3455211 c 0,-1.383976 -0.711656,-2.611792 -1.902519,-3.285303 z m -0.48159,50.5943829 c 0,0.513775 -0.258676,0.965564 -0.6902,1.209936 -0.184768,0.103708 -0.653246,0.303974 -1.192055,0.03099 L 15.496713,42.198686 v -5.431002 c 0,-0.659207 -0.532849,-1.192055 -1.192056,-1.192055 -0.659206,0 -1.192054,0.532848 -1.192054,1.192055 v 4.763451 L 2.38411,41.535935 V 21.270972 h 10.728493 v 4.768219 c 0,0.659206 0.532848,1.192054 1.192054,1.192054 0.659207,0 1.192056,-0.532848 1.192056,-1.192054 V 20.63203 L 31.476208,7.1141281 c 0.549537,-0.288477 1.025166,-0.08344 1.211127,0.02146 0.431524,0.244371 0.6902,0.69616 0.6902,1.209935 z"
   id="path2"
   inkscape:connector-curvature="0"
   style="stroke-width:1.19205475" />
<g
   id="g4"
   transform="translate(0,17.995998)">
</g>
<g
   id="g6"
   transform="translate(0,17.995998)">
</g>
<g
   id="g8"
   transform="translate(0,17.995998)">
</g>
<g
   id="g10"
   transform="translate(0,17.995998)">
</g>
<g
   id="g12"
   transform="translate(0,17.995998)">
</g>
<g
   id="g14"
   transform="translate(0,17.995998)">
</g>
<g
   id="g16"
   transform="translate(0,17.995998)">
</g>
<g
   id="g18"
   transform="translate(0,17.995998)">
</g>
<g
   id="g20"
   transform="translate(0,17.995998)">
</g>
<g
   id="g22"
   transform="translate(0,17.995998)">
</g>
<g
   id="g24"
   transform="translate(0,17.995998)">
</g>
<g
   id="g26"
   transform="translate(0,17.995998)">
</g>
<g
   id="g28"
   transform="translate(0,17.995998)">
</g>
<g
   id="g30"
   transform="translate(0,17.995998)">
</g>
<g
   id="g32"
   transform="translate(0,17.995998)">
</g>
</svg>