<?xml version="1.0" encoding="utf-8"?>
<!-- Generator: Adobe Illustrator 23.0.2, SVG Export Plug-In . SVG Version: 6.00 Build 0)  -->
<svg version="1.1" id="Capa_1" xmlns="http://www.w3.org/2000/svg" xmlns:xlink="http://www.w3.org/1999/xlink" x="0px" y="0px"
	 viewBox="0 0 512 512" style="enable-background:new 0 0 512 512;" xml:space="preserve">
<style type="text/css">
	.st0{fill:#C1292A;}
	.st1{fill:#FFFFFF;}
</style>
<g>
	<circle class="st0" cx="371.43" cy="58.99" r="27.53"/>
	<path class="st1" d="M420.73,51.56c0.19-10.5-3.66-21.37-10.75-29.69c-4.68-5.54-10.83-9.89-17.61-12.45
		c-6.79-2.55-14-3.59-21.05-3.38c-6.95,0.24-14.01,1.37-20.56,4.08c-6.55,2.67-12.44,7.05-16.77,12.57
		c-4.32,5.55-7.11,12.04-8.67,18.67c-0.78,3.26-1.27,6.56-1.54,9.87c-4.29,0.17-7.74,4.69-7.74,10.28c0,5.7,3.57,10.31,7.98,10.31
		c4.41,0,7.98-4.62,7.98-10.31c0-5.07-2.84-9.26-6.57-10.13c0.52-3.19,1.24-6.33,2.21-9.38c1.97-6.24,5.06-12.09,9.35-16.8
		c4.22-4.76,9.63-8.29,15.59-10.33c5.96-2.07,12.37-2.73,18.75-2.58c6.31,0.22,12.5,1.6,18.03,4.26
		c5.55,2.61,10.54,6.18,14.81,10.57c4.3,4.36,7.72,9.65,10.16,15.47c1.18,2.85,2.11,5.83,2.79,8.91c-3.58,1.02-6.26,5.13-6.26,10.06
		c0,5.7,3.57,10.31,7.98,10.31c4.41,0,7.98-4.62,7.98-10.31C426.82,56.7,424.22,52.66,420.73,51.56z"/>
	<path class="st1" d="M471,199.31c-17.72,4.4-35.24,9.52-52.6,15.28c-8.68,2.85-17.3,5.92-25.9,9.1
		c-8.55,3.28-17.09,6.65-25.52,10.35l-6.33,2.77l-6.27,2.94c-2.09,0.96-4.17,1.96-6.27,3.09c-0.91,0.48-1.83,0.95-2.74,1.43
		c6.32-41.5,12.53-83.01,19.42-124.41l3.22-19.35l-9.69,17.04c-7.53,13.24-16.62,26.25-27.91,36.32c-2.81,2.39-5.98,4.79-9.09,7.13
		c-3.13,2.31-6.25,4.61-9.47,6.75c-6.44,4.28-13.13,8.14-20.12,11.32c-6.99,3.14-14.23,5.74-21.68,7.36
		c-7.46,1.71-14.93,2.31-22.81,2.77c-7.01,0.44-14,0.65-20.98,0.66c10.54-60.06,20.7-120.19,29.69-180.52l-1.92-0.38
		C239.47,69.01,226.1,129.27,213.1,189.6c-4.13-0.17-8.25-0.41-12.36-0.75c-15.45-1.35-31.24-3.52-47.49-3.5
		c-8.12-0.03-16.37,0.5-24.67,1.98c-8.28,1.56-16.69,4.19-24.47,8.86c-7.73,4.64-14.61,11.54-18.97,19.71
		c-2.16,4.08-3.81,8.35-5,12.67c-1.08,4.32-1.95,8.69-2.27,13c-0.27,2.17-0.27,4.3-0.39,6.46c-0.08,2.18-0.02,4.54,0.18,6.81
		c0.36,4.58,1.33,9.15,2.85,13.54c3.01,8.79,8.25,16.74,14.82,23.03c13.18,12.65,30.99,19.3,49.02,19.05
		c9.01-0.17,18.2-2.22,26.46-6.53c4.12-2.12,8-4.94,11.37-7.95c3.33-3.06,6.28-6.34,8.92-9.75c5.23-6.86,9.37-14.12,13.01-21.5
		c3.6-7.4,6.67-14.93,9.39-22.55c2.7-7.62,5.07-15.32,7.04-23.13c0.98-3.93,1.95-7.75,2.69-11.95l1.54-8.76
		c7.72-0.38,15.4-1.01,23.05-1.7c7.77-0.71,16-1.69,23.79-3.8c7.82-2.07,15.43-4.82,22.67-8.3c7.27-3.42,14.21-7.46,20.82-11.91
		c3.35-2.17,6.57-4.5,9.78-6.83c3.19-2.36,6.31-4.66,9.51-7.33c6.15-5.36,11.5-11.41,16.42-17.71c1.27-1.61,2.5-3.24,3.71-4.88
		c-7.77,39.12-16.04,78.16-24.16,117.22c-4.07,2.57-8.07,5.23-12.03,7.93c-3.84,2.58-7.57,5.28-11.33,7.94
		c-3.7,2.74-7.42,5.46-11.05,8.29c-7.32,5.59-14.5,11.34-21.58,17.26c-7.07,5.94-14.06,11.94-20.85,18.51
		c-3.36,3.23-6.87,6.93-9.92,10.56c-3.1,3.66-6.01,7.4-8.82,11.19c-5.6,7.59-10.76,15.42-15.6,23.45
		c-4.84,8.03-9.32,16.27-13.39,24.75c-8.1,16.97-15.06,34.73-18.36,54.24c-1.54,9.75-2.27,20.08-0.05,30.91
		c0.52,2.7,1.36,5.41,2.32,8.11c1.06,2.68,2.26,5.36,3.84,7.89c3.09,5.09,7.38,9.68,12.3,13.01c4.91,3.37,10.29,5.65,15.57,7.05
		c2.57,0.68,5.46,1.32,8.4,1.58l2.2,0.19c0.74,0.03,1.48,0.02,2.23,0.03c1.48,0.05,2.97-0.08,4.45-0.21
		c5.94-0.55,11.67-2.39,16.67-5.01c5.03-2.6,9.42-5.87,13.31-9.4c7.76-7.11,13.65-15.18,18.77-23.42
		c5.11-8.26,9.36-16.79,13.18-25.42c7.54-17.29,13.34-34.98,18.28-52.82c4.91-17.88,8.98-35.77,12.05-54.17
		c4.19-25.03,8.11-50.11,11.96-75.2c1.78-1.2,3.56-2.38,5.36-3.52c1.85-1.24,3.74-2.32,5.62-3.44c1.85-1.14,3.83-2.2,5.8-3.28
		l5.89-3.25l5.99-3.1c16-8.24,32.53-15.65,49.23-22.71c16.72-7.01,33.64-13.67,50.73-19.85L471,199.31z M206.93,215.23
		c-2.27,7.32-4.76,14.57-7.52,21.68c-2.79,7.1-5.87,14.03-9.36,20.66c-3.51,6.6-7.42,12.91-11.9,18.41
		c-2.25,2.73-4.59,5.29-7.08,7.5c-2.53,2.16-5.08,3.96-7.96,5.41c-5.72,2.89-12.29,4.31-18.96,4.35
		c-13.37,0.06-27.06-5.39-36.58-14.52c-4.73-4.59-8.47-10.05-10.62-16.12c-1.08-3.03-1.81-6.18-2.18-9.42
		c-0.19-1.64-0.28-3.21-0.27-4.96c0.05-1.77-0.01-3.57,0.17-5.31c0.14-3.54,0.76-6.91,1.47-10.23c0.81-3.27,1.93-6.39,3.35-9.3
		c2.86-5.82,7.17-10.69,12.71-14.42c5.54-3.74,12.25-6.22,19.28-7.98c7.08-1.69,14.54-2.63,22.12-3.03
		c15.19-0.87,30.73,0.21,46.63,0.64c3.63,0.1,7.28,0.14,10.92,0.12l-1.2,5.6C209.18,207.84,208.02,211.59,206.93,215.23z
		 M314.32,332.62c-1.68,8.65-3.73,17.46-5.89,26.13c-2.16,8.7-4.52,17.34-7.09,25.9c-5.15,17.11-11.13,33.94-18.49,49.85
		c-3.68,7.94-7.72,15.66-12.31,22.79c-4.58,7.11-9.73,13.73-15.52,18.82c-5.79,5.07-12.1,8.41-18.31,8.91
		c-0.78,0.06-1.56,0.14-2.36,0.09l-1.18-0.01l-1.19-0.13c-1.6-0.15-3.16-0.51-4.98-0.99c-3.5-0.94-6.57-2.38-9.17-4.15
		c-5.15-3.53-8.42-8.88-9.87-16c-1.46-7.04-1.23-15.2,0.01-23.37c1.25-8.21,3.48-16.5,6.18-24.72c2.71-8.22,5.98-16.35,9.63-24.34
		c7.36-15.94,15.95-31.55,25.92-45.96c2.49-3.59,5.07-7.12,7.75-10.48c2.71-3.41,5.38-6.4,8.48-9.58
		c6.09-6.29,12.61-12.49,19.23-18.52c13.24-12.07,27.08-23.61,41.26-34.52C322.28,292.4,318.22,312.5,314.32,332.62z"/>
	<g>
		<path class="st1" d="M40.44,213.5l2.32-4.53l20.55,10.52l6.53-12.75l3.83,1.96l-8.85,17.28L40.44,213.5z"/>
	</g>
	<g>
		<g>
			<path class="st1" d="M63.98,178.71l3.71-3.48l18.75,19.97l-3.71,3.48L63.98,178.71z"/>
		</g>
	</g>
	<g>
		<path class="st1" d="M112.74,151.02l-0.4,29.88l-4.62,1.94l-21.65-20.62l5.09-2.14l16.59,15.95l0.29-23.05L112.74,151.02z"/>
	</g>
	<g>
		<path class="st1" d="M152.44,170.12l0.16,4.26l-20.53,0.76l-1.01-27.38l19.98-0.74l0.16,4.26l-14.9,0.55l0.26,7.12l13.22-0.49
			l0.15,4.18l-13.22,0.49l0.28,7.55L152.44,170.12z"/>
	</g>
</g>
</svg>
