<?xml version="1.0" encoding="utf-8"?>
<!-- Generator: Adobe Illustrator 23.0.2, SVG Export Plug-In . SVG Version: 6.00 Build 0)  -->
<svg version="1.1" id="logo-white" xmlns="http://www.w3.org/2000/svg" xmlns:xlink="http://www.w3.org/1999/xlink" x="0px" y="0px"
	 viewBox="0 0 512 223.32" style="enable-background:new 0 0 512 223.32;" xml:space="preserve">
<style type="text/css">
	.st0{fill:#C1292A;}
	.st1{fill:#FFFFFF;}
</style>
<g>
	<g>
		<circle class="st0" cx="464.13" cy="28.86" r="11.51"/>
		<path class="st1" d="M484.75,25.75c0.08-4.39-1.53-8.94-4.5-12.42c-1.96-2.32-4.53-4.14-7.36-5.21c-2.84-1.07-5.85-1.5-8.8-1.41
			c-2.91,0.1-5.86,0.57-8.6,1.71c-2.74,1.12-5.2,2.95-7.01,5.26c-1.81,2.32-2.97,5.03-3.63,7.81c-0.33,1.36-0.53,2.74-0.64,4.13
			c-1.8,0.07-3.24,1.96-3.24,4.3c0,2.38,1.49,4.31,3.34,4.31c1.84,0,3.34-1.93,3.34-4.31c0-2.12-1.19-3.87-2.75-4.24
			c0.22-1.33,0.52-2.65,0.92-3.92c0.82-2.61,2.12-5.06,3.91-7.03c1.76-1.99,4.03-3.47,6.52-4.32c2.49-0.86,5.17-1.14,7.84-1.08
			c2.64,0.09,5.22,0.67,7.54,1.78c2.32,1.09,4.41,2.59,6.19,4.42c1.8,1.82,3.23,4.04,4.25,6.47c0.49,1.19,0.88,2.44,1.17,3.73
			c-1.5,0.43-2.62,2.14-2.62,4.21c0,2.38,1.49,4.31,3.34,4.31c1.84,0,3.34-1.93,3.34-4.31C487.3,27.9,486.21,26.21,484.75,25.75z"/>
		<path class="st1" d="M505.77,87.53c-7.41,1.84-14.74,3.98-21.99,6.39c-3.63,1.19-7.24,2.48-10.83,3.81
			c-3.58,1.37-7.15,2.78-10.67,4.33l-2.65,1.16l-2.62,1.23c-0.88,0.4-1.74,0.82-2.62,1.29c-0.38,0.2-0.76,0.4-1.14,0.6
			c2.64-17.35,5.24-34.71,8.12-52.02l1.35-8.09l-4.05,7.12c-3.15,5.53-6.95,10.98-11.67,15.19c-1.18,1-2.5,2-3.8,2.98
			c-1.31,0.97-2.61,1.93-3.96,2.82c-2.69,1.79-5.49,3.4-8.41,4.73c-2.92,1.31-5.95,2.4-9.07,3.08c-3.12,0.72-6.24,0.97-9.54,1.16
			c-2.93,0.18-5.86,0.26-8.77,0.27c4.4-25.11,8.66-50.25,12.41-75.47l-0.8-0.16c-6.1,25.11-11.69,50.3-17.12,75.53
			c-1.73-0.07-3.45-0.17-5.17-0.31c-6.46-0.56-13.06-1.47-19.86-1.47c-3.39-0.01-6.84,0.21-10.32,0.83
			c-3.46,0.65-6.98,1.75-10.23,3.71c-3.23,1.94-6.11,4.82-7.93,8.24c-0.9,1.7-1.59,3.49-2.09,5.3c-0.45,1.81-0.82,3.63-0.95,5.44
			c-0.11,0.91-0.11,1.8-0.16,2.7c-0.03,0.91-0.01,1.9,0.07,2.85c0.15,1.92,0.56,3.83,1.19,5.66c1.26,3.68,3.45,7,6.2,9.63
			c5.51,5.29,12.96,8.07,20.5,7.96c3.77-0.07,7.61-0.93,11.06-2.73c1.72-0.89,3.34-2.06,4.75-3.32c1.39-1.28,2.62-2.65,3.73-4.08
			c2.19-2.87,3.92-5.9,5.44-8.99c1.51-3.09,2.79-6.24,3.93-9.43c1.13-3.19,2.12-6.4,2.94-9.67c0.41-1.64,0.81-3.24,1.13-5l0.65-3.66
			c3.23-0.16,6.44-0.42,9.64-0.71c3.25-0.3,6.69-0.71,9.95-1.59c3.27-0.87,6.45-2.02,9.48-3.47c3.04-1.43,5.94-3.12,8.71-4.98
			c1.4-0.91,2.75-1.88,4.09-2.85c1.33-0.99,2.64-1.95,3.98-3.06c2.57-2.24,4.81-4.77,6.87-7.41c0.53-0.67,1.05-1.35,1.55-2.04
			c-3.25,16.36-6.71,32.68-10.1,49.02c-1.7,1.08-3.38,2.18-5.03,3.31c-1.61,1.08-3.16,2.21-4.74,3.32c-1.55,1.15-3.1,2.29-4.62,3.47
			c-3.06,2.34-6.06,4.74-9.02,7.22c-2.96,2.48-5.88,4.99-8.72,7.74c-1.4,1.35-2.87,2.9-4.15,4.41c-1.3,1.53-2.51,3.09-3.69,4.68
			c-2.34,3.18-4.5,6.45-6.52,9.81c-2.02,3.36-3.9,6.8-5.6,10.35c-3.39,7.09-6.3,14.52-7.68,22.68c-0.64,4.08-0.95,8.4-0.02,12.92
			c0.22,1.13,0.57,2.26,0.97,3.39c0.44,1.12,0.95,2.24,1.61,3.3c1.29,2.13,3.09,4.05,5.14,5.44c2.05,1.41,4.3,2.36,6.51,2.95
			c1.07,0.28,2.28,0.55,3.51,0.66l0.92,0.08c0.31,0.01,0.62,0.01,0.93,0.01c0.62,0.02,1.24-0.03,1.86-0.09
			c2.48-0.23,4.88-1,6.97-2.1c2.1-1.09,3.94-2.45,5.57-3.93c3.24-2.97,5.71-6.35,7.85-9.79c2.14-3.45,3.91-7.02,5.51-10.63
			c3.15-7.23,5.58-14.63,7.64-22.09c2.05-7.48,3.75-14.96,5.04-22.65c1.75-10.47,3.39-20.95,5-31.44c0.74-0.5,1.49-0.99,2.24-1.47
			c0.77-0.52,1.56-0.97,2.35-1.44c0.77-0.48,1.6-0.92,2.42-1.37l2.46-1.36l2.5-1.3c6.69-3.45,13.6-6.55,20.58-9.5
			c6.99-2.93,14.07-5.72,21.21-8.3L505.77,87.53z M395.35,94.19c-0.95,3.06-1.99,6.09-3.14,9.07c-1.16,2.97-2.46,5.87-3.91,8.64
			c-1.47,2.76-3.1,5.4-4.98,7.7c-0.94,1.14-1.92,2.21-2.96,3.14c-1.06,0.9-2.12,1.66-3.33,2.26c-2.39,1.21-5.14,1.8-7.93,1.82
			c-5.59,0.03-11.31-2.25-15.3-6.07c-1.98-1.92-3.54-4.2-4.44-6.74c-0.45-1.27-0.76-2.59-0.91-3.94c-0.08-0.68-0.12-1.34-0.11-2.07
			c0.02-0.74-0.01-1.49,0.07-2.22c0.06-1.48,0.32-2.89,0.61-4.28c0.34-1.37,0.8-2.67,1.4-3.89c1.19-2.43,3-4.47,5.31-6.03
			c2.32-1.57,5.12-2.6,8.06-3.34c2.96-0.71,6.08-1.1,9.25-1.27c6.35-0.36,12.85,0.09,19.5,0.27c1.52,0.04,3.04,0.05,4.57,0.05
			l-0.5,2.35C396.29,91.1,395.81,92.67,395.35,94.19z M440.25,143.28c-0.7,3.62-1.56,7.3-2.46,10.93c-0.9,3.64-1.89,7.25-2.97,10.83
			c-2.15,7.15-4.65,14.19-7.73,20.85c-1.54,3.32-3.23,6.55-5.15,9.53c-1.91,2.97-4.07,5.74-6.49,7.87
			c-2.42,2.12-5.06,3.52-7.66,3.72c-0.33,0.02-0.65,0.06-0.99,0.04l-0.5-0.01l-0.5-0.05c-0.67-0.06-1.32-0.21-2.08-0.41
			c-1.46-0.39-2.75-0.99-3.83-1.73c-2.15-1.48-3.52-3.71-4.13-6.69c-0.61-2.94-0.51-6.36,0-9.77c0.52-3.43,1.46-6.9,2.59-10.33
			c1.13-3.44,2.5-6.84,4.03-10.18c3.08-6.67,6.67-13.19,10.84-19.22c1.04-1.5,2.12-2.98,3.24-4.38c1.14-1.43,2.25-2.68,3.54-4.01
			c2.55-2.63,5.27-5.22,8.04-7.74c5.54-5.05,11.32-9.87,17.25-14.44C443.58,126.46,441.88,134.86,440.25,143.28z"/>
	</g>
	<g>
		<polygon class="st1" points="32.08,46.84 24.52,46.84 6,133.96 62.99,133.96 64.46,127.04 15.03,127.04 		"/>
		<polygon class="st1" points="90.01,133.96 97.57,133.96 116.09,46.84 108.53,46.84 		"/>
		<polygon class="st1" points="167.49,123.64 149.54,46.84 141.36,46.84 161.67,133.96 168.78,133.96 226.13,46.84 218.1,46.84 		
			"/>
		<polygon class="st1" points="307.78,53.76 309.25,46.84 250.55,46.84 232.03,133.96 292.57,133.96 294.04,127.04 241.06,127.04 
			248.27,93.12 294.02,93.12 295.46,86.33 249.72,86.33 256.64,53.76 		"/>
	</g>
</g>
</svg>
