<?xml version="1.0" encoding="UTF-8" standalone="no"?>
<!-- Generator: Adobe Illustrator 19.0.0, SVG Export Plug-In . SVG Version: 6.00 Build 0)  -->

<svg
   xmlns:dc="http://purl.org/dc/elements/1.1/"
   xmlns:cc="http://creativecommons.org/ns#"
   xmlns:rdf="http://www.w3.org/1999/02/22-rdf-syntax-ns#"
   xmlns:svg="http://www.w3.org/2000/svg"
   xmlns="http://www.w3.org/2000/svg"
   xmlns:sodipodi="http://sodipodi.sourceforge.net/DTD/sodipodi-0.dtd"
   xmlns:inkscape="http://www.inkscape.org/namespaces/inkscape"
   version="1.1"
   id="Capa_1"
   x="0px"
   y="0px"
   viewBox="0 0 63.999998 63.999998"
   xml:space="preserve"
   sodipodi:docname="home.svg"
   width="64"
   height="64"
   inkscape:version="0.92.5 (2060ec1f9f, 2020-04-08)"><metadata
   id="metadata39"><rdf:RDF><cc:Work
       rdf:about=""><dc:format>image/svg+xml</dc:format><dc:type
         rdf:resource="http://purl.org/dc/dcmitype/StillImage" /><dc:title /></cc:Work></rdf:RDF></metadata><defs
   id="defs37" /><sodipodi:namedview
   pagecolor="#ffffff"
   bordercolor="#666666"
   borderopacity="1"
   objecttolerance="10"
   gridtolerance="10"
   guidetolerance="10"
   inkscape:pageopacity="0"
   inkscape:pageshadow="2"
   inkscape:window-width="956"
   inkscape:window-height="1017"
   id="namedview35"
   showgrid="false"
   inkscape:zoom="4.0435191"
   inkscape:cx="14.096631"
   inkscape:cy="29.182501"
   inkscape:window-x="0"
   inkscape:window-y="29"
   inkscape:window-maximized="0"
   inkscape:current-layer="Capa_1" />
<path
   d="M 63.449612,29.203255 31.99953,0 0.55054556,29.203255 c -0.44300523,0.412302 -0.46932237,1.106417 -0.0570205,1.550518 0.4101088,0.443006 1.10641654,0.468226 1.54942174,0.05702 l 3.6394414,-3.37956 V 64 H 23.22715 40.771911 58.316673 V 27.430138 l 3.639441,3.379559 c 0.210537,0.196282 0.479191,0.292779 0.746749,0.292779 0.294971,0 0.58775,-0.117331 0.802673,-0.349799 0.413398,-0.443005 0.387081,-1.13712 -0.05592,-1.549422 z M 25.420245,61.806905 V 44.262143 c 0,-3.628476 2.950809,-6.579285 6.579285,-6.579285 3.628476,0 6.579286,2.950809 6.579286,6.579285 v 17.544762 z m 30.703332,0 H 40.771911 V 44.262143 c 0,-4.836871 -3.935509,-8.77238 -8.772381,-8.77238 -4.836871,0 -8.77238,3.935509 -8.77238,8.77238 V 61.806905 H 7.8754834 V 25.393849 L 31.99953,2.9924784 56.123577,25.393849 Z"
   id="path2"
   inkscape:connector-curvature="0"
   style="stroke-width:1.0965476" />
<g
   id="g4"
   transform="translate(0,5.6349983)">
</g>
<g
   id="g6"
   transform="translate(0,5.6349983)">
</g>
<g
   id="g8"
   transform="translate(0,5.6349983)">
</g>
<g
   id="g10"
   transform="translate(0,5.6349983)">
</g>
<g
   id="g12"
   transform="translate(0,5.6349983)">
</g>
<g
   id="g14"
   transform="translate(0,5.6349983)">
</g>
<g
   id="g16"
   transform="translate(0,5.6349983)">
</g>
<g
   id="g18"
   transform="translate(0,5.6349983)">
</g>
<g
   id="g20"
   transform="translate(0,5.6349983)">
</g>
<g
   id="g22"
   transform="translate(0,5.6349983)">
</g>
<g
   id="g24"
   transform="translate(0,5.6349983)">
</g>
<g
   id="g26"
   transform="translate(0,5.6349983)">
</g>
<g
   id="g28"
   transform="translate(0,5.6349983)">
</g>
<g
   id="g30"
   transform="translate(0,5.6349983)">
</g>
<g
   id="g32"
   transform="translate(0,5.6349983)">
</g>
<title
   id="title827">Home</title></svg>