<?xml version="1.0" encoding="UTF-8" standalone="no"?>
<!-- Generator: Adobe Illustrator 19.0.0, SVG Export Plug-In . SVG Version: 6.00 Build 0)  -->

<svg
   xmlns:dc="http://purl.org/dc/elements/1.1/"
   xmlns:cc="http://creativecommons.org/ns#"
   xmlns:rdf="http://www.w3.org/1999/02/22-rdf-syntax-ns#"
   xmlns:svg="http://www.w3.org/2000/svg"
   xmlns="http://www.w3.org/2000/svg"
   xmlns:sodipodi="http://sodipodi.sourceforge.net/DTD/sodipodi-0.dtd"
   xmlns:inkscape="http://www.inkscape.org/namespaces/inkscape"
   version="1.1"
   id="Capa_1"
   x="0px"
   y="0px"
   viewBox="0 0 64 64"
   xml:space="preserve"
   sodipodi:docname="messages.svg"
   width="64"
   height="64"
   inkscape:version="0.92.5 (2060ec1f9f, 2020-04-08)"><metadata
   id="metadata39"><rdf:RDF><cc:Work
       rdf:about=""><dc:format>image/svg+xml</dc:format><dc:type
         rdf:resource="http://purl.org/dc/dcmitype/StillImage" /><dc:title /></cc:Work></rdf:RDF></metadata><defs
   id="defs37" /><sodipodi:namedview
   pagecolor="#ffffff"
   bordercolor="#666666"
   borderopacity="1"
   objecttolerance="10"
   gridtolerance="10"
   guidetolerance="10"
   inkscape:pageopacity="0"
   inkscape:pageshadow="2"
   inkscape:window-width="956"
   inkscape:window-height="1017"
   id="namedview35"
   showgrid="false"
   inkscape:zoom="3.9292731"
   inkscape:cx="14.5065"
   inkscape:cy="30.031"
   inkscape:window-x="0"
   inkscape:window-y="29"
   inkscape:window-maximized="0"
   inkscape:current-layer="Capa_1" />
<path
   d="m 63.983302,11.931689 c 0.0043,-0.02557 0.01172,-0.05115 0.01385,-0.07672 0.0075,-0.07885 -0.0011,-0.158771 -0.01066,-0.238689 -0.0021,-0.02025 0.0011,-0.03943 -0.0021,-0.05967 -0.01918,-0.105492 -0.05434,-0.208852 -0.106557,-0.307951 -0.0085,-0.01705 -0.02025,-0.03303 -0.02984,-0.05008 -0.0021,-0.0021 -0.0021,-0.0053 -0.0032,-0.0085 -0.0011,-0.0021 -0.0043,-0.0032 -0.0053,-0.0064 -0.0075,-0.01172 -0.01385,-0.02451 -0.02131,-0.03516 -0.06607,-0.09697 -0.145983,-0.176885 -0.235491,-0.245082 -0.02025,-0.01492 -0.04369,-0.02344 -0.065,-0.0373 -0.07885,-0.05221 -0.161968,-0.09484 -0.251476,-0.123606 -0.03943,-0.01279 -0.07885,-0.01918 -0.119344,-0.02664 -0.07779,-0.01598 -0.155574,-0.02344 -0.236557,-0.02131 -0.04262,0.0011 -0.08311,0.0032 -0.125738,0.0096 -0.02771,0.0043 -0.05434,0 -0.08205,0.0064 L 0.85020042,23.493162 c -0.44008188,0.09164 -0.77680313,0.448606 -0.83967197,0.894016 -0.06286884,0.44541 0.15983604,0.882295 0.55729497,1.092213 l 17.72261958,9.348277 3.108278,17.248439 c -0.0021,0.01279 0.0011,0.02664 0,0.03943 -0.01066,0.08525 -0.01172,0.168361 -0.0011,0.252541 0.0053,0.04262 0.01066,0.08311 0.02131,0.124672 0.02451,0.10123 0.06393,0.196066 0.117213,0.285574 0.01065,0.01705 0.01065,0.0373 0.02238,0.05434 0.0032,0.0053 0.0085,0.0096 0.01279,0.01385 0.01385,0.02025 0.03303,0.03623 0.04902,0.05647 0.05008,0.0618 0.102295,0.118279 0.161967,0.16623 0.0096,0.0075 0.01598,0.01918 0.02664,0.02664 0.01598,0.01172 0.0341,0.01492 0.05008,0.02557 0.065,0.04262 0.132132,0.07779 0.203525,0.105492 0.02877,0.01065 0.05541,0.02344 0.08525,0.03197 0.0959,0.0277 0.195,0.04689 0.295164,0.04689 0.0011,0 0.0021,0 0.0032,0 v 0 c 0,0 0,0 0,0 0.0043,0 0.0085,-0.0021 0.01279,-0.0021 0.01812,0.0011 0.03623,0.0021 0.05435,0.0021 0.295163,0 0.561557,-0.132131 0.758688,-0.335656 l 11.805489,-7.870326 12.360654,8.034425 c 0.174754,0.11295 0.377213,0.171557 0.580737,0.171557 0.111885,0 0.225902,-0.01812 0.335656,-0.05434 0.306885,-0.102295 0.551967,-0.338853 0.663852,-0.643607 L 63.932155,12.127754 c 0.01385,-0.03623 0.02557,-0.07352 0.03516,-0.111885 0.0043,-0.01598 0.0053,-0.03197 0.0085,-0.04689 0.0032,-0.01172 0.0053,-0.02451 0.0075,-0.03729 z M 51.641829,18.733245 26.075523,37.531028 c -0.04156,0.0309 -0.07459,0.06926 -0.11082,0.105492 -0.01385,0.01279 -0.0277,0.02344 -0.03943,0.0373 -0.02238,0.02451 -0.04262,0.04902 -0.06287,0.07566 -0.01918,0.02557 -0.0341,0.05221 -0.05115,0.07885 -0.03943,0.06393 -0.07246,0.13 -0.09803,0.200328 -0.0053,0.01385 -0.01385,0.02451 -0.01811,0.03836 -0.0011,0.0043 -0.0053,0.0064 -0.0064,0.01065 l -2.930327,9.523031 -2.321885,-12.88385 z m -27.231797,30.917617 2.904753,-9.594425 4.522294,2.939918 1.293607,0.840737 -4.394426,2.929262 z M 55.456583,14.384639 19.255852,32.926685 4.1886424,24.979637 Z M 47.480765,50.620534 31.065604,39.952011 28.579621,38.335536 60.710926,14.709639 Z"
   id="path2"
   inkscape:connector-curvature="0"
   style="stroke-width:1.06557357" />
<g
   id="g4"
   transform="translate(0,3.9379997)">
</g>
<g
   id="g6"
   transform="translate(0,3.9379997)">
</g>
<g
   id="g8"
   transform="translate(0,3.9379997)">
</g>
<g
   id="g10"
   transform="translate(0,3.9379997)">
</g>
<g
   id="g12"
   transform="translate(0,3.9379997)">
</g>
<g
   id="g14"
   transform="translate(0,3.9379997)">
</g>
<g
   id="g16"
   transform="translate(0,3.9379997)">
</g>
<g
   id="g18"
   transform="translate(0,3.9379997)">
</g>
<g
   id="g20"
   transform="translate(0,3.9379997)">
</g>
<g
   id="g22"
   transform="translate(0,3.9379997)">
</g>
<g
   id="g24"
   transform="translate(0,3.9379997)">
</g>
<g
   id="g26"
   transform="translate(0,3.9379997)">
</g>
<g
   id="g28"
   transform="translate(0,3.9379997)">
</g>
<g
   id="g30"
   transform="translate(0,3.9379997)">
</g>
<g
   id="g32"
   transform="translate(0,3.9379997)">
</g>
<title
   id="title827">Messages</title></svg>