<?xml version="1.0" encoding="UTF-8" standalone="no"?>
<!-- Generator: Adobe Illustrator 19.0.0, SVG Export Plug-In . SVG Version: 6.00 Build 0)  -->

<svg
   xmlns:dc="http://purl.org/dc/elements/1.1/"
   xmlns:cc="http://creativecommons.org/ns#"
   xmlns:rdf="http://www.w3.org/1999/02/22-rdf-syntax-ns#"
   xmlns:svg="http://www.w3.org/2000/svg"
   xmlns="http://www.w3.org/2000/svg"
   xmlns:sodipodi="http://sodipodi.sourceforge.net/DTD/sodipodi-0.dtd"
   xmlns:inkscape="http://www.inkscape.org/namespaces/inkscape"
   version="1.1"
   id="Capa_1"
   x="0px"
   y="0px"
   viewBox="0 0 64 64"
   xml:space="preserve"
   sodipodi:docname="search.svg"
   width="64"
   height="64"
   inkscape:version="0.92.5 (2060ec1f9f, 2020-04-08)"><metadata
   id="metadata39"><rdf:RDF><cc:Work
       rdf:about=""><dc:format>image/svg+xml</dc:format><dc:type
         rdf:resource="http://purl.org/dc/dcmitype/StillImage" /><dc:title></dc:title></cc:Work></rdf:RDF></metadata><defs
   id="defs37" /><sodipodi:namedview
   pagecolor="#ffffff"
   bordercolor="#666666"
   borderopacity="1"
   objecttolerance="10"
   gridtolerance="10"
   guidetolerance="10"
   inkscape:pageopacity="0"
   inkscape:pageshadow="2"
   inkscape:window-width="1920"
   inkscape:window-height="1019"
   id="namedview35"
   showgrid="false"
   inkscape:zoom="4.4556886"
   inkscape:cx="-33.552614"
   inkscape:cy="26.483"
   inkscape:window-x="0"
   inkscape:window-y="29"
   inkscape:window-maximized="1"
   inkscape:current-layer="Capa_1" />
<path
   d="m 57.221154,56.79 -14.859,-15.453 c 3.79,-3.801 6.138,-9.041 6.138,-14.82 0,-11.58 -9.42,-21 -21,-21 -11.58,0 -21.0000001,9.42 -21.0000001,21 0,11.58 9.4200001,21 21.0000001,21 5.083,0 9.748,-1.817 13.384,-4.832 l 14.895,15.491 c 0.196,0.205 0.458,0.307 0.721,0.307 0.25,0 0.499,-0.093 0.693,-0.279 0.398,-0.383 0.41,-1.016 0.028,-1.414 z m -29.721,-11.273 c -10.477,0 -19.0000001,-8.523 -19.0000001,-19 0,-10.477 8.5230001,-19 19.0000001,-19 10.477,0 19,8.523 19,19 0,10.477 -8.524,19 -19,19 z"
   id="path2"
   inkscape:connector-curvature="0" />
<g
   id="g4"
   transform="translate(0,11.034)">
</g>
<g
   id="g6"
   transform="translate(0,11.034)">
</g>
<g
   id="g8"
   transform="translate(0,11.034)">
</g>
<g
   id="g10"
   transform="translate(0,11.034)">
</g>
<g
   id="g12"
   transform="translate(0,11.034)">
</g>
<g
   id="g14"
   transform="translate(0,11.034)">
</g>
<g
   id="g16"
   transform="translate(0,11.034)">
</g>
<g
   id="g18"
   transform="translate(0,11.034)">
</g>
<g
   id="g20"
   transform="translate(0,11.034)">
</g>
<g
   id="g22"
   transform="translate(0,11.034)">
</g>
<g
   id="g24"
   transform="translate(0,11.034)">
</g>
<g
   id="g26"
   transform="translate(0,11.034)">
</g>
<g
   id="g28"
   transform="translate(0,11.034)">
</g>
<g
   id="g30"
   transform="translate(0,11.034)">
</g>
<g
   id="g32"
   transform="translate(0,11.034)">
</g>
<title
   id="title846">Search</title></svg>