<?xml version="1.0" encoding="UTF-8" standalone="no"?>
<!-- Generator: Adobe Illustrator 19.0.0, SVG Export Plug-In . SVG Version: 6.00 Build 0)  -->

<svg
   xmlns:dc="http://purl.org/dc/elements/1.1/"
   xmlns:cc="http://creativecommons.org/ns#"
   xmlns:rdf="http://www.w3.org/1999/02/22-rdf-syntax-ns#"
   xmlns:svg="http://www.w3.org/2000/svg"
   xmlns="http://www.w3.org/2000/svg"
   xmlns:sodipodi="http://sodipodi.sourceforge.net/DTD/sodipodi-0.dtd"
   xmlns:inkscape="http://www.inkscape.org/namespaces/inkscape"
   version="1.1"
   id="Capa_1"
   x="0px"
   y="0px"
   viewBox="0 0 64.000001 64.000001"
   xml:space="preserve"
   sodipodi:docname="search.svg"
   width="64"
   height="64"
   inkscape:version="0.92.5 (2060ec1f9f, 2020-04-08)"><metadata
   id="metadata39"><rdf:RDF><cc:Work
       rdf:about=""><dc:format>image/svg+xml</dc:format><dc:type
         rdf:resource="http://purl.org/dc/dcmitype/StillImage" /><dc:title /></cc:Work></rdf:RDF></metadata><defs
   id="defs37" /><sodipodi:namedview
   pagecolor="#ffffff"
   bordercolor="#666666"
   borderopacity="1"
   objecttolerance="10"
   gridtolerance="10"
   guidetolerance="10"
   inkscape:pageopacity="0"
   inkscape:pageshadow="2"
   inkscape:window-width="956"
   inkscape:window-height="1017"
   id="namedview35"
   showgrid="false"
   inkscape:zoom="4.4007684"
   inkscape:cx="34.993889"
   inkscape:cy="26.813499"
   inkscape:window-x="0"
   inkscape:window-y="29"
   inkscape:window-maximized="0"
   inkscape:current-layer="Capa_1" />
<path
   d="M 64,58.937476 45.105637,40.043113 C 48.241968,35.857758 50.124005,30.681858 50.124005,25.062002 50.124005,11.242098 38.881907,0 25.062002,0 11.242098,0 0,11.242098 0,25.062002 c 0,13.819905 11.242098,25.062003 25.062002,25.062003 5.619856,0 10.795756,-1.882037 14.981111,-5.018368 L 58.937476,64 Z M 2.3868574,25.062002 c 0,-12.503552 10.1715926,-22.6751446 22.6751446,-22.6751446 12.503553,0 22.675145,10.1715926 22.675145,22.6751446 0,12.503553 -10.171592,22.675145 -22.675145,22.675145 -12.503552,0 -22.6751446,-10.171592 -22.6751446,-22.675145 z M 42.446678,43.074421 c 0.21243,-0.205269 0.42128,-0.414119 0.62655,-0.62655 0.174241,-0.180207 0.362802,-0.346094 0.531076,-0.531075 l 17.02068,17.02068 -1.688702,1.688701 -17.019486,-17.021873 c 0.184981,-0.168274 0.349674,-0.356835 0.529882,-0.529883 z"
   id="path2"
   inkscape:connector-curvature="0"
   style="stroke-width:1.19342864" />
<g
   id="g4"
   transform="translate(0,10.373001)">
</g>
<g
   id="g6"
   transform="translate(0,10.373001)">
</g>
<g
   id="g8"
   transform="translate(0,10.373001)">
</g>
<g
   id="g10"
   transform="translate(0,10.373001)">
</g>
<g
   id="g12"
   transform="translate(0,10.373001)">
</g>
<g
   id="g14"
   transform="translate(0,10.373001)">
</g>
<g
   id="g16"
   transform="translate(0,10.373001)">
</g>
<g
   id="g18"
   transform="translate(0,10.373001)">
</g>
<g
   id="g20"
   transform="translate(0,10.373001)">
</g>
<g
   id="g22"
   transform="translate(0,10.373001)">
</g>
<g
   id="g24"
   transform="translate(0,10.373001)">
</g>
<g
   id="g26"
   transform="translate(0,10.373001)">
</g>
<g
   id="g28"
   transform="translate(0,10.373001)">
</g>
<g
   id="g30"
   transform="translate(0,10.373001)">
</g>
<g
   id="g32"
   transform="translate(0,10.373001)">
</g>
<title
   id="title827">Search</title></svg>