<?xml version="1.0" encoding="UTF-8" standalone="no"?>

<svg
   xmlns:dc="http://purl.org/dc/elements/1.1/"
   xmlns:cc="http://creativecommons.org/ns#"
   xmlns:rdf="http://www.w3.org/1999/02/22-rdf-syntax-ns#"
   xmlns:svg="http://www.w3.org/2000/svg"
   xmlns="http://www.w3.org/2000/svg"
   xmlns:sodipodi="http://sodipodi.sourceforge.net/DTD/sodipodi-0.dtd"
   xmlns:inkscape="http://www.inkscape.org/namespaces/inkscape"
   version="1.1"
   id="queue-control-save-asset"
   x="0px"
   y="0px"
   viewBox="0 0 64 64"
   xml:space="preserve"
   sodipodi:docname="save.svg"
   width="64"
   height="64"
   inkscape:version="0.92.5 (2060ec1f9f, 2020-04-08)"
   class="queue-control-save-asset"><metadata
   id="metadata49"><rdf:RDF><cc:Work
       rdf:about=""><dc:format>image/svg+xml</dc:format><dc:type
         rdf:resource="http://purl.org/dc/dcmitype/StillImage" /><dc:title></dc:title></cc:Work></rdf:RDF></metadata><defs
   id="defs47" /><sodipodi:namedview
   pagecolor="#ffffff"
   bordercolor="#666666"
   borderopacity="1"
   objecttolerance="10"
   gridtolerance="10"
   guidetolerance="10"
   inkscape:pageopacity="0"
   inkscape:pageshadow="2"
   inkscape:window-width="1920"
   inkscape:window-height="1019"
   id="namedview45"
   showgrid="false"
   inkscape:zoom="9.6326531"
   inkscape:cx="24.488952"
   inkscape:cy="27.579843"
   inkscape:window-x="0"
   inkscape:window-y="29"
   inkscape:window-maximized="1"
   inkscape:current-layer="queue-control-save-asset" />

<g
   id="g14"
   transform="translate(0,15)">
</g>
<g
   id="g16"
   transform="translate(0,15)">
</g>
<g
   id="g18"
   transform="translate(0,15)">
</g>
<g
   id="g20"
   transform="translate(0,15)">
</g>
<g
   id="g22"
   transform="translate(0,15)">
</g>
<g
   id="g24"
   transform="translate(0,15)">
</g>
<g
   id="g26"
   transform="translate(0,15)">
</g>
<g
   id="g28"
   transform="translate(0,15)">
</g>
<g
   id="g30"
   transform="translate(0,15)">
</g>
<g
   id="g32"
   transform="translate(0,15)">
</g>
<g
   id="g34"
   transform="translate(0,15)">
</g>
<g
   id="g36"
   transform="translate(0,15)">
</g>
<g
   id="g38"
   transform="translate(0,15)">
</g>
<g
   id="g40"
   transform="translate(0,15)">
</g>
<g
   id="g42"
   transform="translate(0,15)">
</g>
<g
   inkscape:groupmode="layer"
   id="queue-control-save-asset-save-layer"
   inkscape:label="save-layer"
   style="display:inline"
   transform="matrix(1.0108139,0,0,1,-0.6055791,0)"
   class="queue-control-save-asset-save-layer"><g
     id="g12"
     transform="translate(7.5,7.5)">
	<path
   d="M 39.914,0 H 37.5 9.5 0.5 v 49 h 7 33 8 V 8.586 Z M 35.5,2 v 14 h -24 V 2 Z M 9.5,47 V 28 h 29 v 19 z m 37,0 h -6 V 26 h -33 v 21 h -5 V 2 h 7 v 16 h 28 V 2 h 1.586 L 46.5,9.414 Z"
   id="path2"
   inkscape:connector-curvature="0" />
	<path
   d="m 13.5,33 h 7 c 0.553,0 1,-0.447 1,-1 0,-0.553 -0.447,-1 -1,-1 h -7 c -0.553,0 -1,0.447 -1,1 0,0.553 0.447,1 1,1 z"
   id="path4"
   inkscape:connector-curvature="0" />
	<path
   d="m 23.5,35 h -10 c -0.553,0 -1,0.447 -1,1 0,0.553 0.447,1 1,1 h 10 c 0.553,0 1,-0.447 1,-1 0,-0.553 -0.447,-1 -1,-1 z"
   id="path6"
   inkscape:connector-curvature="0" />
	<path
   d="m 25.79,35.29 c -0.181,0.189 -0.29,0.45 -0.29,0.71 0,0.26 0.109,0.52 0.29,0.71 0.189,0.18 0.439,0.29 0.71,0.29 0.26,0 0.52,-0.11 0.71,-0.29 0.18,-0.19 0.29,-0.45 0.29,-0.71 0,-0.26 -0.11,-0.521 -0.29,-0.71 -0.37,-0.37 -1.05,-0.37 -1.42,0 z"
   id="path8"
   inkscape:connector-curvature="0" />
	<path
   d="m 33.5,4 h -6 v 10 h 6 z m -2,8 h -2 V 6 h 2 z"
   id="path10"
   inkscape:connector-curvature="0" />
</g></g><g
   inkscape:groupmode="layer"
   id="queue-control-save-asset-checked-layer"
   inkscape:label="checked-layer"
   style="display:inline"
   class="queue-control-save-asset-checked-layer"><g
     id="g6"
     transform="matrix(0.81666667,0,0,0.81666667,7.4999999,7.4999999)"><path
       inkscape:connector-curvature="0"
       d="M 26.375,39.781 C 26.559,39.928 26.78,40 27,40 c 0.276,0 0.551,-0.114 0.748,-0.336 l 16,-18 c 0.367,-0.412 0.33,-1.045 -0.083,-1.411 -0.414,-0.368 -1.045,-0.33 -1.412,0.083 l -15.369,17.29 -9.259,-7.407 c -0.43,-0.345 -1.061,-0.273 -1.405,0.156 -0.345,0.432 -0.275,1.061 0.156,1.406 z"
       id="path2-3" /><path
       inkscape:connector-curvature="0"
       d="M 0,0 V 60 H 60 V 0 Z M 58,58 H 2 V 2 h 56 z"
       id="path4-6" /></g></g></svg>