<?xml version="1.0" encoding="UTF-8" standalone="no"?>
<!-- Generator: Adobe Illustrator 19.0.0, SVG Export Plug-In . SVG Version: 6.00 Build 0)  -->

<svg
   version="1.1"
   id="Capa_1"
   x="0px"
   y="0px"
   viewBox="0 0 384.97 384.97"
   style="enable-background:new 0 0 384.97 384.97;"
   xml:space="preserve"
   sodipodi:docname="fullscreen.svg"
   inkscape:version="1.1.2 (0a00cf5339, 2022-02-04)"
   xmlns:inkscape="http://www.inkscape.org/namespaces/inkscape"
   xmlns:sodipodi="http://sodipodi.sourceforge.net/DTD/sodipodi-0.dtd"
   xmlns="http://www.w3.org/2000/svg"
   xmlns:svg="http://www.w3.org/2000/svg"><defs
   id="defs58" /><sodipodi:namedview
   id="namedview56"
   pagecolor="#ffffff"
   bordercolor="#666666"
   borderopacity="1.0"
   inkscape:pageshadow="2"
   inkscape:pageopacity="0.0"
   inkscape:pagecheckerboard="0"
   showgrid="false"
   inkscape:zoom="0.83642881"
   inkscape:cx="79.504674"
   inkscape:cy="323.99649"
   inkscape:window-width="960"
   inkscape:window-height="1009"
   inkscape:window-x="1920"
   inkscape:window-y="42"
   inkscape:window-maximized="0"
   inkscape:current-layer="Capa_1" />
<g
   id="g23"
   style="stroke:#000000;stroke-opacity:1;stroke-width:5;stroke-miterlimit:4;stroke-dasharray:none">
	<g
   id="Fullscreen"
   style="stroke:#000000;stroke-opacity:1;stroke-width:5;stroke-miterlimit:4;stroke-dasharray:none">
		<path
   d="M384.97,12.03c0-6.713-5.317-12.03-12.03-12.03H264.847c-6.833,0-11.922,5.39-11.934,12.223    c0,6.821,5.101,11.838,11.934,11.838h96.062l-0.193,96.519c0,6.833,5.197,12.03,12.03,12.03c6.833-0.012,12.03-5.197,12.03-12.03    l0.193-108.369c0-0.036-0.012-0.06-0.012-0.084C384.958,12.09,384.97,12.066,384.97,12.03z"
   id="path2"
   style="stroke:#000000;stroke-opacity:1;stroke-width:5;stroke-miterlimit:4;stroke-dasharray:none" />
		<path
   d="M120.496,0H12.403c-0.036,0-0.06,0.012-0.096,0.012C12.283,0.012,12.247,0,12.223,0C5.51,0,0.192,5.317,0.192,12.03    L0,120.399c0,6.833,5.39,11.934,12.223,11.934c6.821,0,11.838-5.101,11.838-11.934l0.192-96.339h96.242    c6.833,0,12.03-5.197,12.03-12.03C132.514,5.197,127.317,0,120.496,0z"
   id="path4"
   style="stroke:#000000;stroke-opacity:1;stroke-width:5;stroke-miterlimit:4;stroke-dasharray:none" />
		<path
   d="M120.123,360.909H24.061v-96.242c0-6.833-5.197-12.03-12.03-12.03S0,257.833,0,264.667v108.092    c0,0.036,0.012,0.06,0.012,0.084c0,0.036-0.012,0.06-0.012,0.096c0,6.713,5.317,12.03,12.03,12.03h108.092    c6.833,0,11.922-5.39,11.934-12.223C132.057,365.926,126.956,360.909,120.123,360.909z"
   id="path6"
   style="stroke:#000000;stroke-opacity:1;stroke-width:5;stroke-miterlimit:4;stroke-dasharray:none" />
		<path
   d="M372.747,252.913c-6.833,0-11.85,5.101-11.838,11.934v96.062h-96.242c-6.833,0-12.03,5.197-12.03,12.03    s5.197,12.03,12.03,12.03h108.092c0.036,0,0.06-0.012,0.084-0.012c0.036-0.012,0.06,0.012,0.096,0.012    c6.713,0,12.03-5.317,12.03-12.03V264.847C384.97,258.014,379.58,252.913,372.747,252.913z"
   id="path8"
   style="stroke:#000000;stroke-opacity:1;stroke-width:5;stroke-miterlimit:4;stroke-dasharray:none" />
	</g>
	<g
   id="g11"
   style="stroke:#000000;stroke-opacity:1;stroke-width:5;stroke-miterlimit:4;stroke-dasharray:none">
	</g>
	<g
   id="g13"
   style="stroke:#000000;stroke-opacity:1;stroke-width:5;stroke-miterlimit:4;stroke-dasharray:none">
	</g>
	<g
   id="g15"
   style="stroke:#000000;stroke-opacity:1;stroke-width:5;stroke-miterlimit:4;stroke-dasharray:none">
	</g>
	<g
   id="g17"
   style="stroke:#000000;stroke-opacity:1;stroke-width:5;stroke-miterlimit:4;stroke-dasharray:none">
	</g>
	<g
   id="g19"
   style="stroke:#000000;stroke-opacity:1;stroke-width:5;stroke-miterlimit:4;stroke-dasharray:none">
	</g>
	<g
   id="g21"
   style="stroke:#000000;stroke-opacity:1;stroke-width:5;stroke-miterlimit:4;stroke-dasharray:none">
	</g>
</g>
<g
   id="g25">
</g>
<g
   id="g27">
</g>
<g
   id="g29">
</g>
<g
   id="g31">
</g>
<g
   id="g33">
</g>
<g
   id="g35">
</g>
<g
   id="g37">
</g>
<g
   id="g39">
</g>
<g
   id="g41">
</g>
<g
   id="g43">
</g>
<g
   id="g45">
</g>
<g
   id="g47">
</g>
<g
   id="g49">
</g>
<g
   id="g51">
</g>
<g
   id="g53">
</g>
</svg>
