<?xml version="1.0" encoding="UTF-8" standalone="no"?>
<svg
   xmlns:dc="http://purl.org/dc/elements/1.1/"
   xmlns:cc="http://creativecommons.org/ns#"
   xmlns:rdf="http://www.w3.org/1999/02/22-rdf-syntax-ns#"
   xmlns:svg="http://www.w3.org/2000/svg"
   xmlns="http://www.w3.org/2000/svg"
   xmlns:sodipodi="http://sodipodi.sourceforge.net/DTD/sodipodi-0.dtd"
   xmlns:inkscape="http://www.inkscape.org/namespaces/inkscape"
   version="1.1"
   id="admin-control-remove-asset"
   x="0px"
   y="0px"
   viewBox="0 0 64 64"
   xml:space="preserve"
   sodipodi:docname="add.svg"
   width="64"
   height="64"
   inkscape:version="0.92.5 (2060ec1f9f, 2020-04-08)"
   class="peers-control-admin-asset"><metadata
     id="peers-control-admin-asset"><rdf:RDF><cc:Work
         rdf:about=""><dc:format>image/svg+xml</dc:format><dc:type
           rdf:resource="http://purl.org/dc/dcmitype/StillImage" /><dc:title /></cc:Work></rdf:RDF></metadata><defs
     id="defs37" /><sodipodi:namedview
     pagecolor="#ffffff"
     bordercolor="#666666"
     borderopacity="1"
     objecttolerance="10"
     gridtolerance="10"
     guidetolerance="10"
     inkscape:pageopacity="0"
     inkscape:pageshadow="2"
     inkscape:window-width="1920"
     inkscape:window-height="1019"
     id="namedview35"
     showgrid="false"
     inkscape:zoom="8"
     inkscape:cx="51.245567"
     inkscape:cy="30.044168"
     inkscape:window-x="0"
     inkscape:window-y="29"
     inkscape:window-maximized="1"
     inkscape:current-layer="admin-control-remove-asset" /><g
     inkscape:groupmode="layer"
     id="peers-control-admin-asset-remove-layer"
     inkscape:label="remove-layer"
     style="display:inline"
     class="peers-control-admin-asset-remove-layer"><polygon
       points="42,20 22,20 22,0 20,0 20,20 0,20 0,22 20,22 20,42 22,42 22,22 42,22 "
       id="polygon2"
       transform="matrix(0.8789352,0.8789352,-0.8789352,0.8789352,32,-4.9152784)" /></g><g
     inkscape:groupmode="layer"
     id="peers-control-admin-asset-check-layer"
     inkscape:label="check-layer"
     style="display:inline"
     class="peers-control-admin-asset-check-layer"><path
       inkscape:connector-curvature="0"
       d="m 58.366468,13.497779 c -0.446377,-0.446377 -1.167886,-0.446377 -1.614262,0 L 22.168871,48.081113 7.247794,33.160036 c -0.446376,-0.446376 -1.1678851,-0.446376 -1.6142616,0 -0.4463765,0.446377 -0.4463765,1.167886 0,1.614262 L 21.36174,50.502506 c 0.222618,0.222617 0.514874,0.334497 0.807131,0.334497 0.292257,0 0.584514,-0.11188 0.807131,-0.334497 L 58.366468,15.112041 c 0.446376,-0.446377 0.446376,-1.167886 0,-1.614262 z"
       id="path4-6"
       style="stroke-width:1.14162791" /></g><g
     class="peers-control-admin-asset-add-layer"
     style="display:inline"
     inkscape:label="add-layer copy"
     id="peers-control-admin-asset-add-layer"
     inkscape:groupmode="layer"><polygon
       transform="matrix(1.1666667,0,0,1.1666667,7.4999993,7.4999993)"
       id="polygon4762"
       points="42,22 42,20 22,20 22,0 20,0 20,20 0,20 0,22 20,22 20,42 22,42 22,22 " /></g></svg>