<?xml version="1.0" encoding="UTF-8" standalone="no"?>
<svg
   version="1.1"
   id="livedj-next-ico"
   x="0px"
   y="0px"
   viewBox="0 0 64 64"
   xml:space="preserve"
   sodipodi:docname="next.svg"
   width="64"
   height="64"
   inkscape:version="1.1.2 (0a00cf5339, 2022-02-04)"
   xmlns:inkscape="http://www.inkscape.org/namespaces/inkscape"
   xmlns:sodipodi="http://sodipodi.sourceforge.net/DTD/sodipodi-0.dtd"
   xmlns="http://www.w3.org/2000/svg"
   xmlns:svg="http://www.w3.org/2000/svg"
   xmlns:rdf="http://www.w3.org/1999/02/22-rdf-syntax-ns#"
   xmlns:cc="http://creativecommons.org/ns#"
   xmlns:dc="http://purl.org/dc/elements/1.1/"><metadata><rdf:RDF><cc:Work
       rdf:about=""><dc:format>image/svg+xml</dc:format><dc:type
         rdf:resource="http://purl.org/dc/dcmitype/StillImage" /><dc:title /></cc:Work></rdf:RDF></metadata><defs /><sodipodi:namedview
   pagecolor="#ffffff"
   bordercolor="#666666"
   borderopacity="1"
   objecttolerance="10"
   gridtolerance="10"
   guidetolerance="10"
   inkscape:pageopacity="0"
   inkscape:pageshadow="2"
   inkscape:window-width="960"
   inkscape:window-height="1009"
      showgrid="false"
   inkscape:zoom="5.6190476"
   inkscape:cx="13.258475"
   inkscape:cy="48.762712"
   inkscape:window-x="1920"
   inkscape:window-y="42"
   inkscape:window-maximized="0"
   inkscape:current-layer="Capa_1"
   inkscape:pagecheckerboard="0" />
<path
   d="M 47.952381,6 C 47.268953,6 44.714285,6.5534286 44.714285,7.2380952 V 29.641429 L 14.750857,6.2191429 C 14.372,5.9579048 13.879238,5.9294286 13.471905,6.1411429 13.064571,6.3553334 12.809524,6.7775238 12.809524,7.2380952 V 56.761904 c 0,0.460572 0.255047,0.882763 0.662381,1.096953 C 13.652667,57.952952 13.850762,58 14.047619,58 14.294,58 14.539142,57.92571 14.750857,57.780857 L 44.714285,34.358571 v 22.403333 c 0,0.684667 2.554668,1.238096 3.238095,1.238096 0.683429,0 3.238095,-0.553429 3.238095,-1.238096 V 7.2380952 C 51.190476,6.5534286 48.635809,6 47.952381,6 Z"
      inkscape:connector-curvature="0"
   style="stroke-width:1.2381"
   sodipodi:nodetypes="sscccsscsccssscs" />
<g
      transform="translate(0,22)">
</g>
<g
      transform="translate(0,22)">
</g>
<g
      transform="translate(0,22)">
</g>
<g
      transform="translate(0,22)">
</g>
<g
      transform="translate(0,22)">
</g>
<g
      transform="translate(0,22)">
</g>
<g
      transform="translate(0,22)">
</g>
<g
      transform="translate(0,22)">
</g>
<g
      transform="translate(0,22)">
</g>
<g
      transform="translate(0,22)">
</g>
<g
      transform="translate(0,22)">
</g>
<g
      transform="translate(0,22)">
</g>
<g
      transform="translate(0,22)">
</g>
<g
      transform="translate(0,22)">
</g>
<g
      transform="translate(0,22)">
</g>
</svg>
