<?xml version="1.0" encoding="UTF-8" standalone="no"?>
<svg
   version="1.1"
   id="Capa_1"
   x="0px"
   y="0px"
   viewBox="0 0 64 64"
   xml:space="preserve"
   sodipodi:docname="next.svg"
   width="64"
   height="64"
   inkscape:version="1.1.2 (0a00cf5339, 2022-02-04)"
   xmlns:inkscape="http://www.inkscape.org/namespaces/inkscape"
   xmlns:sodipodi="http://sodipodi.sourceforge.net/DTD/sodipodi-0.dtd"
   xmlns="http://www.w3.org/2000/svg"
   xmlns:svg="http://www.w3.org/2000/svg"
   xmlns:rdf="http://www.w3.org/1999/02/22-rdf-syntax-ns#"
   xmlns:cc="http://creativecommons.org/ns#"
   xmlns:dc="http://purl.org/dc/elements/1.1/"><metadata
   id="metadata39"><rdf:RDF><cc:Work
       rdf:about=""><dc:format>image/svg+xml</dc:format><dc:type
         rdf:resource="http://purl.org/dc/dcmitype/StillImage" /></cc:Work></rdf:RDF></metadata><defs
   id="defs37" /><sodipodi:namedview
   pagecolor="#ffffff"
   bordercolor="#666666"
   borderopacity="1"
   objecttolerance="10"
   gridtolerance="10"
   guidetolerance="10"
   inkscape:pageopacity="0"
   inkscape:pageshadow="2"
   inkscape:window-width="1920"
   inkscape:window-height="1009"
   id="namedview35"
   showgrid="false"
   inkscape:zoom="5.6190477"
   inkscape:cx="6.6737288"
   inkscape:cy="27.050847"
   inkscape:window-x="1920"
   inkscape:window-y="42"
   inkscape:window-maximized="1"
   inkscape:current-layer="Capa_1"
   inkscape:pagecheckerboard="0" />
<path
   d="m 13.471905,57.858857 c 0.407331,0.211714 0.898857,0.183238 1.278952,-0.078 L 48.714284,34.358571 v 22.403334 c 0,0.684666 0.554668,1.238095 1.238096,1.238095 0.68343,0 1.238097,-0.553429 1.238097,-1.238095 V 7.2380962 c 0,-0.684666 -0.554667,-1.238096 -1.238097,-1.238096 -0.683429,0 -1.238097,0.55343 -1.238097,1.238096 V 29.64143 L 14.750859,6.2179032 c -0.211717,-0.143616 -0.45686,-0.217903 -0.70324,-0.217903 -0.196857,0 -0.394951,0.04704 -0.575714,0.141143 -0.407333,0.2141901 -0.662382,0.636381 -0.662382,1.096953 V 56.761905 c 0,0.460571 0.255049,0.882761 0.662382,1.096952 z"
   id="path2"
   inkscape:connector-curvature="0"
   style="stroke-width:1.2381"
   sodipodi:nodetypes="cccssssssccscssc" />
<g
   id="g4"
   transform="translate(0,22)">
</g>
<g
   id="g6"
   transform="translate(0,22)">
</g>
<g
   id="g8"
   transform="translate(0,22)">
</g>
<g
   id="g10"
   transform="translate(0,22)">
</g>
<g
   id="g12"
   transform="translate(0,22)">
</g>
<g
   id="g14"
   transform="translate(0,22)">
</g>
<g
   id="g16"
   transform="translate(0,22)">
</g>
<g
   id="g18"
   transform="translate(0,22)">
</g>
<g
   id="g20"
   transform="translate(0,22)">
</g>
<g
   id="g22"
   transform="translate(0,22)">
</g>
<g
   id="g24"
   transform="translate(0,22)">
</g>
<g
   id="g26"
   transform="translate(0,22)">
</g>
<g
   id="g28"
   transform="translate(0,22)">
</g>
<g
   id="g30"
   transform="translate(0,22)">
</g>
<g
   id="g32"
   transform="translate(0,22)">
</g>
</svg>
