<?xml version="1.0" encoding="UTF-8" standalone="no"?>
<!-- Generator: Adobe Illustrator 19.0.0, SVG Export Plug-In . SVG Version: 6.00 Build 0)  -->

<svg
   xmlns:dc="http://purl.org/dc/elements/1.1/"
   xmlns:cc="http://creativecommons.org/ns#"
   xmlns:rdf="http://www.w3.org/1999/02/22-rdf-syntax-ns#"
   xmlns:svg="http://www.w3.org/2000/svg"
   xmlns="http://www.w3.org/2000/svg"
   xmlns:sodipodi="http://sodipodi.sourceforge.net/DTD/sodipodi-0.dtd"
   xmlns:inkscape="http://www.inkscape.org/namespaces/inkscape"
   version="1.1"
   id="livedj-play-ico"
   x="0px"
   y="0px"
   viewBox="0 0 63.999999 63.999999"
   xml:space="preserve"
   sodipodi:docname="play-button.svg"
   width="64"
   height="64"
   inkscape:version="0.92.5 (2060ec1f9f, 2020-04-08)"><metadata><rdf:RDF><cc:Work
       rdf:about=""><dc:format>image/svg+xml</dc:format><dc:type
         rdf:resource="http://purl.org/dc/dcmitype/StillImage" /><dc:title></dc:title></cc:Work></rdf:RDF></metadata><defs /><sodipodi:namedview
   pagecolor="#ffffff"
   bordercolor="#666666"
   borderopacity="1"
   objecttolerance="10"
   gridtolerance="10"
   guidetolerance="10"
   inkscape:pageopacity="0"
   inkscape:pageshadow="2"
   inkscape:window-width="956"
   inkscape:window-height="1017"
      showgrid="false"
   inkscape:zoom="2.8095907"
   inkscape:cx="12.786534"
   inkscape:cy="66.39295"
   inkscape:window-x="0"
   inkscape:window-y="29"
   inkscape:window-maximized="0"
   inkscape:current-layer="Capa_1" />
<path
   d="M 50.656071,30.980392 14.750438,6.217887 C 14.370334,5.956642 13.87756,5.929403 13.471455,6.141123 13.064112,6.355318 12.809058,6.776281 12.809058,7.236864 v 49.525011 c 0,0.460582 0.255054,0.882783 0.662397,1.096979 C 13.652221,57.952954 13.850321,58 14.047183,58 c 0.246387,0 0.491536,-0.07429 0.703255,-0.219148 L 50.656071,33.018346 c 0.335532,-0.231529 0.534871,-0.611634 0.534871,-1.018977 0,-0.407343 -0.200577,-0.787447 -0.534871,-1.018977 z M 15.285309,54.404484 V 9.595492 l 32.487169,22.405115 z"
      inkscape:connector-curvature="0"
   style="stroke-width:1.23812532" />
<g
      transform="translate(0,22.000999)">
</g>
<g
      transform="translate(0,22.000999)">
</g>
<g
      transform="translate(0,22.000999)">
</g>
<g
      transform="translate(0,22.000999)">
</g>
<g
      transform="translate(0,22.000999)">
</g>
<g
      transform="translate(0,22.000999)">
</g>
<g
      transform="translate(0,22.000999)">
</g>
<g
      transform="translate(0,22.000999)">
</g>
<g
      transform="translate(0,22.000999)">
</g>
<g
      transform="translate(0,22.000999)">
</g>
<g
      transform="translate(0,22.000999)">
</g>
<g
      transform="translate(0,22.000999)">
</g>
<g
      transform="translate(0,22.000999)">
</g>
<g
      transform="translate(0,22.000999)">
</g>
<g
      transform="translate(0,22.000999)">
</g>
</svg>