<?xml version="1.0" encoding="UTF-8" standalone="no"?>

<svg
   xmlns:dc="http://purl.org/dc/elements/1.1/"
   xmlns:cc="http://creativecommons.org/ns#"
   xmlns:rdf="http://www.w3.org/1999/02/22-rdf-syntax-ns#"
   xmlns:svg="http://www.w3.org/2000/svg"
   xmlns="http://www.w3.org/2000/svg"
   xmlns:sodipodi="http://sodipodi.sourceforge.net/DTD/sodipodi-0.dtd"
   xmlns:inkscape="http://www.inkscape.org/namespaces/inkscape"
   version="1.1"
   id="Capa_1"
   x="0px"
   y="0px"
   viewBox="0 0 64 64"
   xml:space="preserve"
   sodipodi:docname="back.svg"
   width="64"
   height="64"
   inkscape:version="0.92.5 (2060ec1f9f, 2020-04-08)"><metadata
   id="metadata39"><rdf:RDF><cc:Work
       rdf:about=""><dc:format>image/svg+xml</dc:format><dc:type
         rdf:resource="http://purl.org/dc/dcmitype/StillImage" /><dc:title /></cc:Work></rdf:RDF></metadata><defs
   id="defs37" /><sodipodi:namedview
   pagecolor="#ffffff"
   bordercolor="#666666"
   borderopacity="1"
   objecttolerance="10"
   gridtolerance="10"
   guidetolerance="10"
   inkscape:pageopacity="0"
   inkscape:pageshadow="2"
   inkscape:window-width="1920"
   inkscape:window-height="1019"
   id="namedview35"
   showgrid="false"
   inkscape:zoom="3.9732667"
   inkscape:cx="-51.896679"
   inkscape:cy="25.865254"
   inkscape:window-x="0"
   inkscape:window-y="29"
   inkscape:window-maximized="1"
   inkscape:current-layer="Capa_1" />
<path
   d="m 50.528095,6.1411426 c -0.407331,-0.2117138 -0.898857,-0.1832376 -1.278952,0.078 L 15.285716,29.641429 V 7.238095 C 15.285716,6.5534288 14.731048,6 14.04762,6 13.36419,6 12.809524,6.5534288 12.809524,7.238095 V 56.761904 C 12.809524,57.44657 13.36419,58 14.04762,58 c 0.683429,0 1.238097,-0.55343 1.238097,-1.238096 V 34.35857 L 49.249142,57.782096 C 49.460858,57.925713 49.706001,58 49.952381,58 c 0.196857,0 0.394951,-0.04704 0.575714,-0.141143 0.407333,-0.21419 0.662382,-0.636381 0.662382,-1.096953 V 7.238095 c 0,-0.4605712 -0.255049,-0.8827614 -0.662382,-1.0969524 z M 48.714286,54.404571 16.227906,32 48.714286,9.595429 Z"
   id="path2"
   inkscape:connector-curvature="0"
   style="stroke-width:1.23809528" />
<g
   id="g4"
   transform="translate(0,22)">
</g>
<g
   id="g6"
   transform="translate(0,22)">
</g>
<g
   id="g8"
   transform="translate(0,22)">
</g>
<g
   id="g10"
   transform="translate(0,22)">
</g>
<g
   id="g12"
   transform="translate(0,22)">
</g>
<g
   id="g14"
   transform="translate(0,22)">
</g>
<g
   id="g16"
   transform="translate(0,22)">
</g>
<g
   id="g18"
   transform="translate(0,22)">
</g>
<g
   id="g20"
   transform="translate(0,22)">
</g>
<g
   id="g22"
   transform="translate(0,22)">
</g>
<g
   id="g24"
   transform="translate(0,22)">
</g>
<g
   id="g26"
   transform="translate(0,22)">
</g>
<g
   id="g28"
   transform="translate(0,22)">
</g>
<g
   id="g30"
   transform="translate(0,22)">
</g>
<g
   id="g32"
   transform="translate(0,22)">
</g>
</svg>