<?xml version="1.0" encoding="UTF-8" standalone="no"?>

<svg
   xmlns:dc="http://purl.org/dc/elements/1.1/"
   xmlns:cc="http://creativecommons.org/ns#"
   xmlns:rdf="http://www.w3.org/1999/02/22-rdf-syntax-ns#"
   xmlns:svg="http://www.w3.org/2000/svg"
   xmlns="http://www.w3.org/2000/svg"
   xmlns:sodipodi="http://sodipodi.sourceforge.net/DTD/sodipodi-0.dtd"
   xmlns:inkscape="http://www.inkscape.org/namespaces/inkscape"
   version="1.1"
   id="Capa_1"
   x="0px"
   y="0px"
   viewBox="0 0 64 64"
   xml:space="preserve"
   sodipodi:docname="next.svg"
   width="64"
   height="64"
   inkscape:version="0.92.5 (2060ec1f9f, 2020-04-08)"><metadata
   id="metadata39"><rdf:RDF><cc:Work
       rdf:about=""><dc:format>image/svg+xml</dc:format><dc:type
         rdf:resource="http://purl.org/dc/dcmitype/StillImage" /><dc:title /></cc:Work></rdf:RDF></metadata><defs
   id="defs37" /><sodipodi:namedview
   pagecolor="#ffffff"
   bordercolor="#666666"
   borderopacity="1"
   objecttolerance="10"
   gridtolerance="10"
   guidetolerance="10"
   inkscape:pageopacity="0"
   inkscape:pageshadow="2"
   inkscape:window-width="1920"
   inkscape:window-height="1019"
   id="namedview35"
   showgrid="false"
   inkscape:zoom="5.6190476"
   inkscape:cx="-67.36017"
   inkscape:cy="21"
   inkscape:window-x="0"
   inkscape:window-y="29"
   inkscape:window-maximized="1"
   inkscape:current-layer="Capa_1" />
<path
   d="M 49.952381,6 C 49.268953,6 48.714285,6.5534286 48.714285,7.2380952 V 29.641429 L 14.750857,6.2191429 C 14.372,5.9579048 13.879238,5.9294286 13.471905,6.1411429 13.064571,6.3553334 12.809524,6.7775238 12.809524,7.2380952 V 56.761904 c 0,0.460572 0.255047,0.882763 0.662381,1.096953 C 13.652667,57.952952 13.850762,58 14.047619,58 14.294,58 14.539142,57.92571 14.750857,57.780857 L 48.714285,34.358571 v 22.403333 c 0,0.684667 0.554668,1.238096 1.238095,1.238096 0.683429,0 1.238095,-0.553429 1.238095,-1.238096 V 7.2380952 C 51.190476,6.5534286 50.635809,6 49.952381,6 Z M 15.285715,54.404571 V 9.595429 L 47.772095,32 Z"
   id="path2"
   inkscape:connector-curvature="0"
   style="stroke-width:1.23809528" />
<g
   id="g4"
   transform="translate(0,22)">
</g>
<g
   id="g6"
   transform="translate(0,22)">
</g>
<g
   id="g8"
   transform="translate(0,22)">
</g>
<g
   id="g10"
   transform="translate(0,22)">
</g>
<g
   id="g12"
   transform="translate(0,22)">
</g>
<g
   id="g14"
   transform="translate(0,22)">
</g>
<g
   id="g16"
   transform="translate(0,22)">
</g>
<g
   id="g18"
   transform="translate(0,22)">
</g>
<g
   id="g20"
   transform="translate(0,22)">
</g>
<g
   id="g22"
   transform="translate(0,22)">
</g>
<g
   id="g24"
   transform="translate(0,22)">
</g>
<g
   id="g26"
   transform="translate(0,22)">
</g>
<g
   id="g28"
   transform="translate(0,22)">
</g>
<g
   id="g30"
   transform="translate(0,22)">
</g>
<g
   id="g32"
   transform="translate(0,22)">
</g>
</svg>