<?xml version="1.0" encoding="UTF-8" standalone="no"?>
<!-- Generator: Adobe Illustrator 19.0.0, SVG Export Plug-In . SVG Version: 6.00 Build 0)  -->

<svg
   xmlns:dc="http://purl.org/dc/elements/1.1/"
   xmlns:cc="http://creativecommons.org/ns#"
   xmlns:rdf="http://www.w3.org/1999/02/22-rdf-syntax-ns#"
   xmlns:svg="http://www.w3.org/2000/svg"
   xmlns="http://www.w3.org/2000/svg"
   xmlns:sodipodi="http://sodipodi.sourceforge.net/DTD/sodipodi-0.dtd"
   xmlns:inkscape="http://www.inkscape.org/namespaces/inkscape"
   version="1.1"
   id="Capa_1"
   x="0px"
   y="0px"
   viewBox="0 0 63.999998 63.999998"
   xml:space="preserve"
   sodipodi:docname="speaker-2.svg"
   width="64"
   height="64"
   inkscape:version="0.92.5 (2060ec1f9f, 2020-04-08)"><metadata
   id="metadata43"><rdf:RDF><cc:Work
       rdf:about=""><dc:format>image/svg+xml</dc:format><dc:type
         rdf:resource="http://purl.org/dc/dcmitype/StillImage" /><dc:title></dc:title></cc:Work></rdf:RDF></metadata><defs
   id="defs41" /><sodipodi:namedview
   pagecolor="#ffffff"
   bordercolor="#666666"
   borderopacity="1"
   objecttolerance="10"
   gridtolerance="10"
   guidetolerance="10"
   inkscape:pageopacity="0"
   inkscape:pageshadow="2"
   inkscape:window-width="956"
   inkscape:window-height="1017"
   id="namedview39"
   showgrid="false"
   inkscape:zoom="5.1299885"
   inkscape:cx="34.990332"
   inkscape:cy="23.002001"
   inkscape:window-x="0"
   inkscape:window-y="29"
   inkscape:window-maximized="0"
   inkscape:current-layer="Capa_1" />
<g
   id="g6"
   transform="matrix(1.1313865,0,0,1.1313865,-1.6846344,5.9764524)">
	<path
   d="m 29.893,0.402 c -0.976,-0.552 -2.132,-0.534 -3.09,0.044 -0.046,0.027 -0.09,0.059 -0.13,0.093 L 13.122,12.002 H 2.489 c -0.553,0 -1,0.447 -1,1 v 19 c 0,0.266 0.105,0.52 0.293,0.707 0.188,0.187 0.441,0.293 0.707,0.293 l 10.61,-0.005 13.543,12.44 c 0.05,0.046 0.104,0.086 0.161,0.12 0.492,0.297 1.037,0.446 1.582,0.446 0.517,-10e-4 1.033,-0.134 1.508,-0.402 0.999,-0.564 1.596,-1.595 1.596,-2.756 V 3.158 c 0,-1.161 -0.597,-2.191 -1.596,-2.756 z m -0.404,42.443 c 0,0.431 -0.217,0.81 -0.579,1.015 -0.155,0.087 -0.548,0.255 -1,0.026 L 14.489,31.557 v -4.556 c 0,-0.553 -0.447,-1 -1,-1 -0.553,0 -1,0.447 -1,1 v 3.996 l -9,0.004 v -17 h 9 v 4 c 0,0.553 0.447,1 1,1 0.553,0 1,-0.447 1,-1 V 13.465 L 27.894,2.125 c 0.461,-0.242 0.86,-0.07 1.016,0.018 0.362,0.205 0.579,0.584 0.579,1.015 z"
   id="path2"
   inkscape:connector-curvature="0" />
	<path
   d="m 34.766,9.54 c -0.532,-0.151 -1.085,0.152 -1.238,0.684 -0.153,0.53 0.152,1.085 0.684,1.238 4.889,1.413 8.304,5.953 8.304,11.04 0,5.087 -3.415,9.627 -8.304,11.04 -0.531,0.153 -0.837,0.708 -0.684,1.238 0.127,0.438 0.526,0.723 0.961,0.723 0.092,0 0.185,-0.013 0.277,-0.039 5.74,-1.66 9.749,-6.99 9.749,-12.962 0,-5.972 -4.009,-11.302 -9.749,-12.962 z"
   id="path4"
   inkscape:connector-curvature="0" />
</g>
<g
   id="g8"
   transform="translate(0,17.995998)">
</g>
<g
   id="g10"
   transform="translate(0,17.995998)">
</g>
<g
   id="g12"
   transform="translate(0,17.995998)">
</g>
<g
   id="g14"
   transform="translate(0,17.995998)">
</g>
<g
   id="g16"
   transform="translate(0,17.995998)">
</g>
<g
   id="g18"
   transform="translate(0,17.995998)">
</g>
<g
   id="g20"
   transform="translate(0,17.995998)">
</g>
<g
   id="g22"
   transform="translate(0,17.995998)">
</g>
<g
   id="g24"
   transform="translate(0,17.995998)">
</g>
<g
   id="g26"
   transform="translate(0,17.995998)">
</g>
<g
   id="g28"
   transform="translate(0,17.995998)">
</g>
<g
   id="g30"
   transform="translate(0,17.995998)">
</g>
<g
   id="g32"
   transform="translate(0,17.995998)">
</g>
<g
   id="g34"
   transform="translate(0,17.995998)">
</g>
<g
   id="g36"
   transform="translate(0,17.995998)">
</g>
</svg>