<?xml version="1.0" encoding="UTF-8" standalone="no"?>
<!-- Generator: Adobe Illustrator 19.0.0, SVG Export Plug-In . SVG Version: 6.00 Build 0)  -->

<svg
   xmlns:dc="http://purl.org/dc/elements/1.1/"
   xmlns:cc="http://creativecommons.org/ns#"
   xmlns:rdf="http://www.w3.org/1999/02/22-rdf-syntax-ns#"
   xmlns:svg="http://www.w3.org/2000/svg"
   xmlns="http://www.w3.org/2000/svg"
   xmlns:sodipodi="http://sodipodi.sourceforge.net/DTD/sodipodi-0.dtd"
   xmlns:inkscape="http://www.inkscape.org/namespaces/inkscape"
   version="1.1"
   id="Capa_1"
   x="0px"
   y="0px"
   viewBox="0 0 63.999999 63.999999"
   xml:space="preserve"
   sodipodi:docname="speaker-3.svg"
   width="64"
   height="64"
   inkscape:version="0.92.5 (2060ec1f9f, 2020-04-08)"><metadata
   id="metadata45"><rdf:RDF><cc:Work
       rdf:about=""><dc:format>image/svg+xml</dc:format><dc:type
         rdf:resource="http://purl.org/dc/dcmitype/StillImage" /><dc:title></dc:title></cc:Work></rdf:RDF></metadata><defs
   id="defs43" /><sodipodi:namedview
   pagecolor="#ffffff"
   bordercolor="#666666"
   borderopacity="1"
   objecttolerance="10"
   gridtolerance="10"
   guidetolerance="10"
   inkscape:pageopacity="0"
   inkscape:pageshadow="2"
   inkscape:window-width="956"
   inkscape:window-height="1017"
   id="namedview41"
   showgrid="false"
   showguides="true"
   inkscape:guide-bbox="true"
   inkscape:zoom="4.5361934"
   inkscape:cx="21.934691"
   inkscape:cy="26.013"
   inkscape:window-x="0"
   inkscape:window-y="29"
   inkscape:window-maximized="0"
   inkscape:current-layer="Capa_1" />
<g
   id="g8"
   transform="matrix(1.0635605,0,0,1.0635605,0,4.3341691)">
	<path
   d="M 28.404,3.413 C 27.428,2.861 26.273,2.879 25.314,3.457 25.268,3.484 25.224,3.516 25.184,3.55 L 11.634,15.013 H 1 c -0.553,0 -1,0.447 -1,1 v 19 c 0,0.266 0.105,0.52 0.293,0.707 0.188,0.187 0.441,0.293 0.707,0.293 l 10.61,-0.005 13.543,12.44 c 0.05,0.046 0.104,0.086 0.161,0.12 0.492,0.297 1.037,0.446 1.582,0.446 0.517,-0.001 1.033,-0.134 1.508,-0.402 C 29.403,48.048 30,47.018 30,45.857 V 6.169 C 30,5.008 29.403,3.978 28.404,3.413 Z M 28,45.857 c 0,0.431 -0.217,0.81 -0.579,1.015 -0.155,0.087 -0.548,0.255 -1,0.026 L 13,34.569 v -4.556 c 0,-0.553 -0.447,-1 -1,-1 -0.553,0 -1,0.447 -1,1 v 3.996 l -9,0.004 v -17 h 9 v 4 c 0,0.553 0.447,1 1,1 0.553,0 1,-0.447 1,-1 V 16.477 L 26.405,5.137 c 0.461,-0.242 0.86,-0.07 1.016,0.018 C 27.783,5.36 28,5.739 28,6.169 Z"
   id="path2"
   inkscape:connector-curvature="0" />
	<path
   d="m 38.797,7.066 c -0.523,-0.177 -1.091,0.103 -1.269,0.626 -0.177,0.522 0.103,1.091 0.626,1.269 7.101,2.411 11.872,9.063 11.872,16.553 0,7.483 -4.762,14.136 -11.849,16.554 -0.522,0.178 -0.802,0.746 -0.623,1.27 0.142,0.415 0.53,0.677 0.946,0.677 0.107,0 0.216,-0.017 0.323,-0.054 C 46.719,41.268 52.025,33.855 52.025,25.515 52.026,17.166 46.71,9.753 38.797,7.066 Z"
   id="path4"
   inkscape:connector-curvature="0" />
	<path
   d="m 43.026,25.513 c 0,-5.972 -4.009,-11.302 -9.749,-12.962 -0.533,-0.151 -1.084,0.152 -1.238,0.684 -0.153,0.53 0.152,1.085 0.684,1.238 4.889,1.413 8.304,5.953 8.304,11.04 0,5.087 -3.415,9.627 -8.304,11.04 -0.531,0.153 -0.837,0.708 -0.684,1.238 0.127,0.438 0.526,0.723 0.961,0.723 0.092,0 0.185,-0.013 0.277,-0.039 5.741,-1.66 9.749,-6.99 9.749,-12.962 z"
   id="path6"
   inkscape:connector-curvature="0" />
</g>
<g
   id="g10"
   transform="translate(0,11.973999)">
</g>
<g
   id="g12"
   transform="translate(0,11.973999)">
</g>
<g
   id="g14"
   transform="translate(0,11.973999)">
</g>
<g
   id="g16"
   transform="translate(0,11.973999)">
</g>
<g
   id="g18"
   transform="translate(0,11.973999)">
</g>
<g
   id="g20"
   transform="translate(0,11.973999)">
</g>
<g
   id="g22"
   transform="translate(0,11.973999)">
</g>
<g
   id="g24"
   transform="translate(0,11.973999)">
</g>
<g
   id="g26"
   transform="translate(0,11.973999)">
</g>
<g
   id="g28"
   transform="translate(0,11.973999)">
</g>
<g
   id="g30"
   transform="translate(0,11.973999)">
</g>
<g
   id="g32"
   transform="translate(0,11.973999)">
</g>
<g
   id="g34"
   transform="translate(0,11.973999)">
</g>
<g
   id="g36"
   transform="translate(0,11.973999)">
</g>
<g
   id="g38"
   transform="translate(0,11.973999)">
</g>
</svg>