<?xml version="1.0" encoding="UTF-8" standalone="no"?>
<!-- Generator: Adobe Illustrator 19.0.0, SVG Export Plug-In . SVG Version: 6.00 Build 0)  -->

<svg
   xmlns:dc="http://purl.org/dc/elements/1.1/"
   xmlns:cc="http://creativecommons.org/ns#"
   xmlns:rdf="http://www.w3.org/1999/02/22-rdf-syntax-ns#"
   xmlns:svg="http://www.w3.org/2000/svg"
   xmlns="http://www.w3.org/2000/svg"
   xmlns:sodipodi="http://sodipodi.sourceforge.net/DTD/sodipodi-0.dtd"
   xmlns:inkscape="http://www.inkscape.org/namespaces/inkscape"
   version="1.1"
   id="Capa_1"
   x="0px"
   y="0px"
   viewBox="0 0 64 64"
   xml:space="preserve"
   sodipodi:docname="speaker-0.svg"
   width="64"
   height="64"
   inkscape:version="0.92.5 (2060ec1f9f, 2020-04-08)"><metadata
   id="metadata43"><rdf:RDF><cc:Work
       rdf:about=""><dc:format>image/svg+xml</dc:format><dc:type
         rdf:resource="http://purl.org/dc/dcmitype/StillImage" /><dc:title></dc:title></cc:Work></rdf:RDF></metadata><defs
   id="defs41" /><sodipodi:namedview
   pagecolor="#ffffff"
   bordercolor="#666666"
   borderopacity="1"
   objecttolerance="10"
   gridtolerance="10"
   guidetolerance="10"
   inkscape:pageopacity="0"
   inkscape:pageshadow="2"
   inkscape:window-width="956"
   inkscape:window-height="1017"
   id="namedview39"
   showgrid="false"
   inkscape:zoom="4.3703704"
   inkscape:cx="48.622881"
   inkscape:cy="36.152542"
   inkscape:window-x="0"
   inkscape:window-y="29"
   inkscape:window-maximized="0"
   inkscape:current-layer="Capa_1" />
<g
   id="g6"
   transform="matrix(1.1851797,0,0,1.1851797,0,0.74082991)">
	<path
   d="m 46.414,26 7.293,-7.293 c 0.391,-0.391 0.391,-1.023 0,-1.414 -0.391,-0.391 -1.023,-0.391 -1.414,0 L 45,24.586 37.707,17.293 c -0.391,-0.391 -1.023,-0.391 -1.414,0 -0.391,0.391 -0.391,1.023 0,1.414 L 43.586,26 36.293,33.293 c -0.391,0.391 -0.391,1.023 0,1.414 C 36.488,34.902 36.744,35 37,35 c 0.256,0 0.512,-0.098 0.707,-0.293 L 45,27.414 52.293,34.707 C 52.488,34.902 52.744,35 53,35 c 0.256,0 0.512,-0.098 0.707,-0.293 0.391,-0.391 0.391,-1.023 0,-1.414 z"
   id="path2"
   inkscape:connector-curvature="0" />
	<path
   d="m 28.404,4.4 c -0.975,-0.552 -2.131,-0.534 -3.09,0.044 -0.046,0.027 -0.09,0.059 -0.13,0.093 L 11.634,16 H 1 c -0.553,0 -1,0.447 -1,1 v 19 c 0,0.266 0.105,0.52 0.293,0.707 C 0.481,36.894 0.734,37 1,37 l 10.61,-0.005 13.543,12.44 c 0.05,0.046 0.104,0.086 0.161,0.12 0.492,0.297 1.037,0.446 1.582,0.446 C 27.413,50 27.929,49.867 28.404,49.599 29.403,49.035 30,48.005 30,46.844 V 7.156 C 30,5.995 29.403,4.965 28.404,4.4 Z M 28,46.844 c 0,0.431 -0.217,0.81 -0.579,1.015 -0.155,0.087 -0.548,0.255 -1,0.026 L 13,35.556 V 31 c 0,-0.553 -0.447,-1 -1,-1 -0.553,0 -1,0.447 -1,1 v 3.996 L 2,35 V 18 h 9 v 4 c 0,0.553 0.447,1 1,1 0.553,0 1,-0.447 1,-1 V 17.464 L 26.405,6.124 c 0.46,-0.242 0.86,-0.07 1.016,0.018 C 27.783,6.347 28,6.725 28,7.156 Z"
   id="path4"
   inkscape:connector-curvature="0" />
</g>
<g
   id="g8"
   transform="translate(0,10)">
</g>
<g
   id="g10"
   transform="translate(0,10)">
</g>
<g
   id="g12"
   transform="translate(0,10)">
</g>
<g
   id="g14"
   transform="translate(0,10)">
</g>
<g
   id="g16"
   transform="translate(0,10)">
</g>
<g
   id="g18"
   transform="translate(0,10)">
</g>
<g
   id="g20"
   transform="translate(0,10)">
</g>
<g
   id="g22"
   transform="translate(0,10)">
</g>
<g
   id="g24"
   transform="translate(0,10)">
</g>
<g
   id="g26"
   transform="translate(0,10)">
</g>
<g
   id="g28"
   transform="translate(0,10)">
</g>
<g
   id="g30"
   transform="translate(0,10)">
</g>
<g
   id="g32"
   transform="translate(0,10)">
</g>
<g
   id="g34"
   transform="translate(0,10)">
</g>
<g
   id="g36"
   transform="translate(0,10)">
</g>
</svg>